<svg width="12" height="9" viewBox="0 0 12 9" fill="none" xmlns="http://www.w3.org/2000/svg">
<path fill-rule="evenodd" clip-rule="evenodd" d="M11.8539 0.645978C11.9005 0.692424 11.9374 0.747599 11.9626 0.808345C11.9878 0.86909 12.0008 0.934211 12.0008 0.999978C12.0008 1.06575 11.9878 1.13087 11.9626 1.19161C11.9374 1.25236 11.9005 1.30753 11.8539 1.35398L4.8539 8.35398C4.80745 8.40054 4.75228 8.43748 4.69153 8.46269C4.63079 8.4879 4.56567 8.50087 4.4999 8.50087C4.43413 8.50087 4.36901 8.4879 4.30827 8.46269C4.24752 8.43748 4.19234 8.40054 4.1459 8.35398L0.645899 4.85398C0.552012 4.76009 0.499268 4.63275 0.499268 4.49998C0.499268 4.3672 0.552012 4.23986 0.645899 4.14598C0.739786 4.05209 0.867123 3.99935 0.999899 3.99935C1.13267 3.99935 1.26001 4.05209 1.3539 4.14598L4.4999 7.29298L11.1459 0.645978C11.1923 0.599415 11.2475 0.562472 11.3083 0.537266C11.369 0.512059 11.4341 0.499084 11.4999 0.499084C11.5657 0.499084 11.6308 0.512059 11.6915 0.537266C11.7523 0.562472 11.8075 0.599415 11.8539 0.645978Z" fill="white"/>
</svg>
