<svg width="48" height="48" viewBox="0 0 48 48" fill="none" xmlns="http://www.w3.org/2000/svg">
<path fill-rule="evenodd" clip-rule="evenodd" d="M7 30.9999L13.8223 24.1776C15.7151 22.2848 16.6615 21.3384 17.7036 21.5391C18.7456 21.7397 19.2729 22.9699 20.3273 25.4303L22.8363 31.2847C23.3636 32.5149 23.6272 33.13 24.1482 33.2303C24.6692 33.3307 25.1424 32.8575 26.0888 31.9111L29.1716 28.8283C30.5049 27.495 31.1716 26.8283 32 26.8283C32.8284 26.8283 33.4951 27.495 34.8284 28.8283L37.8787 31.8786C38.8145 32.8145 39.2825 33.2824 39.8558 33.5715C40.033 33.6608 40.2165 33.7369 40.4049 33.7989C40.8377 33.9416 41.2968 33.983 42 33.995V33.9993C42 37.7706 42 39.6562 40.8284 40.8278C39.6569 41.9993 37.7712 41.9993 34 41.9993H14C10.2288 41.9993 8.34315 41.9993 7.17157 40.8278C6 39.6562 6 37.7706 6 33.9993V13.9993C6 10.422 6 8.54135 7 7.35742V30.9999Z" fill="#EB4628"/>
<path d="M24 6H14C10.2288 6 8.34315 6 7.17157 7.17157C6 8.34315 6 10.2288 6 14V34C6 37.7712 6 39.6569 7.17157 40.8284C8.34315 42 10.2288 42 14 42H34C37.7712 42 39.6569 42 40.8284 40.8284C42 39.6569 42 37.7712 42 34V24" stroke="#EB4628" stroke-width="2"/>
<path d="M42 6V5H43V6H42ZM32.6247 14.7809C32.1934 15.1259 31.5641 15.056 31.2191 14.6247C30.8741 14.1934 30.944 13.5641 31.3753 13.2191L32.6247 14.7809ZM41 16V6H43V16H41ZM42 7H32V5H42V7ZM42.6247 6.78087L32.6247 14.7809L31.3753 13.2191L41.3753 5.21913L42.6247 6.78087Z" fill="#EB4628"/>
</svg>
