<svg width="32" height="32" viewBox="0 0 32 32" fill="none" xmlns="http://www.w3.org/2000/svg">
<path d="M5.66035 8.30478L6.55136 8.75877H6.55136L5.66035 8.30478ZM6.10157 27.2319L5.39447 26.5248L5.39446 26.5248L6.10157 27.2319ZM25.0287 22.3398L25.4827 23.2308H25.4827L25.0287 22.3398ZM26.3397 21.0287L27.2307 21.4827V21.4827L26.3397 21.0287ZM26.3397 8.30478L27.2307 7.85079V7.85079L26.3397 8.30478ZM25.0287 6.99373L25.4827 6.10272V6.10272L25.0287 6.99373ZM6.9714 6.99373L6.51741 6.10272L6.51741 6.10272L6.9714 6.99373ZM10.3738 22.9596L9.66671 22.2525L10.3738 22.9596ZM6.33337 11.4667C6.33337 10.6102 6.33415 10.0279 6.37093 9.57779C6.40675 9.13937 6.47167 8.91517 6.55136 8.75877L4.76935 7.85079C4.52206 8.33612 4.42349 8.85282 4.37757 9.41492C4.3326 9.96535 4.33337 10.6432 4.33337 11.4667H6.33337ZM6.33337 16.0001V11.4667H4.33337V16.0001H6.33337ZM4.33337 16.0001V22.6667H6.33337V16.0001H4.33337ZM4.33337 22.6667V26.9137H6.33337V22.6667H4.33337ZM4.33337 26.9137C4.33337 28.2055 5.89524 28.8524 6.80868 27.939L5.39446 26.5248C5.74094 26.1783 6.33337 26.4237 6.33337 26.9137H4.33337ZM6.80868 27.939L11.0809 23.6667L9.66671 22.2525L5.39447 26.5248L6.80868 27.939ZM21.8667 21.6667H11.0809V23.6667H21.8667V21.6667ZM24.5747 21.4488C24.4183 21.5285 24.1941 21.5934 23.7557 21.6292C23.3056 21.666 22.7233 21.6667 21.8667 21.6667V23.6667C22.6903 23.6667 23.3681 23.6675 23.9185 23.6226C24.4806 23.5766 24.9973 23.4781 25.4827 23.2308L24.5747 21.4488ZM25.4487 20.5747C25.257 20.9511 24.951 21.257 24.5747 21.4488L25.4827 23.2308C26.2353 22.8473 26.8472 22.2354 27.2307 21.4827L25.4487 20.5747ZM25.6667 17.8667C25.6667 18.7233 25.6659 19.3056 25.6292 19.7557C25.5933 20.1941 25.5284 20.4183 25.4487 20.5747L27.2307 21.4827C27.478 20.9974 27.5766 20.4807 27.6225 19.9186C27.6675 19.3682 27.6667 18.6903 27.6667 17.8667H25.6667ZM25.6667 11.4667V17.8667H27.6667V11.4667H25.6667ZM25.4487 8.75877C25.5284 8.91517 25.5933 9.13937 25.6292 9.57779C25.6659 10.0279 25.6667 10.6102 25.6667 11.4667H27.6667C27.6667 10.6432 27.6675 9.96535 27.6225 9.41492C27.5766 8.85282 27.478 8.33612 27.2307 7.85079L25.4487 8.75877ZM24.5747 7.88473C24.951 8.07648 25.257 8.38244 25.4487 8.75877L27.2307 7.85079C26.8472 7.09814 26.2353 6.48622 25.4827 6.10272L24.5747 7.88473ZM21.8667 7.66675C22.7233 7.66675 23.3056 7.66753 23.7557 7.7043C24.1941 7.74012 24.4183 7.80505 24.5747 7.88473L25.4827 6.10272C24.9973 5.85543 24.4806 5.75687 23.9185 5.71094C23.3681 5.66597 22.6903 5.66675 21.8667 5.66675V7.66675ZM10.1334 7.66675H21.8667V5.66675H10.1334V7.66675ZM7.42539 7.88473C7.58179 7.80505 7.806 7.74012 8.24441 7.7043C8.6945 7.66753 9.27679 7.66675 10.1334 7.66675V5.66675C9.3098 5.66675 8.63197 5.66597 8.08155 5.71094C7.51945 5.75687 7.00275 5.85543 6.51741 6.10272L7.42539 7.88473ZM6.55136 8.75877C6.74311 8.38244 7.04907 8.07648 7.42539 7.88473L6.51741 6.10272C5.76476 6.48622 5.15284 7.09814 4.76935 7.85079L6.55136 8.75877ZM11.0809 23.6667H11.0809V21.6667C10.5505 21.6667 10.0418 21.8775 9.66671 22.2525L11.0809 23.6667Z" fill="#ED3824"/>
<path d="M10.6666 12L21.3333 12" stroke="#ED3824" stroke-width="2" stroke-linecap="round" stroke-linejoin="round"/>
<path d="M10.6666 17.3333H17.3333" stroke="#ED3824" stroke-width="2" stroke-linecap="round" stroke-linejoin="round"/>
</svg>
