<svg width="96" height="96" viewBox="0 0 96 96" fill="none" xmlns="http://www.w3.org/2000/svg">
<circle cx="48" cy="48" r="47.5" fill="white" stroke="black" stroke-dasharray="6 6"/>
<path d="M30 43.7082C30 41.6602 31.6602 40 33.7082 40V40C35.1128 40 36.3968 39.2064 37.0249 37.9502L38.8944 34.2111C39.4323 33.1353 39.7013 32.5974 40.1846 32.2987C40.6679 32 41.2693 32 42.4721 32H53.5279C54.7307 32 55.3321 32 55.8154 32.2987C56.2987 32.5974 56.5677 33.1353 57.1056 34.2111L58.9751 37.9502C59.6032 39.2064 60.8872 40 62.2918 40V40C64.3398 40 66 41.6602 66 43.7082V58C66 60.8284 66 62.2426 65.1213 63.1213C64.2426 64 62.8284 64 60 64H36C33.1716 64 31.7574 64 30.8787 63.1213C30 62.2426 30 60.8284 30 58V43.7082Z" stroke="#33363F" stroke-width="2"/>
<circle cx="48" cy="50" r="7" stroke="#33363F" stroke-width="2"/>
</svg>
