<svg width="291" height="226" viewBox="0 0 291 226" fill="none" xmlns="http://www.w3.org/2000/svg">
<g clip-path="url(#clip0_6_503)">
<path d="M184.099 225.425C184.099 225.425 179.639 214.443 193.02 206.207L184.099 225.425Z" fill="#E6E6E6"/>
<path d="M178.614 225.225C178.614 225.225 177.253 217.398 166.723 217.465L178.614 225.225Z" fill="#E6E6E6"/>
<path d="M279.215 225.425C279.215 225.425 273.322 210.916 291 200.035L279.215 225.425Z" fill="#E6E6E6"/>
<path d="M271.968 225.161C271.968 225.161 270.171 214.82 256.258 214.909L271.968 225.161Z" fill="#E6E6E6"/>
<path d="M169.003 62.8214L163.184 59.7294L163.619 59.4978L169.439 62.5901L169.003 62.8214Z" fill="#CBCBCB"/>
<path d="M163.927 62.8214L163.492 62.5901L169.311 59.4978L169.747 59.7294L163.927 62.8214Z" fill="#CBCBCB"/>
<path d="M120.614 38.8545L120.333 39.4027L121.977 40.2454L122.258 39.6972L120.614 38.8545Z" fill="#CBCBCB"/>
<path d="M154.698 57.0172L151.426 55.3401L151.707 54.7918L154.979 56.469L154.698 57.0172ZM148.154 53.6629L144.882 51.9855L145.163 51.4373L148.435 53.1146L148.154 53.6629ZM141.61 50.3084L138.338 48.6312L138.619 48.083L141.891 49.7601L141.61 50.3084ZM135.066 46.954L131.794 45.2769L132.075 44.7286L135.347 46.4058L135.066 46.954ZM128.522 43.5997L125.25 41.9225L125.53 41.3743L128.802 43.0515L128.522 43.5997Z" fill="#CBCBCB"/>
<path d="M158.251 58.1462L157.97 58.6944L159.614 59.537L159.895 58.9888L158.251 58.1462Z" fill="#CBCBCB"/>
<path d="M34.1253 80.0867C34.1253 80.2791 34.1191 80.4699 34.1066 80.659C34.0367 81.75 33.7612 82.818 33.2945 83.8066C33.2909 83.815 33.2866 83.8228 33.283 83.8307C33.2613 83.8765 33.239 83.9224 33.2161 83.9676C33.0773 84.2472 32.9233 84.519 32.7549 84.7818C31.9853 85.9881 30.9306 86.9863 29.6839 87.688C28.4372 88.3898 27.0368 88.7736 25.6066 88.8056L25.6928 93.7654L26.8173 93.1731L27.0181 93.5549L25.7013 94.2485L25.8623 103.46L25.8641 103.583L24.9947 103.777L24.9965 103.653L25.2702 88.8062C24.119 88.7896 22.9826 88.5445 21.9268 88.0851C20.8711 87.6256 19.9172 86.9609 19.1204 86.1297C19.0655 86.073 19.0113 86.0145 18.9582 85.9566L18.9522 85.9499C18.2883 85.2258 17.7514 84.3947 17.3641 83.4917C17.3725 83.5014 17.3816 83.5104 17.39 83.5201C16.5147 81.4726 16.4553 79.1678 17.2241 77.0779C17.9928 74.988 19.5315 73.2714 21.5248 72.2797C21.555 72.2646 21.5857 72.2502 21.6159 72.2351C23.5876 71.2851 25.8442 71.1108 27.9384 71.7467C30.0326 72.3826 31.8115 73.7823 32.9225 75.6685C32.9755 75.7577 33.0268 75.8488 33.0762 75.9405C33.7663 77.2133 34.127 78.6387 34.1253 80.0867Z" fill="#E5E5E5"/>
<path d="M32.9517 83.8355C39.263 83.8355 44.3794 78.7177 44.3794 72.4045C44.3794 66.0914 39.263 60.9736 32.9517 60.9736C26.6403 60.9736 21.5239 66.0914 21.5239 72.4045C21.5239 78.7177 26.6403 83.8355 32.9517 83.8355Z" fill="#E5E5E5"/>
<path opacity="0.2" d="M24.5138 64.7696C23.4478 67.2637 23.3032 70.0558 24.1058 72.6467C24.9084 75.2377 26.6059 77.4588 28.8949 78.9131C31.184 80.3674 33.9154 80.9602 36.6011 80.5855C39.2869 80.2108 41.7519 78.8931 43.5558 76.8677C42.9046 78.3916 41.93 79.7555 40.6996 80.8652C39.4691 81.9748 38.0121 82.8036 36.4296 83.2941C34.8471 83.7846 33.177 83.9251 31.5348 83.7059C29.8927 83.4866 28.3178 82.9129 26.9193 82.0244C25.5209 81.1359 24.3322 79.9539 23.4358 78.5602C22.5393 77.1666 21.9565 75.5947 21.7277 73.9534C21.4989 72.3121 21.6295 70.6407 22.1106 69.0549C22.5917 67.4691 23.4117 66.0069 24.5138 64.7696Z" fill="black"/>
<path d="M33.5698 104.249L32.4027 103.922L32.4052 103.796L32.7549 84.7818L32.7724 83.8338L32.7727 83.8061L32.8339 80.484L32.9224 75.6691V75.6684L32.9826 72.4047H33.0148L33.0763 75.9405L33.1564 80.5428L33.2138 83.8082V83.8324L33.2162 83.967V83.9677L33.3271 90.3332L33.3386 90.9657L33.5677 104.122L33.5698 104.249Z" fill="#3F3D56"/>
<path d="M34.8005 89.5571L32.9115 90.5519L33.1748 91.0521L35.0638 90.0573L34.8005 89.5571Z" fill="#3F3D56"/>
<path d="M181.089 35.4101C166.665 34.5571 152.198 34.7795 137.807 36.0755C130.871 36.7027 123.825 37.3801 117.017 38.8935C111.533 40.1125 105.169 42.1728 101.752 46.9715C101.037 47.9384 100.554 49.0578 100.343 50.2421C100.132 51.4264 100.198 52.6435 100.535 53.7983C101.35 56.5338 103.376 58.8109 105.534 60.5944C110.502 64.6992 116.665 67.0878 122.17 70.3489C132.222 76.3032 141.421 84.3287 147.326 94.5236C149.925 99.0098 152.396 104.975 149.503 109.918C146.669 114.761 140.341 116.429 135.181 117.216C128.713 118.202 122.051 117.935 115.556 117.383C108.436 116.718 101.355 115.681 94.3437 114.275C80.6074 111.636 66.9962 108.28 53.069 106.754C46.0858 105.933 39.0438 105.729 32.0248 106.145C25.6859 106.573 19.2926 107.576 13.3377 109.862C8.74885 111.624 3.85741 114.29 1.37871 118.735C-1.01064 123.02 -0.0787204 127.962 2.52299 131.916C5.65338 136.673 10.5348 139.932 15.6098 142.315C21.3882 145.028 27.5687 146.786 33.7572 148.282C36.8958 149.04 40.0514 149.726 43.2072 150.408C43.8656 150.55 44.1469 149.539 43.4862 149.396C37.1221 148.02 30.7396 146.64 24.5336 144.649C18.7906 142.806 12.9133 140.446 8.21032 136.576C4.40556 133.446 0.788027 128.874 1.0126 123.676C1.23899 118.435 5.63464 114.776 9.94299 112.524C15.3272 109.709 21.4444 108.338 27.4386 107.622C34.302 106.857 41.2237 106.763 48.1054 107.341C61.9997 108.398 75.5836 111.564 89.2065 114.326C102.441 117.008 116.088 119.492 129.651 118.804C135.027 118.532 140.787 117.761 145.533 115.047C147.706 113.804 149.666 112.052 150.77 109.771C151.765 107.601 152.08 105.181 151.673 102.828C150.903 97.6612 147.835 92.8699 144.774 88.7541C141.418 84.2901 137.525 80.2566 133.183 76.7446C128.418 72.9087 123.28 69.5608 117.847 66.7512C114.966 65.2337 112.043 63.7746 109.297 62.0171C106.665 60.3319 104.068 58.3043 102.46 55.5686C101.069 53.2025 100.814 50.502 102.263 48.1023C103.727 45.6751 106.251 43.9823 108.74 42.7453C114.737 39.7648 121.709 38.967 128.27 38.1495C142.358 36.4003 156.555 35.6922 170.747 36.031C174.197 36.1122 177.644 36.2551 181.089 36.4596C181.763 36.4993 181.761 35.4496 181.089 35.4101Z" fill="black"/>
<path d="M171.938 1.76746L174.117 0.0244111C172.425 -0.162378 171.729 0.760967 171.445 1.4918C170.122 0.942579 168.683 1.66236 168.683 1.66236L173.042 3.24536C172.822 2.6578 172.439 2.14513 171.938 1.76746Z" fill="#3F3D56"/>
<path d="M161.365 7.28565L163.544 5.5426C161.851 5.35581 161.156 6.27915 160.871 7.00998C159.549 6.46076 158.109 7.18055 158.109 7.18055L162.468 8.76354C162.249 8.17598 161.866 7.66332 161.365 7.28565Z" fill="#3F3D56"/>
<path d="M171.938 16.0228L174.117 14.2798C172.425 14.093 171.729 15.0163 171.445 15.7471C170.122 15.1979 168.683 15.9177 168.683 15.9177L173.042 17.5007C172.822 16.9131 172.439 16.4005 171.938 16.0228Z" fill="#3F3D56"/>
<path d="M139.276 18.6053C142.901 18.6053 145.84 15.6656 145.84 12.0392C145.84 8.4129 142.901 5.47318 139.276 5.47318C135.651 5.47318 132.712 8.4129 132.712 12.0392C132.712 15.6656 135.651 18.6053 139.276 18.6053Z" fill="#FF6583"/>
<path d="M159.86 32.2723H127.658C127.618 32.2728 127.577 32.2696 127.538 32.2628L142.768 5.87596C142.861 5.71159 142.996 5.57485 143.159 5.4797C143.322 5.38455 143.507 5.33441 143.696 5.33441C143.885 5.33441 144.07 5.38455 144.233 5.4797C144.396 5.57485 144.531 5.71159 144.624 5.87596L154.845 23.583L155.335 24.4301L159.86 32.2723Z" fill="#EB4628"/>
<path d="M177.789 32.2726H149.937L155.334 24.431L155.722 23.866L162.755 13.647C162.879 13.4907 163.035 13.3623 163.213 13.2701C163.39 13.178 163.584 13.1242 163.784 13.1123C163.983 13.1004 164.183 13.1306 164.37 13.201C164.557 13.2714 164.727 13.3803 164.869 13.5208C164.905 13.5607 164.939 13.6028 164.97 13.647L177.789 32.2726Z" fill="#EB4628"/>
<path d="M131.846 92.7911C134.898 94.3172 136.757 96.3326 136.757 98.5432C136.757 103.305 128.142 107.166 117.515 107.166C112.895 107.166 108.656 106.435 105.339 105.219C108.862 106.981 113.976 108.09 119.67 108.09C130.297 108.09 138.912 104.229 138.912 99.4671C138.912 96.7754 136.158 94.3724 131.846 92.7911Z" fill="#F1F1F1"/>
<path d="M138.635 96.0622C142.08 97.7841 144.177 100.058 144.177 102.553C144.177 107.926 134.456 112.282 122.465 112.282C117.252 112.282 112.469 111.458 108.726 110.086C112.701 112.073 118.472 113.325 124.897 113.325C136.888 113.325 146.608 108.969 146.608 103.595C146.608 100.558 143.501 97.8465 138.635 96.0622Z" fill="#F1F1F1"/>
<path d="M129.248 94.232C131.398 95.3071 132.707 96.727 132.707 98.2845C132.707 101.639 126.638 104.359 119.151 104.359C116.234 104.397 113.333 103.933 110.573 102.988C113.055 104.229 116.658 105.01 120.67 105.01C128.156 105.01 134.226 102.29 134.226 98.9353C134.226 97.039 132.286 95.346 129.248 94.232Z" fill="#F1F1F1"/>
<path d="M99.0328 93.6161C99.0328 93.6161 99.5054 100.525 113.051 100.525C126.597 100.525 130.641 93.6161 130.641 93.6161H99.0328Z" fill="#3F3D56"/>
<path d="M118.26 75.4887C116.304 74.0026 113.85 73.331 111.41 73.6145C113.59 74.1403 115.516 75.4172 116.848 77.2213C118.181 79.0254 118.836 81.2413 118.698 83.4801C118.56 85.719 117.638 87.8378 116.094 89.4646C114.55 91.0914 112.483 92.1223 110.255 92.3764C112.386 92.891 114.629 92.656 116.608 91.7108C118.586 90.7656 120.179 89.1679 121.118 87.1864C122.057 85.2048 122.286 82.9602 121.765 80.8299C121.245 78.6996 120.007 76.8135 118.26 75.4887Z" fill="#3F3D56"/>
<path d="M113.821 72.3677H112.897V94.3583H113.821V72.3677Z" fill="#3F3D56"/>
<path d="M174.518 56.0287L174.513 56.0202L174.501 55.483L177.394 51.2809L174.504 55.081L174.494 55.1945L174.395 50.8995L176.894 46.5428L174.388 50.1449L174.414 41.2467L174.414 41.217L174.413 41.2462L174.247 48.2592L171.97 45.4105L174.24 48.8634L174.19 52.7052L172.094 48.9557L174.183 53.27L174.155 55.4063L174.078 61.3247L174.073 61.7669C174.266 61.7684 174.457 61.7652 174.646 61.7573L174.515 56.0725L174.518 56.0287Z" fill="#CBCBCB"/>
<path d="M160.665 57.8763L160.66 57.8679L160.647 57.3307L163.541 53.1286L160.651 56.9286L160.64 57.0422L160.541 52.7471L163.04 48.3905L160.534 51.9926L160.56 43.0943L160.56 43.0647L160.56 43.0938L160.394 50.1069L158.116 47.2582L160.386 50.711L160.336 54.5529L158.24 50.8034L160.329 55.1177L160.301 57.2539L160.224 63.1724L160.219 63.6146C160.412 63.6161 160.603 63.6129 160.792 63.605L160.661 57.9202L160.665 57.8763Z" fill="#CBCBCB"/>
<path d="M167.438 52.0253L167.433 52.0169L167.42 51.4797L170.314 47.2776L167.424 51.0776L167.413 51.1912L167.314 46.8961L169.813 42.5395L167.307 46.1416L167.333 37.2433L167.333 37.2137L167.332 37.2428L167.167 44.2559L164.889 41.4072L167.159 44.86L167.109 48.7019L165.013 44.9524L167.102 49.2667L167.074 51.4029L166.997 57.3214L166.992 57.7636C167.185 57.7651 167.376 57.7619 167.565 57.754L167.434 52.0692L167.438 52.0253Z" fill="#CBCBCB"/>
<path d="M53.0182 154.282C55.0585 154.282 56.7125 152.627 56.7125 150.586C56.7125 148.545 55.0585 146.891 53.0182 146.891C50.9779 146.891 49.3239 148.545 49.3239 150.586C49.3239 152.627 50.9779 154.282 53.0182 154.282Z" fill="#EB4628"/>
<path d="M250.209 218.8L246.789 220.071L240.26 207.48L245.308 205.604L250.209 218.8Z" fill="#FFB7B7"/>
<path d="M252.313 221.792L241.285 225.89L241.233 225.751C240.81 224.612 240.857 223.352 241.363 222.247C241.869 221.143 242.792 220.285 243.931 219.862L250.666 217.358L252.313 221.792Z" fill="#2F2E41"/>
<path d="M216.55 222.353L212.902 222.352L211.166 208.275L216.551 208.275L216.55 222.353Z" fill="#FFB7B7"/>
<path d="M217.183 225.89L205.419 225.89V225.741C205.419 224.526 205.901 223.361 206.76 222.502C207.619 221.643 208.784 221.161 209.998 221.161L217.184 221.161L217.183 225.89Z" fill="#2F2E41"/>
<path d="M233.255 124.721L232.065 122.34L221.946 127.401L222.244 129.484L220.309 132.015C220.309 132.015 217.036 133.801 217.631 139.755L218.226 145.411L218.97 152.704L213.762 170.715L211.083 194.53L209.149 213.731L218.524 213.284L227.154 182.027L242.332 215.666L252.748 212.987L238.463 179.645L236.678 165.654C236.678 165.654 237.868 158.212 232.214 153.151L233.106 150.472V147.17L236.082 131.419L233.255 124.721Z" fill="#2F2E41"/>
<path opacity="0.2" d="M233.533 158.76L226.986 181.979L227.322 182.074L233.87 158.855L233.533 158.76Z" fill="black"/>
<path d="M232.958 152.704H218.375V154.193H232.958V152.704Z" fill="#3F3D56"/>
<path d="M218.375 155.086C218.703 155.086 218.97 154.419 218.97 153.597C218.97 152.775 218.703 152.109 218.375 152.109C218.046 152.109 217.78 152.775 217.78 153.597C217.78 154.419 218.046 155.086 218.375 155.086Z" fill="#3F3D56"/>
<path d="M228.756 120.871C232.6 118.769 234.013 113.948 231.912 110.103C229.81 106.257 224.99 104.844 221.146 106.946C217.302 109.048 215.889 113.869 217.99 117.715C220.092 121.56 224.912 122.973 228.756 120.871Z" fill="#FFB7B7"/>
<path d="M237.09 111.076C240.966 111.076 244.108 107.933 244.108 104.056C244.108 100.179 240.966 97.0362 237.09 97.0362C233.214 97.0362 230.072 100.179 230.072 104.056C230.072 107.933 233.214 111.076 237.09 111.076Z" fill="#2F2E41"/>
<path d="M245.996 103.304C246.273 104.234 246.354 105.212 246.234 106.175C246.114 107.138 245.796 108.065 245.299 108.899C244.803 109.733 244.139 110.455 243.35 111.019C242.56 111.583 241.663 111.978 240.713 112.177C239.764 112.377 238.783 112.378 237.834 112.179C236.884 111.98 235.986 111.587 235.196 111.024C234.406 110.461 233.741 109.74 233.244 108.906C232.746 108.073 232.427 107.146 232.306 106.183C232.809 107.872 233.928 109.31 235.442 110.211C236.955 111.113 238.752 111.412 240.476 111.049C242.2 110.687 243.725 109.689 244.747 108.254C245.77 106.82 246.216 105.053 245.996 103.304Z" fill="#2F2E41"/>
<path d="M218.271 111.706C218.065 113.52 218.463 115.352 219.404 116.917C220.344 118.483 221.774 119.694 223.473 120.364C225.171 121.033 227.043 121.124 228.799 120.621C230.554 120.119 232.094 119.051 233.182 117.584C234.269 116.117 234.842 114.332 234.812 112.506C234.782 110.68 234.151 108.915 233.017 107.484C231.882 106.054 230.307 105.037 228.537 104.592C226.766 104.147 224.898 104.299 223.222 105.024C221.836 103.906 220.118 104.252 218.721 105.432C217.142 106.766 216.673 107.683 215.448 109.877C216.652 110.046 217.066 111.536 218.271 111.706Z" fill="#2F2E41"/>
<path d="M247.431 135.569C247.342 137.921 247.166 142.549 247.166 142.786C247.166 143.035 243.658 150.3 242.142 153.427V153.429C242.034 153.649 241.938 153.849 241.852 154.025C241.735 154.268 241.551 154.472 241.321 154.613C241.092 154.754 240.826 154.826 240.557 154.821L233.934 154.702C233.57 154.696 233.222 154.549 232.964 154.293C232.705 154.037 232.556 153.69 232.547 153.326L231.808 124.179C231.805 124.083 231.822 123.987 231.857 123.897C231.892 123.808 231.945 123.726 232.012 123.657C232.079 123.589 232.159 123.534 232.248 123.496C232.336 123.459 232.431 123.44 232.528 123.44H241.069C241.43 123.44 241.783 123.542 242.089 123.734C242.395 123.925 242.64 124.199 242.797 124.524L246.897 133.008C247.281 133.805 247.464 134.685 247.431 135.569Z" fill="#EB4628"/>
<path d="M232.431 151.326C230.732 150.296 229.205 149.005 227.906 147.5C224.888 144.105 223.052 139.822 222.675 135.295C222.338 131.421 223.107 128.542 224.959 126.736C227.313 124.442 230.518 124.775 230.653 124.791L230.797 124.807L232.968 126.645L232.354 127.371L230.411 125.727C229.816 125.697 227.389 125.69 225.615 127.425C223.983 129.023 223.312 131.642 223.623 135.212C223.982 139.523 225.725 143.602 228.592 146.84C229.829 148.271 231.279 149.503 232.89 150.493L232.431 151.326Z" fill="#EB4628"/>
<path d="M244.756 140.252L233.184 142.63L233.247 142.94L244.82 140.563L244.756 140.252Z" fill="#3F3D56"/>
<path d="M237.129 123.433L236.812 123.446L237.564 141.866L237.88 141.853L237.129 123.433Z" fill="#3F3D56"/>
<path d="M247.431 135.569C247.342 137.921 247.166 142.549 247.166 142.786C247.166 143.035 243.658 150.3 242.142 153.427L244.967 137.02C245.077 136.389 245.352 135.798 245.764 135.308C246.177 134.818 246.712 134.446 247.315 134.231C247.41 134.67 247.449 135.12 247.431 135.569Z" fill="#3F3D56"/>
<path d="M230.074 169.955C230.324 169.632 230.501 169.259 230.591 168.861C230.681 168.463 230.683 168.05 230.597 167.651C230.51 167.252 230.337 166.877 230.09 166.553C229.843 166.228 229.528 165.961 229.167 165.772L229.741 159.419L225.966 158.128L225.281 167.111C225.003 167.739 224.965 168.448 225.174 169.102C225.383 169.757 225.824 170.312 226.415 170.662C227.006 171.013 227.705 171.134 228.379 171.004C229.054 170.874 229.657 170.5 230.074 169.955Z" fill="#FFB7B7"/>
<path d="M230.568 163.807L223.879 163.565L224.162 131.301C224.157 130.388 224.44 129.497 224.969 128.753C225.498 128.009 226.248 127.45 227.112 127.156C227.919 126.888 228.792 126.887 229.599 127.154C230.516 127.464 231.302 128.071 231.836 128.878C232.369 129.685 232.619 130.647 232.545 131.612L230.568 163.807Z" fill="#CBCBCB"/>
<path d="M289.242 226H155.988C155.895 226 155.806 225.963 155.74 225.898C155.675 225.832 155.638 225.743 155.638 225.65C155.638 225.557 155.675 225.468 155.74 225.403C155.806 225.337 155.895 225.3 155.988 225.3H289.242C289.334 225.3 289.423 225.337 289.489 225.403C289.554 225.468 289.591 225.557 289.591 225.65C289.591 225.743 289.554 225.832 289.489 225.898C289.423 225.963 289.334 226 289.242 226Z" fill="#CBCBCB"/>
</g>
<defs>
<clipPath id="clip0_6_503">
<rect width="291" height="226" fill="white"/>
</clipPath>
</defs>
</svg>
