<svg width="375" height="336" viewBox="0 0 375 336" fill="none" xmlns="http://www.w3.org/2000/svg">
<g clip-path="url(#clip0_1_3493)">
<path d="M61.4754 221.009C41.9892 201.793 33.7591 181.747 38.3006 164.563C44.1288 142.51 70.0207 127.263 109.337 122.73L109.483 123.995C70.7133 128.464 45.2164 143.369 39.5293 164.888C35.1094 181.612 43.2201 201.221 62.3672 220.102L61.4754 221.009Z" fill="#F0F0F0"/>
<path d="M249.485 289.218C225.165 289.218 198.737 285.598 172.486 278.636C140.024 270.028 110.259 257.034 86.4107 241.059L87.1169 240.001C110.851 255.899 140.483 268.833 172.811 277.406C202.026 285.153 231.459 288.743 257.919 287.796L257.965 289.068C255.17 289.168 252.344 289.218 249.485 289.218Z" fill="#F0F0F0"/>
<path d="M305.278 281.212L304.871 280.006C326.622 272.64 340.226 260.773 344.213 245.688C349.281 226.511 338.271 204.257 313.21 183.026C288.021 161.687 251.698 143.981 210.931 133.171L211.256 131.94C252.202 142.798 288.701 160.596 314.03 182.054C339.487 203.62 350.643 226.335 345.442 246.013C341.341 261.531 327.452 273.703 305.278 281.212Z" fill="#F0F0F0"/>
<path d="M105.553 289.75C57.7661 268.52 20.9422 240.976 1.86591 212.192L2.92457 211.488C21.869 240.072 58.4995 267.453 106.069 288.586L105.553 289.75Z" fill="#F0F0F0"/>
<path d="M273.57 326.53C268.641 326.53 263.628 326.42 258.531 326.199L258.585 324.928C296.626 326.577 330.189 322.017 355.654 311.738L356.13 312.919C333.916 321.885 305.602 326.53 273.57 326.53Z" fill="#F0F0F0"/>
<path d="M245.843 123.871C237.945 121.295 229.821 118.897 221.696 116.743C174.944 104.345 128.987 99.9426 88.7899 104.015L88.6621 102.748C129.009 98.6624 175.124 103.075 222.022 115.512C230.169 117.672 238.316 120.078 246.237 122.661L245.843 123.871Z" fill="#F0F0F0"/>
<path d="M31.6095 222.918C12.1233 203.703 3.8932 183.656 8.4347 166.472C14.2629 144.42 40.1548 129.172 79.4714 124.639L79.6166 125.904C40.8474 130.374 15.3504 145.279 9.6634 166.798C5.24352 183.522 13.3541 203.13 32.5012 222.012L31.6095 222.918Z" fill="#F0F0F0"/>
<path d="M219.619 291.128C195.299 291.128 168.871 287.507 142.62 280.546C110.158 271.937 80.3936 258.943 56.5449 242.969L57.251 241.911C80.985 257.808 110.618 270.743 142.945 279.315C172.16 287.063 201.593 290.653 228.053 289.705L228.099 290.977C225.304 291.078 222.478 291.128 219.619 291.128Z" fill="#F0F0F0"/>
<path d="M275.412 283.122L275.005 281.916C296.756 274.549 310.36 262.682 314.347 247.597C319.415 228.42 308.405 206.167 283.344 184.936C258.155 163.597 221.832 145.891 181.065 135.08L181.39 133.849C222.336 144.708 258.835 162.505 284.164 183.964C309.621 205.53 320.777 228.244 315.576 247.923C311.475 263.441 297.586 275.612 275.412 283.122Z" fill="#F0F0F0"/>
<path d="M75.6876 291.66C27.9002 270.429 -8.92366 242.885 -28 214.102L-26.9413 213.397C-7.99683 241.982 28.6337 269.363 76.2027 290.496L75.6876 291.66Z" fill="#F0F0F0"/>
<path d="M243.704 328.44C238.775 328.44 233.762 328.329 228.665 328.109L228.719 326.837C266.76 328.487 300.323 323.927 325.788 313.647L326.264 314.828C304.05 323.794 275.737 328.44 243.704 328.44Z" fill="#F0F0F0"/>
<path d="M215.977 125.781C208.079 123.205 199.955 120.807 191.831 118.652C145.079 106.254 99.1208 101.852 58.924 105.925L58.7962 104.658C99.1429 100.572 145.258 104.984 192.156 117.421C200.303 119.582 208.45 121.987 216.371 124.571L215.977 125.781Z" fill="#F0F0F0"/>
<path d="M-6.33838 188.821C2.7944 178.563 17.3627 172.312 30.5649 176.054C18.3854 184.688 9.64706 197.359 5.89612 211.825C4.46972 217.41 3.4637 223.77 -1.17259 227.184C-4.05736 229.308 -7.87978 229.816 -11.4275 229.332C-14.9753 228.848 -18.3299 227.466 -21.6392 226.097L-22.5297 226.174C-19.9695 212.671 -15.4712 199.078 -6.33838 188.821Z" fill="#F2F2F2"/>
<path d="M30.5246 176.34C19.4867 179.017 9.57148 185.11 2.18729 193.753C0.564667 195.586 -0.75947 197.663 -1.73636 199.908C-2.61742 202.126 -2.88943 204.54 -2.52411 206.899C-2.22761 209.106 -1.66923 211.328 -1.91334 213.569C-2.05528 214.714 -2.43723 215.816 -3.03413 216.802C-3.63102 217.789 -4.42938 218.638 -5.37685 219.294C-7.69521 220.99 -10.4836 221.75 -13.2362 222.398C-16.2925 223.118 -19.4783 223.818 -21.9697 225.852C-22.2715 226.099 -22.6357 225.615 -22.3343 225.369C-17.9998 221.829 -11.9759 222.284 -7.18017 219.713C-4.94241 218.513 -3.05202 216.63 -2.59241 214.047C-2.1905 211.788 -2.76435 209.496 -3.08384 207.264C-3.47389 204.968 -3.29674 202.611 -2.56786 200.4C-1.70825 198.112 -0.466198 195.987 1.10508 194.116C4.5755 189.848 8.69423 186.154 13.3104 183.167C18.56 179.73 24.3578 177.217 30.4532 175.738C30.8305 175.647 30.8995 176.249 30.5246 176.34Z" fill="white"/>
<path d="M4.40137 190.83C3.12188 189.392 2.3943 187.545 2.34855 185.62C2.3028 183.694 2.94186 181.815 4.15162 180.318C4.39744 180.015 4.87765 180.384 4.6315 180.686C3.5024 182.079 2.90727 183.829 2.95353 185.622C2.99979 187.415 3.68439 189.133 4.88377 190.464C5.14407 190.754 4.66018 191.118 4.40137 190.83Z" fill="white"/>
<path d="M-2.82157 205.801C1.1006 206.061 4.97685 204.832 8.03427 202.357C8.33699 202.112 8.7013 202.595 8.39894 202.841C5.21252 205.41 1.17607 206.681 -2.90483 206.401C-3.29378 206.374 -3.20841 205.774 -2.82157 205.801Z" fill="white"/>
<path d="M18.6959 180.521C19.0752 181.181 19.6122 181.736 20.2586 182.137C20.9049 182.537 21.6405 182.77 22.3991 182.816C22.7882 182.838 22.7024 183.438 22.3159 183.416C21.4779 183.362 20.6659 183.103 19.9508 182.662C19.2357 182.221 18.6392 181.612 18.2135 180.887C18.1677 180.822 18.1482 180.742 18.1592 180.663C18.1701 180.584 18.2106 180.512 18.2724 180.462C18.3365 180.414 18.4169 180.394 18.4962 180.405C18.5755 180.416 18.6473 180.458 18.6959 180.521Z" fill="white"/>
<path d="M49.3056 218.634C49.0623 218.628 48.8189 218.621 48.5725 218.618C45.3003 218.543 42.0275 218.734 38.7862 219.19C38.5351 219.221 38.281 219.257 38.0313 219.295C30.2341 220.477 22.7236 223.098 15.8817 227.026C13.1606 228.591 10.5623 230.362 8.10934 232.322C4.72191 235.03 1.26407 238.236 -2.70175 239.623C-3.11388 239.773 -3.53484 239.896 -3.96224 239.994L-22.3665 227.256C-22.3939 227.206 -22.4243 227.16 -22.4518 227.11L-23.2098 226.635C-23.0904 226.525 -22.9641 226.414 -22.8447 226.304C-22.7756 226.24 -22.7025 226.179 -22.6335 226.115C-22.5862 226.073 -22.5386 226.031 -22.4983 225.991C-22.4826 225.977 -22.4667 225.963 -22.4539 225.953C-22.4136 225.913 -22.3718 225.879 -22.3344 225.843C-21.6304 225.218 -20.9208 224.597 -20.2055 223.98C-20.2026 223.975 -20.2026 223.975 -20.1956 223.974C-14.7338 219.284 -8.83312 215.01 -2.47242 211.769C-2.28102 211.672 -2.08692 211.57 -1.8871 211.478C0.988091 210.033 3.97637 208.826 7.0479 207.869C8.73146 207.35 10.4402 206.917 12.1674 206.571C16.6321 205.687 21.208 205.511 25.7272 206.051C34.7361 207.128 43.3007 211.079 48.8843 218.094C49.027 218.274 49.1658 218.451 49.3056 218.634Z" fill="#F2F2F2"/>
<path d="M49.1029 218.84C38.6807 214.32 27.1018 213.205 16.011 215.653C13.614 216.138 11.3083 216.998 9.17868 218.201C7.14199 219.441 5.47386 221.204 4.34763 223.308C3.25818 225.249 2.36814 227.36 0.82675 229.002C0.0252914 229.83 -0.941954 230.48 -2.01155 230.908C-3.08116 231.335 -4.22895 231.532 -5.37968 231.484C-8.25002 231.44 -10.9333 230.365 -13.5209 229.223C-16.3939 227.955 -19.358 226.592 -22.5701 226.714C-22.9593 226.728 -22.9594 226.123 -22.5708 226.108C-16.9824 225.896 -12.4458 229.892 -7.07131 230.731C-4.56349 231.123 -1.92265 230.76 -0.0030632 228.974C1.67552 227.413 2.59521 225.237 3.68135 223.262C4.74998 221.194 6.30801 219.419 8.21934 218.092C10.2809 216.784 12.5497 215.836 14.9286 215.29C20.2647 213.976 25.774 213.51 31.2547 213.909C37.5122 214.331 43.6517 215.821 49.4075 218.316C49.7637 218.471 49.4567 218.993 49.1029 218.84Z" fill="white"/>
<path d="M19.5359 214.654C19.3785 212.735 19.9075 210.821 21.0284 209.256C22.1492 207.691 23.789 206.576 25.6548 206.11C26.0327 206.017 26.1946 206.601 25.8163 206.694C24.078 207.125 22.5507 208.164 21.5099 209.623C20.4691 211.083 19.9835 212.867 20.1406 214.654C20.1743 215.042 19.5694 215.041 19.5359 214.654Z" fill="white"/>
<path d="M4.77065 222.252C7.74544 224.825 11.5794 226.181 15.508 226.049C15.8972 226.036 15.8975 226.642 15.5087 226.655C11.4203 226.785 7.43331 225.366 4.34356 222.68C4.04923 222.424 4.47793 221.997 4.77065 222.252Z" fill="white"/>
<path d="M37.145 215.045C37.0514 215.8 37.1465 216.567 37.422 217.277C37.6974 217.986 38.1444 218.616 38.7229 219.11C39.0203 219.362 38.5913 219.789 38.2958 219.539C37.6592 218.99 37.1663 218.294 36.8603 217.511C36.5543 216.727 36.4444 215.881 36.5403 215.045C36.5427 214.966 36.5753 214.89 36.6314 214.834C36.6875 214.778 36.7629 214.745 36.8423 214.742C36.9223 214.743 36.999 214.774 37.0557 214.831C37.1124 214.888 37.1445 214.965 37.145 215.045Z" fill="white"/>
<path d="M351.516 272.903C346.357 260.168 334.733 249.376 321.043 248.455C329.618 260.687 333.596 275.563 332.275 290.451C331.745 296.191 330.558 302.519 333.779 307.296C335.783 310.268 339.213 312.033 342.717 312.772C346.221 313.51 349.844 313.338 353.42 313.162L354.233 313.535C356.352 299.956 356.676 285.638 351.516 272.903Z" fill="#F2F2F2"/>
<path d="M320.986 248.738C330.483 254.975 337.777 264.052 341.832 274.679C342.745 276.951 343.295 279.353 343.462 281.796C343.548 284.182 342.994 286.547 341.858 288.646C340.839 290.625 339.567 292.53 339.045 294.722C338.795 295.848 338.785 297.014 339.016 298.145C339.247 299.275 339.714 300.343 340.386 301.28C342.001 303.658 344.372 305.312 346.747 306.85C349.384 308.557 352.15 310.288 353.813 313.043C354.015 313.377 354.52 313.044 354.319 312.711C351.424 307.918 345.598 306.318 341.944 302.282C340.239 300.398 339.09 297.989 339.524 295.401C339.904 293.139 341.213 291.173 342.263 289.178C343.401 287.147 344.025 284.868 344.08 282.539C344.038 280.095 343.581 277.676 342.729 275.385C340.893 270.197 338.253 265.33 334.908 260.964C331.117 255.959 326.499 251.64 321.255 248.195C320.93 247.982 320.663 248.526 320.986 248.738Z" fill="white"/>
<path d="M340.727 271.18C342.415 270.256 343.72 268.762 344.409 266.964C345.098 265.166 345.127 263.181 344.49 261.363C344.36 260.996 343.784 261.181 343.914 261.549C344.51 263.24 344.483 265.089 343.838 266.763C343.193 268.436 341.972 269.823 340.396 270.673C340.053 270.859 340.387 271.364 340.727 271.18Z" fill="white"/>
<path d="M342.507 287.711C338.725 286.637 335.487 284.174 333.438 280.814C333.235 280.481 332.73 280.813 332.932 281.146C335.071 284.639 338.446 287.195 342.384 288.305C342.759 288.41 342.88 287.816 342.507 287.711Z" fill="white"/>
<path d="M330.723 256.659C330.145 257.152 329.453 257.494 328.71 257.654C327.966 257.813 327.195 257.785 326.466 257.573C326.092 257.462 325.971 258.056 326.343 258.166C327.15 258.397 328.002 258.427 328.823 258.252C329.644 258.078 330.411 257.705 331.055 257.165C331.12 257.119 331.165 257.05 331.181 256.973C331.197 256.895 331.183 256.814 331.142 256.746C331.098 256.679 331.029 256.632 330.95 256.616C330.872 256.6 330.79 256.615 330.723 256.659Z" fill="white"/>
<path d="M289.106 282.249C289.338 282.324 289.569 282.4 289.802 282.48C292.909 283.511 295.927 284.793 298.827 286.314C299.053 286.428 299.281 286.547 299.503 286.667C306.45 290.405 312.644 295.402 317.77 301.405C319.808 303.796 321.661 306.338 323.313 309.01C325.595 312.701 327.776 316.884 331.046 319.526C331.384 319.806 331.739 320.064 332.109 320.299L353.716 314.499C353.758 314.461 353.803 314.428 353.845 314.39L354.719 314.198C354.643 314.055 354.561 313.907 354.486 313.763C354.442 313.68 354.394 313.597 354.35 313.514C354.32 313.459 354.289 313.403 354.265 313.352C354.255 313.333 354.244 313.315 354.236 313.301C354.211 313.25 354.183 313.204 354.16 313.157C353.707 312.332 353.247 311.508 352.78 310.686C352.779 310.681 352.779 310.681 352.773 310.677C349.202 304.421 345.079 298.409 340.176 293.215C340.028 293.059 339.879 292.898 339.722 292.744C337.499 290.415 335.089 288.272 332.518 286.337C331.106 285.281 329.642 284.298 328.131 283.391C324.223 281.055 319.973 279.349 315.535 278.336C306.689 276.317 297.297 277.155 289.684 281.882C289.49 282.003 289.299 282.123 289.106 282.249Z" fill="#F2F2F2"/>
<path d="M289.228 282.511C300.56 281.763 311.84 284.611 321.464 290.651C323.559 291.914 325.442 293.5 327.044 295.351C328.546 297.204 329.526 299.426 329.88 301.787C330.255 303.982 330.385 306.27 331.286 308.335C331.763 309.385 332.456 310.322 333.32 311.085C334.184 311.848 335.199 312.42 336.299 312.762C339.017 313.687 341.905 313.578 344.725 313.373C347.857 313.146 351.105 312.86 354.09 314.057C354.451 314.202 354.655 313.631 354.294 313.487C349.102 311.405 343.488 313.641 338.145 312.622C335.651 312.147 333.286 310.916 332.077 308.588C331.02 306.553 330.884 304.193 330.523 301.968C330.211 299.66 329.339 297.464 327.984 295.571C326.482 293.645 324.663 291.988 322.605 290.673C318.021 287.639 312.988 285.345 307.692 283.876C301.657 282.166 295.375 281.503 289.117 281.915C288.73 281.941 288.843 282.536 289.228 282.511Z" fill="white"/>
<path d="M318.479 288.523C319.272 286.768 319.416 284.788 318.885 282.937C318.354 281.085 317.184 279.483 315.583 278.416C315.259 278.201 314.91 278.697 315.235 278.912C316.728 279.902 317.818 281.395 318.308 283.12C318.799 284.845 318.658 286.689 317.91 288.319C317.748 288.673 318.318 288.875 318.479 288.523Z" fill="white"/>
<path d="M329.837 300.649C326.171 302.072 322.105 302.058 318.45 300.611C318.088 300.468 317.884 301.038 318.246 301.182C322.053 302.68 326.284 302.686 330.095 301.197C330.458 301.055 330.198 300.508 329.837 300.649Z" fill="white"/>
<path d="M301.764 282.962C301.598 283.705 301.251 284.396 300.754 284.971C300.257 285.547 299.624 285.989 298.914 286.26C298.549 286.397 298.81 286.944 299.172 286.807C299.956 286.505 300.653 286.015 301.204 285.381C301.755 284.746 302.143 283.986 302.333 283.166C302.357 283.091 302.352 283.009 302.318 282.937C302.284 282.865 302.224 282.808 302.15 282.779C302.075 282.753 301.992 282.757 301.919 282.791C301.847 282.825 301.791 282.887 301.764 282.962Z" fill="white"/>
<path d="M251.41 316.268C254.218 316.268 256.493 313.988 256.493 311.176C256.493 308.364 254.218 306.084 251.41 306.084C248.602 306.084 246.326 308.364 246.326 311.176C246.326 313.988 248.602 316.268 251.41 316.268Z" fill="#FD6584"/>
<path d="M269.417 229.536C272.224 229.536 274.5 227.257 274.5 224.444C274.5 221.632 272.224 219.352 269.417 219.352C266.609 219.352 264.333 221.632 264.333 224.444C264.333 227.257 266.609 229.536 269.417 229.536Z" fill="#E6E6E6"/>
<path d="M174.824 88.2882C177.631 88.2882 179.907 86.0083 179.907 83.196C179.907 80.3836 177.631 78.1038 174.824 78.1038C172.016 78.1038 169.74 80.3836 169.74 83.196C169.74 86.0083 172.016 88.2882 174.824 88.2882Z" fill="#E6E6E6"/>
<path d="M68.2953 278.533C68.2953 279.829 68.3379 281.125 68.4284 282.411C68.5243 283.947 68.6894 285.473 68.913 286.988C69.6647 292.089 71.1013 297.065 73.1839 301.78C73.2904 302.015 73.3969 302.249 73.5034 302.484L73.6632 302.836C73.7164 302.954 73.775 303.071 73.8283 303.183C73.9028 303.338 73.9721 303.487 74.0466 303.636C74.1371 303.823 74.2277 304.01 74.3235 304.196C74.3342 304.218 74.3448 304.244 74.3608 304.271C74.4407 304.431 74.5152 304.586 74.6005 304.746C74.6161 304.781 74.6339 304.815 74.6537 304.847C74.7442 305.029 74.8401 305.215 74.936 305.397C75.0425 305.589 75.1436 305.786 75.2501 305.978C75.5058 306.453 75.772 306.922 76.0436 307.392C76.1235 307.53 76.2034 307.669 76.2886 307.808C76.3631 307.936 76.4377 308.064 76.5176 308.192C76.5708 308.277 76.6241 308.368 76.6773 308.453C76.7625 308.597 76.8477 308.736 76.9383 308.88C77.1353 309.195 77.3377 309.509 77.5347 309.824H77.54C77.6306 309.968 77.7264 310.112 77.8223 310.251V310.256C78.1045 310.683 78.3974 311.11 78.6903 311.531L78.6923 311.532L78.6941 311.533L78.6952 311.534L78.6956 311.537C78.9299 311.878 79.1749 312.209 79.4145 312.539V312.545C79.5743 312.753 79.7287 312.966 79.8885 313.174C80.0163 313.345 80.1494 313.521 80.2826 313.692C80.3092 313.729 80.3411 313.761 80.3678 313.798V313.804C80.405 313.852 80.4423 313.894 80.4796 313.942C81.0441 314.668 81.6263 315.377 82.2263 316.071L82.3222 316.183C82.3541 316.22 82.3914 316.257 82.4233 316.3C82.4766 316.359 82.5245 316.417 82.5778 316.476C82.6257 316.535 82.6789 316.594 82.7322 316.652C85.8598 320.181 89.4061 323.314 93.2923 325.982C93.8089 326.339 94.3361 326.686 94.8633 327.022C94.9964 327.108 95.1295 327.193 95.2627 327.273C95.2999 327.3 95.3425 327.326 95.3798 327.353C95.4544 327.396 95.5236 327.438 95.5982 327.486C95.6674 327.529 95.7366 327.572 95.8112 327.614C96.0934 327.79 96.381 327.961 96.6686 328.132C96.7378 328.174 96.8123 328.217 96.8869 328.26C96.9561 328.297 97.0307 328.34 97.1052 328.383C97.1052 328.388 97.1052 328.388 97.1106 328.388H97.1159V328.393H97.1212C97.478 328.601 97.8401 328.804 98.2076 329.001C98.4046 329.108 98.607 329.22 98.8093 329.321C99.2673 329.572 99.7306 329.812 100.194 330.041C100.359 330.122 100.529 330.202 100.694 330.287C100.833 330.351 100.971 330.42 101.11 330.484C101.152 330.506 101.19 330.522 101.227 330.543C101.344 330.596 101.456 330.65 101.573 330.703C101.701 330.762 101.829 330.82 101.951 330.879C102.095 330.943 102.234 331.007 102.377 331.066C102.91 331.306 103.448 331.535 103.986 331.754C105.913 332.545 107.883 333.229 109.886 333.802C109.977 333.829 110.072 333.856 110.168 333.882C111.026 334.122 111.888 334.341 112.756 334.538C114.274 334.89 115.806 335.179 117.352 335.403H117.363C117.549 335.429 117.73 335.456 117.917 335.483C117.933 335.483 117.949 335.488 117.97 335.488C117.97 335.493 117.97 335.493 117.975 335.488C118.178 335.515 118.385 335.541 118.588 335.568C118.601 335.572 118.616 335.574 118.63 335.573C118.822 335.6 119.019 335.621 119.211 335.643C119.418 335.664 119.626 335.685 119.834 335.707C119.993 335.723 120.153 335.739 120.313 335.755C120.327 335.759 120.341 335.761 120.356 335.76C120.499 335.771 120.643 335.787 120.787 335.797H120.808C120.931 335.808 121.059 335.819 121.181 335.829C122.667 335.947 124.158 336 125.67 336C127.305 336 128.929 335.936 130.532 335.797H130.548C130.894 335.765 131.235 335.733 131.576 335.701C131.667 335.691 131.752 335.685 131.842 335.675C131.858 335.675 131.88 335.669 131.896 335.669C131.922 335.664 131.949 335.664 131.981 335.659C131.995 335.659 132.01 335.657 132.023 335.653C132.141 335.643 132.258 335.627 132.38 335.616L132.78 335.568C132.913 335.552 133.046 335.531 133.179 335.515C133.211 335.509 133.238 335.509 133.269 335.504C133.365 335.493 133.461 335.477 133.557 335.461C133.605 335.456 133.653 335.451 133.695 335.445C133.791 335.429 133.882 335.419 133.978 335.403H133.983C136.905 334.981 139.79 334.33 142.61 333.456C142.759 333.408 142.908 333.365 143.057 333.317C143.063 333.317 143.068 333.312 143.073 333.312C143.116 333.296 143.164 333.285 143.206 333.269C143.606 333.141 144 333.007 144.394 332.869C144.937 332.687 145.475 332.49 146.013 332.287C146.157 332.229 146.301 332.175 146.444 332.117C146.737 332.005 147.025 331.887 147.312 331.77C147.802 331.572 148.292 331.364 148.777 331.151C149.229 330.948 149.677 330.746 150.124 330.532C150.135 330.527 150.151 330.527 150.161 330.516C150.263 330.468 150.364 330.42 150.46 330.372H150.465C152.917 329.193 155.282 327.84 157.542 326.323C158.267 325.838 158.98 325.337 159.683 324.819C160.247 324.398 160.801 323.971 161.355 323.534C164.087 321.357 166.617 318.935 168.912 316.3V316.295C169.077 316.113 169.231 315.927 169.391 315.74C169.418 315.713 169.439 315.687 169.46 315.665C169.561 315.543 169.657 315.425 169.759 315.308V315.303C169.892 315.148 170.025 314.988 170.153 314.828C170.185 314.791 170.211 314.759 170.238 314.726V314.721C170.344 314.593 170.445 314.465 170.552 314.332C170.605 314.268 170.653 314.204 170.706 314.14V314.134C171.021 313.74 171.324 313.345 171.628 312.939C171.708 312.833 171.787 312.721 171.873 312.609C172.256 312.091 172.629 311.563 172.991 311.035V311.03C173.129 310.832 173.263 310.63 173.401 310.432C173.534 310.23 173.667 310.027 173.8 309.824C173.934 309.611 174.072 309.403 174.205 309.189L174.221 309.157C174.354 308.955 174.487 308.741 174.615 308.533C174.716 308.363 174.818 308.197 174.919 308.032C174.983 307.92 175.052 307.808 175.116 307.69C175.141 307.654 175.164 307.617 175.185 307.578C175.334 307.317 175.483 307.056 175.632 306.794C175.808 306.49 175.979 306.181 176.149 305.871C176.213 305.743 176.282 305.615 176.351 305.487C176.378 305.445 176.399 305.402 176.42 305.359C176.5 305.21 176.58 305.055 176.655 304.901C176.735 304.751 176.815 304.597 176.894 304.442C176.969 304.293 177.049 304.138 177.123 303.983C177.182 303.866 177.235 303.748 177.294 303.631C177.298 303.621 177.303 303.613 177.31 303.604C177.336 303.546 177.363 303.492 177.384 303.439C177.391 303.431 177.396 303.422 177.4 303.412C177.459 303.295 177.512 303.172 177.571 303.055C177.645 302.9 177.715 302.74 177.789 302.585C177.837 302.479 177.89 302.367 177.938 302.255C178.007 302.1 178.082 301.945 178.146 301.785C178.22 301.625 178.29 301.465 178.359 301.3C178.379 301.26 178.397 301.219 178.412 301.177C178.449 301.103 178.476 301.028 178.508 300.953C178.593 300.756 178.678 300.553 178.758 300.356C178.854 300.132 178.945 299.902 179.03 299.678C179.115 299.47 179.195 299.257 179.275 299.043L179.307 298.969C180.548 295.695 181.489 292.315 182.119 288.871V288.865C182.474 286.899 182.728 284.916 182.88 282.923C182.885 282.811 182.896 282.704 182.901 282.598C182.997 281.248 183.04 279.893 183.04 278.533C183.04 277.93 183.029 277.333 183.013 276.735C182.641 264.24 178.193 252.211 170.35 242.488C170.179 242.275 170.009 242.062 169.833 241.848C169.657 241.635 169.476 241.427 169.301 241.219C163.463 234.371 156.1 228.992 147.807 225.517C139.513 222.042 130.52 220.568 121.554 221.213C112.587 221.858 103.897 224.605 96.1841 229.232C88.4715 233.858 81.952 240.236 77.1513 247.849C76.8904 248.265 76.6294 248.687 76.3791 249.108C76.1235 249.535 75.8785 249.962 75.6336 250.394C70.8092 258.984 68.2815 268.677 68.2953 278.533Z" fill="#F2F2F2"/>
<path d="M123.39 240.943C132.824 243.368 142.492 244.766 152.225 245.112C153.697 245.192 155.173 245.182 156.643 245.082C159.875 244.81 162.644 243.792 165.727 243.236C167.209 242.97 168.86 242.775 170.352 242.487C170.008 242.058 169.657 241.635 169.299 241.217C166.082 241.489 162.814 242.381 159.558 242.795C154.022 243.5 147.82 242.713 143.624 240.773C141.588 239.831 140.029 238.656 138 237.71C137.724 237.568 137.425 237.476 137.117 237.439C136.532 237.422 135.955 237.572 135.452 237.872C132.048 239.593 127.107 240.992 122.52 240.222C122.178 240.49 122.828 240.796 123.39 240.943Z" fill="white"/>
<path d="M103.093 247C103.051 246.993 103.009 246.987 102.967 246.979C103.143 246.87 103.309 246.745 103.462 246.605L103.093 247Z" fill="white"/>
<path d="M75.6347 250.396C77.5504 250.549 79.4761 250.664 81.4118 250.739C82.8838 250.818 84.3591 250.808 85.8298 250.709C89.0618 250.435 91.8302 249.419 94.9133 248.863C97.7389 248.354 101.173 248.109 102.967 246.98C98.3298 246.176 93.5255 247.812 88.7441 248.421C84.8766 248.898 80.956 248.704 77.1541 247.848C76.6247 248.682 76.1183 249.531 75.6347 250.396Z" fill="white"/>
<path d="M98.8093 329.321C99.2673 329.572 99.7306 329.812 100.194 330.042C100.359 330.122 100.529 330.202 100.694 330.287C100.833 330.351 100.971 330.42 101.11 330.484C101.152 330.506 101.19 330.522 101.227 330.543C101.344 330.596 101.456 330.65 101.573 330.703C101.701 330.762 101.829 330.82 101.951 330.879C102.095 330.943 102.234 331.007 102.377 331.066C102.91 331.306 103.448 331.535 103.986 331.754C105.913 332.545 107.883 333.229 109.886 333.802C109.977 333.829 110.072 333.856 110.168 333.882C111.026 334.122 111.888 334.341 112.756 334.538C114.274 334.891 115.806 335.179 117.352 335.403H117.363C117.549 335.429 117.73 335.456 117.917 335.483C117.933 335.483 117.949 335.488 117.97 335.488C117.97 335.493 117.97 335.493 117.975 335.488C118.178 335.515 118.385 335.541 118.588 335.568C118.601 335.572 118.616 335.574 118.63 335.573C118.822 335.6 119.019 335.621 119.211 335.643C119.418 335.664 119.626 335.685 119.834 335.707C119.993 335.723 120.153 335.739 120.313 335.755C120.327 335.759 120.341 335.761 120.356 335.76C120.499 335.771 120.643 335.787 120.787 335.797H120.808C120.931 335.808 121.059 335.819 121.181 335.829C122.667 335.947 124.158 336 125.67 336C127.305 336 128.929 335.936 130.532 335.797H130.548C130.894 335.765 131.235 335.733 131.576 335.701C131.667 335.691 131.752 335.685 131.842 335.675C131.858 335.675 131.88 335.669 131.896 335.669C131.922 335.664 131.949 335.664 131.981 335.659C131.995 335.659 132.01 335.657 132.023 335.653C132.14 335.643 132.258 335.627 132.38 335.616L132.78 335.568C132.913 335.552 133.046 335.531 133.179 335.515C133.211 335.509 133.238 335.509 133.269 335.504C133.365 335.493 133.461 335.477 133.557 335.461C133.605 335.456 133.653 335.451 133.695 335.445C133.791 335.429 133.882 335.419 133.978 335.403H133.983C136.905 334.981 139.79 334.33 142.61 333.456C142.759 333.408 142.908 333.365 143.057 333.317C142.37 330.105 140.954 327.094 138.92 324.517C136.886 321.94 134.287 319.866 131.326 318.455C132.058 317.756 132.565 316.853 132.78 315.863C132.918 315.224 132.929 314.565 132.812 313.922C132.695 313.28 132.452 312.666 132.098 312.118C131.407 311.055 130.323 310.311 129.084 310.048L121.192 308.395C119.921 308.147 118.604 308.411 117.527 309.13C116.45 309.849 115.7 310.965 115.44 312.235C115.36 312.625 115.324 313.022 115.334 313.42C107.735 318.487 102.265 323.742 98.8093 329.321Z" fill="#EB4628"/>
<path d="M122.112 305.272C131.193 305.272 138.555 297.898 138.555 288.802C138.555 279.706 131.193 272.332 122.112 272.332C113.032 272.332 105.67 279.706 105.67 288.802C105.67 297.898 113.032 305.272 122.112 305.272Z" fill="#FFB8B8"/>
<path d="M111.864 303.002C110.11 301.802 108.32 299.497 107.124 297.769C105.54 295.497 104.451 292.918 103.925 290.198C103.4 287.478 103.451 284.677 104.076 281.978C104.275 280.899 104.764 279.895 105.491 279.074C106.266 278.306 107.53 277.942 108.476 278.485C108.218 277.793 108.104 277.056 108.142 276.318C108.179 275.58 108.368 274.858 108.695 274.196C109.359 272.875 110.322 271.726 111.506 270.842C113.772 269.095 116.467 267.994 119.306 267.658C122.146 267.321 125.023 267.76 127.633 268.93C128.66 269.406 126.973 265.724 128.048 266.079C129.116 266.494 130.303 266.473 131.356 266.021C132.367 265.511 135.719 268.541 135.331 267.475C136.098 267.824 136.765 268.362 137.269 269.039C137.773 269.715 138.097 270.508 138.213 271.345C138.328 272.181 138.231 273.032 137.929 273.821C137.627 274.609 137.131 275.308 136.487 275.852C135.639 276.57 134.579 276.983 133.65 277.592C132.022 278.739 130.87 280.444 130.411 282.384C129.952 284.324 130.218 286.365 131.158 288.122C130.181 287.493 129.108 287.026 127.982 286.74C127.417 286.601 126.827 286.601 126.262 286.737C125.696 286.873 125.172 287.142 124.731 287.523C124.363 287.945 124.085 288.438 123.914 288.971C123.743 289.505 123.683 290.068 123.737 290.625C123.774 291.743 124.039 292.844 124.069 293.962C124.156 297.242 125.91 303.479 123.371 305.222C121.367 306.598 114.258 304.64 111.864 303.002Z" fill="#2F2E41"/>
<path d="M133.418 206.364C133.071 206.363 132.729 206.294 132.409 206.16C131.933 205.968 131.525 205.636 131.239 205.209C130.954 204.781 130.804 204.276 130.81 203.762V201.155C130.809 200.608 130.592 200.084 130.206 199.697C129.82 199.31 129.297 199.093 128.751 199.092C128.064 199.091 127.405 198.818 126.919 198.331C126.433 197.844 126.16 197.184 126.159 196.496V160.78C126.16 160.091 126.433 159.432 126.919 158.945C127.405 158.458 128.063 158.184 128.75 158.184H246.88C247.567 158.184 248.226 158.458 248.712 158.945C249.198 159.432 249.471 160.091 249.472 160.78V196.496C249.471 197.184 249.198 197.844 248.712 198.331C248.226 198.818 247.567 199.091 246.88 199.092H142.581C142.31 199.092 142.042 199.145 141.792 199.248C141.543 199.352 141.316 199.504 141.125 199.696L135.234 205.597C134.997 205.839 134.714 206.031 134.403 206.163C134.091 206.295 133.756 206.363 133.418 206.364Z" fill="white"/>
<path d="M133.418 206.897C133.001 206.897 132.589 206.814 132.205 206.653C131.631 206.421 131.139 206.021 130.795 205.506C130.451 204.99 130.271 204.382 130.277 203.762V201.155C130.277 200.75 130.116 200.361 129.83 200.074C129.543 199.788 129.155 199.626 128.751 199.626C127.922 199.625 127.128 199.295 126.543 198.708C125.957 198.121 125.627 197.326 125.626 196.496V160.78C125.627 159.95 125.957 159.155 126.542 158.568C127.128 157.981 127.922 157.651 128.75 157.65H246.88C247.708 157.651 248.502 157.981 249.088 158.568C249.674 159.155 250.003 159.95 250.004 160.78V196.496C250.003 197.326 249.674 198.121 249.088 198.708C248.503 199.295 247.708 199.625 246.88 199.626H142.581C142.38 199.625 142.182 199.664 141.996 199.741C141.811 199.818 141.643 199.931 141.501 200.074L135.61 205.974C135.324 206.266 134.983 206.498 134.606 206.656C134.23 206.814 133.826 206.897 133.418 206.897ZM128.75 158.717C128.205 158.718 127.681 158.935 127.295 159.322C126.909 159.709 126.692 160.233 126.692 160.78V196.496C126.692 197.043 126.909 197.567 127.295 197.954C127.681 198.341 128.205 198.558 128.751 198.559C129.438 198.56 130.096 198.834 130.582 199.32C131.068 199.807 131.341 200.467 131.342 201.155V203.762C131.342 204.17 131.463 204.569 131.689 204.908C131.916 205.247 132.237 205.511 132.613 205.667C132.99 205.823 133.404 205.864 133.803 205.784C134.202 205.705 134.569 205.508 134.857 205.22L140.748 199.319C140.988 199.077 141.274 198.886 141.588 198.755C141.903 198.625 142.24 198.558 142.581 198.559H246.88C247.426 198.558 247.95 198.341 248.336 197.954C248.722 197.567 248.939 197.043 248.939 196.496V160.78C248.939 160.233 248.722 159.709 248.335 159.322C247.949 158.935 247.426 158.718 246.88 158.717L128.75 158.717Z" fill="#3F3D56"/>
<path d="M236.729 174.354H140.938C140.572 174.354 140.221 174.208 139.963 173.949C139.704 173.69 139.558 173.338 139.558 172.971C139.558 172.605 139.704 172.253 139.963 171.994C140.221 171.735 140.572 171.589 140.938 171.589H236.729C237.095 171.589 237.446 171.735 237.705 171.994C237.963 172.253 238.109 172.605 238.109 172.971C238.109 173.338 237.963 173.69 237.705 173.949C237.446 174.208 237.095 174.354 236.729 174.354Z" fill="#EB4628"/>
<path d="M236.553 180.225H140.938C140.572 180.225 140.221 180.079 139.963 179.82C139.704 179.561 139.558 179.209 139.558 178.843C139.558 178.476 139.704 178.125 139.963 177.866C140.221 177.607 140.572 177.461 140.938 177.461H236.553C236.919 177.461 237.27 177.607 237.529 177.866C237.787 178.125 237.933 178.476 237.933 178.843C237.933 179.209 237.787 179.561 237.529 179.82C237.27 180.079 236.919 180.225 236.553 180.225Z" fill="#E6E6E6"/>
<path d="M236.458 186.096H140.938C140.572 186.096 140.221 185.951 139.963 185.691C139.704 185.432 139.558 185.081 139.558 184.714C139.558 184.348 139.704 183.996 139.963 183.737C140.221 183.478 140.572 183.332 140.938 183.332H236.458C236.824 183.332 237.175 183.478 237.433 183.737C237.692 183.996 237.837 184.348 237.837 184.714C237.837 185.081 237.692 185.432 237.433 185.691C237.175 185.951 236.824 186.096 236.458 186.096Z" fill="#E6E6E6"/>
<path d="M387.58 152.641C387.58 153.937 387.537 155.234 387.447 156.519C387.351 158.056 387.186 159.581 386.962 161.096C386.21 166.197 384.774 171.173 382.691 175.888C382.585 176.123 382.478 176.358 382.372 176.593L382.212 176.945C382.159 177.062 382.1 177.179 382.047 177.291C381.972 177.446 381.903 177.595 381.828 177.745C381.738 177.931 381.647 178.118 381.552 178.305C381.541 178.326 381.53 178.353 381.514 178.38C381.434 178.54 381.36 178.694 381.275 178.854C381.259 178.889 381.241 178.923 381.221 178.956C381.131 179.137 381.035 179.324 380.939 179.505C380.833 179.697 380.731 179.895 380.625 180.087C380.369 180.561 380.103 181.031 379.832 181.5C379.752 181.639 379.672 181.778 379.587 181.916C379.512 182.044 379.437 182.172 379.358 182.3C379.304 182.386 379.251 182.476 379.198 182.562C379.113 182.706 379.027 182.844 378.937 182.988C378.74 183.303 378.537 183.618 378.34 183.933H378.335C378.245 184.077 378.149 184.221 378.053 184.359V184.365C377.771 184.791 377.478 185.218 377.185 185.64C377.184 185.64 377.183 185.64 377.183 185.64C377.182 185.64 377.182 185.641 377.181 185.641C377.181 185.642 377.18 185.642 377.18 185.643C377.18 185.644 377.179 185.644 377.179 185.645C376.945 185.986 376.7 186.317 376.461 186.648V186.653C376.301 186.861 376.146 187.075 375.987 187.283C375.859 187.453 375.726 187.629 375.593 187.8C375.566 187.837 375.534 187.869 375.507 187.907V187.912C375.47 187.96 375.433 188.003 375.395 188.051C374.831 188.776 374.249 189.486 373.649 190.179L373.553 190.291C373.521 190.329 373.484 190.366 373.452 190.409C373.399 190.467 373.351 190.526 373.297 190.585C373.249 190.643 373.196 190.702 373.143 190.761C370.015 194.29 366.469 197.423 362.583 200.09C362.066 200.448 361.539 200.795 361.012 201.131C360.879 201.216 360.746 201.301 360.612 201.381C360.575 201.408 360.533 201.435 360.495 201.461C360.421 201.504 360.351 201.547 360.277 201.595C360.208 201.637 360.138 201.68 360.064 201.723C359.782 201.899 359.494 202.07 359.207 202.24C359.137 202.283 359.063 202.326 358.988 202.368C358.919 202.406 358.844 202.448 358.77 202.491C358.77 202.496 358.77 202.496 358.765 202.496H358.759V202.502H358.754C358.397 202.71 358.035 202.912 357.668 203.11C357.47 203.216 357.268 203.328 357.066 203.43C356.608 203.681 356.144 203.921 355.681 204.15C355.516 204.23 355.346 204.31 355.181 204.395C355.042 204.459 354.904 204.529 354.765 204.593C354.723 204.614 354.685 204.63 354.648 204.651C354.531 204.705 354.419 204.758 354.302 204.811C354.174 204.87 354.046 204.929 353.924 204.987C353.78 205.051 353.642 205.115 353.498 205.174C352.965 205.414 352.427 205.644 351.89 205.862C349.962 206.654 347.992 207.338 345.989 207.911C345.899 207.937 345.803 207.964 345.707 207.991C344.849 208.231 343.987 208.449 343.119 208.647C341.601 208.999 340.069 209.287 338.523 209.511H338.512C338.326 209.538 338.145 209.564 337.958 209.591C337.943 209.591 337.927 209.596 337.905 209.596C337.905 209.602 337.905 209.602 337.9 209.596C337.698 209.623 337.49 209.65 337.288 209.676C337.274 209.68 337.259 209.682 337.245 209.682C337.053 209.708 336.856 209.73 336.664 209.751C336.457 209.772 336.249 209.794 336.041 209.815C335.882 209.831 335.722 209.847 335.562 209.863C335.548 209.868 335.534 209.87 335.52 209.868C335.376 209.879 335.232 209.895 335.088 209.906H335.067C334.944 209.916 334.817 209.927 334.694 209.938C333.208 210.055 331.717 210.108 330.205 210.108C328.57 210.108 326.946 210.044 325.343 209.906H325.327C324.981 209.874 324.64 209.842 324.299 209.81C324.209 209.799 324.123 209.794 324.033 209.783C324.017 209.783 323.996 209.778 323.98 209.778C323.953 209.772 323.926 209.772 323.894 209.767C323.88 209.768 323.866 209.766 323.852 209.762C323.735 209.751 323.617 209.735 323.495 209.724L323.096 209.676C322.962 209.66 322.829 209.639 322.696 209.623C322.664 209.618 322.638 209.618 322.606 209.612C322.51 209.602 322.414 209.586 322.318 209.57C322.27 209.564 322.222 209.559 322.18 209.554C322.084 209.538 321.993 209.527 321.897 209.511H321.892C318.97 209.09 316.085 208.439 313.265 207.564C313.116 207.516 312.967 207.473 312.818 207.425C312.812 207.425 312.807 207.42 312.802 207.42C312.759 207.404 312.711 207.393 312.669 207.377C312.269 207.249 311.875 207.116 311.481 206.977C310.938 206.796 310.4 206.598 309.862 206.396C309.718 206.337 309.575 206.284 309.431 206.225C309.138 206.113 308.85 205.996 308.563 205.878C308.073 205.681 307.583 205.473 307.098 205.26C306.646 205.057 306.198 204.854 305.751 204.641C305.74 204.635 305.724 204.635 305.714 204.625C305.613 204.577 305.511 204.529 305.416 204.481H305.41C302.958 203.302 300.593 201.949 298.333 200.432C297.609 199.946 296.895 199.445 296.192 198.928C295.628 198.506 295.074 198.079 294.52 197.642C291.788 195.465 289.258 193.044 286.963 190.409V190.403C286.798 190.222 286.644 190.035 286.484 189.848C286.457 189.822 286.436 189.795 286.415 189.774C286.314 189.651 286.218 189.534 286.117 189.416V189.411C285.983 189.256 285.85 189.096 285.723 188.936C285.691 188.899 285.664 188.867 285.637 188.835V188.83C285.531 188.702 285.43 188.574 285.323 188.44C285.27 188.376 285.222 188.312 285.169 188.248V188.243C284.854 187.848 284.551 187.453 284.247 187.048C284.168 186.941 284.088 186.829 284.002 186.717C283.619 186.2 283.246 185.672 282.884 185.144V185.138C282.746 184.941 282.613 184.738 282.474 184.541C282.341 184.338 282.208 184.135 282.075 183.933C281.942 183.719 281.803 183.511 281.67 183.298L281.654 183.266C281.521 183.063 281.388 182.85 281.26 182.642C281.159 182.471 281.058 182.306 280.956 182.14C280.892 182.028 280.823 181.916 280.759 181.799C280.734 181.763 280.711 181.725 280.69 181.687C280.541 181.426 280.392 181.164 280.243 180.903C280.067 180.599 279.897 180.289 279.726 179.98C279.662 179.852 279.593 179.724 279.524 179.596C279.497 179.553 279.476 179.51 279.455 179.468C279.375 179.318 279.295 179.164 279.22 179.009C279.14 178.86 279.061 178.705 278.981 178.55C278.906 178.401 278.826 178.246 278.752 178.092C278.693 177.974 278.64 177.857 278.581 177.739C278.577 177.73 278.572 177.721 278.565 177.713C278.539 177.654 278.512 177.601 278.491 177.547C278.484 177.539 278.479 177.53 278.475 177.521C278.416 177.403 278.363 177.281 278.304 177.163C278.23 177.009 278.161 176.849 278.086 176.694C278.038 176.587 277.985 176.475 277.937 176.363C277.868 176.208 277.793 176.054 277.729 175.894C277.655 175.734 277.585 175.574 277.516 175.408C277.496 175.368 277.478 175.327 277.463 175.286C277.426 175.211 277.399 175.136 277.367 175.062C277.282 174.864 277.197 174.662 277.117 174.464C277.021 174.24 276.93 174.011 276.845 173.787C276.76 173.579 276.68 173.365 276.6 173.152L276.568 173.077C275.328 169.804 274.386 166.424 273.757 162.979V162.974C273.401 161.007 273.147 159.024 272.995 157.031C272.99 156.919 272.979 156.813 272.974 156.706C272.878 155.356 272.835 154.001 272.835 152.641C272.835 152.038 272.846 151.441 272.862 150.843C273.234 138.348 277.682 126.319 285.525 116.597C285.696 116.383 285.866 116.17 286.042 115.957C286.218 115.743 286.399 115.535 286.575 115.327C292.412 108.479 299.775 103.101 308.068 99.6256C316.362 96.1506 325.355 94.6763 334.322 95.3216C343.288 95.9668 351.978 98.7134 359.691 103.34C367.404 107.967 373.923 114.344 378.724 121.958C378.985 122.374 379.246 122.795 379.496 123.217C379.752 123.643 379.997 124.07 380.242 124.502C385.066 133.092 387.594 142.785 387.58 152.641Z" fill="#F2F2F2"/>
<path d="M332.485 115.052C323.051 117.477 313.383 118.874 303.65 119.221C302.178 119.301 300.702 119.291 299.232 119.191C296 118.918 293.231 117.901 290.148 117.345C288.666 117.078 287.015 116.883 285.523 116.595C285.868 116.167 286.219 115.743 286.576 115.325C289.793 115.598 293.061 116.489 296.317 116.903C301.853 117.608 308.055 116.822 312.251 114.881C314.287 113.94 315.846 112.764 317.875 111.819C318.151 111.677 318.45 111.585 318.758 111.548C319.343 111.53 319.92 111.68 320.423 111.98C323.827 113.702 328.768 115.1 333.355 114.331C333.697 114.599 333.048 114.904 332.485 115.052Z" fill="white"/>
<path d="M352.783 121.109C352.824 121.101 352.866 121.095 352.908 121.088C352.732 120.978 352.566 120.853 352.413 120.714L352.783 121.109Z" fill="white"/>
<path d="M380.24 124.505C378.325 124.658 376.399 124.772 374.463 124.847C372.991 124.927 371.516 124.917 370.045 124.817C366.813 124.543 364.045 123.527 360.962 122.971C358.136 122.462 354.703 122.217 352.908 121.088C357.545 120.284 362.35 121.921 367.131 122.53C370.999 123.006 374.919 122.812 378.721 121.956C379.25 122.791 379.757 123.64 380.24 124.505Z" fill="white"/>
<path d="M323.737 177.788C333.254 177.788 340.969 169.888 340.969 160.142C340.969 150.397 333.254 142.496 323.737 142.496C314.22 142.496 306.505 150.397 306.505 160.142C306.505 169.888 314.22 177.788 323.737 177.788Z" fill="#FFB6B6"/>
<path d="M357.066 203.43C356.608 203.681 356.144 203.921 355.681 204.15C355.516 204.23 355.346 204.31 355.181 204.395C355.042 204.459 354.904 204.529 354.765 204.593C354.723 204.614 354.685 204.63 354.648 204.651C354.531 204.705 354.419 204.758 354.302 204.811C354.174 204.87 354.046 204.929 353.924 204.987C353.78 205.051 353.642 205.116 353.498 205.174C352.965 205.414 352.427 205.644 351.89 205.862C349.962 206.654 347.992 207.338 345.989 207.911C345.899 207.937 345.803 207.964 345.707 207.991C344.849 208.231 343.987 208.45 343.119 208.647C341.601 208.999 340.069 209.287 338.523 209.511H338.512C338.326 209.538 338.145 209.564 337.959 209.591C337.943 209.591 337.927 209.596 337.905 209.596C337.905 209.602 337.905 209.602 337.9 209.596C337.698 209.623 337.49 209.65 337.288 209.676C337.274 209.681 337.259 209.682 337.245 209.682C337.053 209.708 336.856 209.73 336.664 209.751C336.457 209.772 336.249 209.794 336.041 209.815C335.882 209.831 335.722 209.847 335.562 209.863C335.548 209.868 335.534 209.87 335.52 209.868C335.376 209.879 335.232 209.895 335.088 209.906H335.067C334.944 209.916 334.817 209.927 334.694 209.938C333.208 210.055 331.717 210.109 330.205 210.109C328.57 210.109 326.946 210.044 325.343 209.906H325.327C324.981 209.874 324.64 209.842 324.299 209.81C324.209 209.799 324.123 209.794 324.033 209.783C324.017 209.783 323.996 209.778 323.98 209.778C323.953 209.772 323.926 209.772 323.894 209.767C323.88 209.768 323.866 209.766 323.852 209.762C323.735 209.751 323.617 209.735 323.495 209.724L323.096 209.676C322.962 209.66 322.829 209.639 322.696 209.623C322.664 209.618 322.638 209.618 322.606 209.612C322.51 209.602 322.414 209.586 322.318 209.57C322.27 209.564 322.222 209.559 322.18 209.554C322.084 209.538 321.993 209.527 321.897 209.511H321.892C318.97 209.09 316.085 208.439 313.265 207.564C313.116 207.516 312.967 207.473 312.818 207.425C313.505 204.213 314.921 201.202 316.955 198.625C318.989 196.049 321.588 193.975 324.549 192.564C323.817 191.865 323.31 190.962 323.096 189.971C322.957 189.333 322.946 188.673 323.063 188.031C323.18 187.388 323.423 186.775 323.777 186.226C324.468 185.164 325.552 184.419 326.791 184.157L334.683 182.503C335.954 182.255 337.271 182.519 338.348 183.238C339.425 183.958 340.175 185.074 340.435 186.344C340.515 186.733 340.551 187.131 340.541 187.528C348.141 192.596 353.61 197.85 357.066 203.43Z" fill="#EB4628"/>
<path d="M369.848 152.489C366.919 149.068 365.526 144.528 363.185 140.643C360.843 136.757 356.768 133.28 352.464 134.184C349.496 134.807 347.203 137.43 346.042 140.355C344.881 143.279 344.663 146.504 344.46 149.663C344.532 143.171 340.262 136.877 334.379 134.805C328.497 132.733 321.458 135.044 317.762 140.26C316.149 138.763 314.043 137.91 311.844 137.864C309.646 137.817 307.506 138.581 305.832 140.009C302.526 142.969 301.794 148.603 304.226 152.378C306.657 156.154 311.923 157.56 315.787 155.466L317.153 156.725C316.384 159.419 317.875 162.601 320.382 163.615C322.414 164.438 325.284 164.301 326.044 166.437C326.576 167.93 325.582 169.524 324.526 170.671C323.469 171.819 322.214 173.003 322.087 174.591C321.896 176.986 324.367 178.664 326.613 179.17C332.03 180.388 338.04 177.876 341.162 173.087C341.222 172.995 341.287 172.902 341.358 172.81C343.11 170.566 344.386 167.988 345.11 165.233C345.833 162.479 345.988 159.605 345.565 156.789C345.39 155.682 345.567 154.859 346.328 154.597C349.621 153.464 358.845 155.842 361.637 157.99C364.429 160.139 366.664 162.983 369.353 165.271C372.042 167.558 375.469 169.323 378.884 168.7C381.618 168.201 383.944 166.212 385.509 163.814C387.074 161.415 387.974 158.619 388.781 155.84C382.734 159.339 374.458 157.875 369.848 152.489Z" fill="#2F2E41"/>
<path d="M16.1072 116.901C16.1072 118.197 16.1498 119.493 16.2403 120.779C16.3362 122.315 16.5012 123.841 16.7249 125.356C17.4766 130.457 18.9132 135.433 20.9958 140.148C21.1023 140.383 21.2088 140.617 21.3153 140.852L21.4751 141.204C21.5283 141.322 21.5869 141.439 21.6402 141.551C21.7147 141.706 21.784 141.855 21.8585 142.004C21.949 142.191 22.0396 142.378 22.1354 142.564C22.1461 142.586 22.1567 142.612 22.1727 142.639C22.2526 142.799 22.3271 142.954 22.4123 143.114C22.428 143.149 22.4458 143.183 22.4656 143.215C22.5561 143.397 22.652 143.583 22.7478 143.765C22.8543 143.957 22.9555 144.154 23.062 144.346C23.3176 144.821 23.5839 145.29 23.8555 145.76C23.9354 145.898 24.0153 146.037 24.1005 146.176C24.175 146.304 24.2496 146.432 24.3295 146.56C24.3827 146.645 24.436 146.736 24.4892 146.821C24.5744 146.965 24.6596 147.104 24.7501 147.248C24.9472 147.563 25.1495 147.878 25.3466 148.192H25.3519C25.4424 148.336 25.5383 148.48 25.6342 148.619V148.624C25.9164 149.051 26.2093 149.478 26.5022 149.899C26.5029 149.899 26.5036 149.899 26.5042 149.9C26.5049 149.9 26.5055 149.9 26.506 149.901C26.5065 149.901 26.5069 149.902 26.5071 149.903C26.5074 149.903 26.5075 149.904 26.5075 149.905C26.7418 150.246 26.9868 150.577 27.2264 150.907V150.913C27.3862 151.121 27.5406 151.334 27.7004 151.542C27.8282 151.713 27.9613 151.889 28.0944 152.06C28.1211 152.097 28.153 152.129 28.1797 152.166V152.172C28.2169 152.22 28.2542 152.262 28.2915 152.31C28.856 153.036 29.4382 153.745 30.0382 154.439L30.134 154.551C30.166 154.588 30.2033 154.626 30.2352 154.668C30.2885 154.727 30.3364 154.786 30.3897 154.844C30.4376 154.903 30.4908 154.962 30.5441 155.02C33.6717 158.549 37.218 161.683 41.1042 164.35C41.6208 164.707 42.148 165.054 42.6752 165.39C42.8083 165.476 42.9414 165.561 43.0746 165.641C43.1118 165.668 43.1544 165.694 43.1917 165.721C43.2663 165.764 43.3355 165.806 43.4101 165.854C43.4793 165.897 43.5485 165.94 43.6231 165.982C43.9053 166.158 44.1929 166.329 44.4804 166.5C44.5497 166.543 44.6242 166.585 44.6988 166.628C44.768 166.665 44.8426 166.708 44.9171 166.751C44.9171 166.756 44.9171 166.756 44.9224 166.756H44.9278V166.761H44.9331C45.2899 166.969 45.652 167.172 46.0195 167.369C46.2165 167.476 46.4189 167.588 46.6212 167.689C47.0792 167.94 47.5425 168.18 48.0058 168.41C48.1709 168.49 48.3413 168.57 48.5064 168.655C48.6448 168.719 48.7833 168.788 48.9218 168.852C48.9644 168.874 49.0016 168.89 49.0389 168.911C49.1561 168.964 49.2679 169.018 49.3851 169.071C49.5129 169.13 49.6407 169.188 49.7631 169.247C49.9069 169.311 50.0454 169.375 50.1892 169.434C50.7217 169.674 51.2596 169.903 51.7974 170.122C53.725 170.913 55.6948 171.597 57.6979 172.17C57.7884 172.197 57.8843 172.224 57.9801 172.25C58.8375 172.49 59.7002 172.709 60.5683 172.906C62.086 173.259 63.6179 173.547 65.164 173.771H65.1746C65.361 173.797 65.5421 173.824 65.7285 173.851C65.7445 173.851 65.7604 173.856 65.7817 173.856C65.7817 173.861 65.7817 173.861 65.7871 173.856C65.9894 173.883 66.1971 173.909 66.3995 173.936C66.4133 173.94 66.4277 173.942 66.4421 173.941C66.6338 173.968 66.8308 173.989 67.0225 174.011C67.2302 174.032 67.4379 174.053 67.6456 174.075C67.8053 174.091 67.9651 174.107 68.1249 174.123C68.1385 174.127 68.1531 174.129 68.1675 174.128C68.3113 174.139 68.455 174.155 68.5988 174.165H68.6201C68.7426 174.176 68.8704 174.187 68.9929 174.197C70.4786 174.315 71.9697 174.368 73.4821 174.368C75.117 174.368 76.7412 174.304 78.3441 174.165H78.3601C78.7063 174.133 79.0471 174.101 79.3879 174.069C79.4784 174.059 79.5636 174.053 79.6542 174.043C79.6702 174.043 79.6915 174.037 79.7074 174.037C79.7341 174.032 79.7607 174.032 79.7926 174.027C79.807 174.027 79.8214 174.025 79.8352 174.021C79.9524 174.011 80.0695 173.995 80.192 173.984L80.5914 173.936C80.7246 173.92 80.8577 173.899 80.9908 173.883C81.0228 173.877 81.0494 173.877 81.0814 173.872C81.1772 173.861 81.2731 173.845 81.3689 173.829C81.4169 173.824 81.4648 173.819 81.5074 173.813C81.6032 173.797 81.6938 173.787 81.7896 173.771H81.7949C84.7171 173.349 87.6017 172.698 90.422 171.824C90.5711 171.776 90.7202 171.733 90.8693 171.685C90.8746 171.685 90.8799 171.68 90.8853 171.68C90.9279 171.664 90.9758 171.653 91.0184 171.637C91.4178 171.509 91.8119 171.376 92.2059 171.237C92.7491 171.055 93.287 170.858 93.8248 170.655C93.9686 170.597 94.1124 170.543 94.2562 170.485C94.5491 170.373 94.8366 170.255 95.1242 170.138C95.6141 169.941 96.1041 169.733 96.5887 169.519C97.0413 169.316 97.4886 169.114 97.936 168.9C97.9466 168.895 97.9626 168.895 97.9733 168.884C98.0744 168.836 98.1756 168.788 98.2715 168.74H98.2768C100.729 167.561 103.094 166.208 105.354 164.692C106.078 164.206 106.792 163.705 107.495 163.187C108.059 162.766 108.613 162.339 109.167 161.902C111.899 159.725 114.429 157.304 116.724 154.668V154.663C116.889 154.481 117.043 154.295 117.203 154.108C117.23 154.081 117.251 154.055 117.272 154.033C117.373 153.911 117.469 153.793 117.57 153.676V153.671C117.704 153.516 117.837 153.356 117.964 153.196C117.996 153.159 118.023 153.127 118.05 153.095V153.089C118.156 152.961 118.257 152.833 118.364 152.7C118.417 152.636 118.465 152.572 118.518 152.508V152.502C118.833 152.108 119.136 151.713 119.44 151.308C119.519 151.201 119.599 151.089 119.685 150.977C120.068 150.459 120.441 149.931 120.803 149.403V149.398C120.941 149.2 121.074 148.998 121.213 148.8C121.346 148.598 121.479 148.395 121.612 148.192C121.745 147.979 121.884 147.771 122.017 147.557L122.033 147.525C122.166 147.323 122.299 147.109 122.427 146.901C122.528 146.731 122.629 146.565 122.731 146.4C122.795 146.288 122.864 146.176 122.928 146.059C122.953 146.022 122.976 145.985 122.997 145.946C123.146 145.685 123.295 145.424 123.444 145.162C123.62 144.858 123.79 144.549 123.961 144.24C124.025 144.111 124.094 143.983 124.163 143.855C124.19 143.813 124.211 143.77 124.232 143.727C124.312 143.578 124.392 143.423 124.467 143.269C124.547 143.119 124.626 142.965 124.706 142.81C124.781 142.661 124.861 142.506 124.935 142.351C124.994 142.234 125.047 142.116 125.106 141.999C125.11 141.989 125.115 141.981 125.122 141.972C125.148 141.914 125.175 141.86 125.196 141.807C125.203 141.799 125.208 141.79 125.212 141.78C125.271 141.663 125.324 141.54 125.383 141.423C125.457 141.268 125.526 141.108 125.601 140.954C125.649 140.847 125.702 140.735 125.75 140.623C125.819 140.468 125.894 140.313 125.958 140.153C126.032 139.993 126.102 139.833 126.171 139.668C126.191 139.628 126.209 139.587 126.224 139.545C126.261 139.471 126.288 139.396 126.32 139.321C126.405 139.124 126.49 138.921 126.57 138.724C126.666 138.5 126.757 138.27 126.842 138.046C126.927 137.838 127.007 137.625 127.087 137.411L127.119 137.337C128.359 134.063 129.301 130.683 129.93 127.239V127.233C130.286 125.267 130.54 123.284 130.692 121.291C130.697 121.179 130.708 121.072 130.713 120.966C130.809 119.616 130.852 118.261 130.852 116.901C130.852 116.298 130.841 115.701 130.825 115.103C130.453 102.608 126.005 90.579 118.162 80.8563C117.991 80.6429 117.821 80.4296 117.645 80.2162C117.469 80.0028 117.288 79.7948 117.112 79.5867C111.275 72.7385 103.912 67.3602 95.6185 63.8852C87.3249 60.4103 78.3322 58.936 69.3655 59.5812C60.3987 60.2264 51.7087 62.973 43.996 67.5997C36.2834 72.2264 29.7639 78.6037 24.9632 86.2174C24.7022 86.6334 24.4413 87.0549 24.191 87.4763C23.9354 87.9031 23.6904 88.3298 23.4455 88.7619C18.6211 97.352 16.0933 107.045 16.1072 116.901Z" fill="#F2F2F2"/>
<path d="M71.2017 79.3113C80.6359 81.7361 90.3038 83.1339 100.037 83.4802C101.509 83.5606 102.985 83.5505 104.455 83.4501C107.687 83.1779 110.456 82.1603 113.539 81.6043C115.021 81.3377 116.672 81.1428 118.164 80.8547C117.819 80.4262 117.468 80.003 117.111 79.585C113.894 79.8573 110.626 80.7487 107.37 81.1629C101.834 81.868 95.6323 81.0812 91.436 79.1407C89.4002 78.1991 87.8407 77.024 85.812 76.0781C85.5361 75.9362 85.2372 75.8445 84.9293 75.8073C84.3443 75.7897 83.7665 75.9398 83.2639 76.2401C79.8603 77.9612 74.9187 79.36 70.3319 78.5904C69.9899 78.8584 70.6395 79.1636 71.2017 79.3113Z" fill="white"/>
<path d="M50.9045 85.3684C50.8626 85.3608 50.8206 85.3548 50.7787 85.3475C50.9549 85.2381 51.1208 85.1129 51.2744 84.9734L50.9045 85.3684Z" fill="white"/>
<path d="M23.4466 88.7642C25.3623 88.9175 27.288 89.0317 29.2237 89.1067C30.6956 89.1863 32.171 89.1763 33.6417 89.0766C36.8737 88.8029 39.6421 87.7868 42.7252 87.2307C45.5508 86.722 48.9845 86.4769 50.7786 85.3476C46.1417 84.5436 41.3374 86.1803 36.556 86.7893C32.6885 87.2657 28.7679 87.0718 24.966 86.2161C24.4366 87.0502 23.9302 87.8996 23.4466 88.7642Z" fill="white"/>
<path d="M46.6212 167.689C47.0792 167.94 47.5425 168.18 48.0058 168.41C48.1709 168.49 48.3413 168.57 48.5064 168.655C48.6448 168.719 48.7833 168.788 48.9218 168.852C48.9644 168.874 49.0016 168.89 49.0389 168.911C49.1561 168.964 49.2679 169.018 49.3851 169.071C49.5129 169.13 49.6407 169.188 49.7632 169.247C49.9069 169.311 50.0454 169.375 50.1892 169.434C50.7217 169.674 51.2596 169.903 51.7974 170.122C53.7249 170.913 55.6948 171.597 57.6979 172.17C57.7884 172.197 57.8843 172.224 57.9801 172.25C58.8375 172.49 59.7002 172.709 60.5682 172.906C62.086 173.259 63.6179 173.547 65.164 173.771H65.1746C65.361 173.797 65.5421 173.824 65.7285 173.851C65.7445 173.851 65.7604 173.856 65.7817 173.856C65.7817 173.861 65.7817 173.861 65.7871 173.856C65.9894 173.883 66.1971 173.909 66.3995 173.936C66.4133 173.94 66.4277 173.942 66.4421 173.941C66.6338 173.968 66.8308 173.989 67.0225 174.011C67.2302 174.032 67.4379 174.053 67.6456 174.075C67.8054 174.091 67.9651 174.107 68.1249 174.123C68.1385 174.127 68.153 174.129 68.1675 174.128C68.3112 174.139 68.455 174.155 68.5988 174.165H68.6201C68.7426 174.176 68.8704 174.187 68.9929 174.197C70.4787 174.315 71.9697 174.368 73.4821 174.368C75.117 174.368 76.7412 174.304 78.3442 174.165H78.3601C78.7063 174.133 79.0471 174.101 79.3879 174.069C79.4784 174.059 79.5636 174.053 79.6542 174.043C79.6702 174.043 79.6915 174.037 79.7074 174.037C79.7341 174.032 79.7607 174.032 79.7926 174.027C79.807 174.027 79.8214 174.025 79.8352 174.021C79.9524 174.011 80.0696 173.995 80.192 173.984L80.5914 173.936C80.7246 173.92 80.8577 173.899 80.9908 173.883C81.0228 173.877 81.0494 173.877 81.0814 173.872C81.1772 173.861 81.2731 173.845 81.3689 173.829C81.4169 173.824 81.4648 173.819 81.5074 173.813C81.6032 173.797 81.6938 173.787 81.7896 173.771H81.7949C84.7171 173.349 87.6017 172.698 90.422 171.824C90.5711 171.776 90.7202 171.733 90.8693 171.685C90.1817 168.473 88.7661 165.462 86.7319 162.885C84.6977 160.308 82.0994 158.234 79.1376 156.823C79.8702 156.124 80.3766 155.221 80.5914 154.231C80.7297 153.592 80.7406 152.933 80.6237 152.29C80.5067 151.648 80.2641 151.035 79.9098 150.486C79.2188 149.423 78.1346 148.679 76.8957 148.416L69.0035 146.763C67.7331 146.515 66.4162 146.779 65.3392 147.498C64.2622 148.217 63.5122 149.333 63.2522 150.603C63.1717 150.993 63.136 151.39 63.1457 151.788C55.5465 156.855 50.0773 162.11 46.6212 167.689Z" fill="#EB4628"/>
<path d="M77.8428 141.426C88.4522 141.426 97.0529 132.811 97.0529 122.183C97.0529 111.556 88.4522 102.941 77.8428 102.941C67.2333 102.941 58.6327 111.556 58.6327 122.183C58.6327 132.811 67.2333 141.426 77.8428 141.426Z" fill="#9E616A"/>
<path d="M75.113 140.398C70.3037 141.699 65.0017 139.969 61.2486 136.688C57.4954 133.407 55.1477 128.757 53.7949 123.955C52.8042 120.437 52.3345 116.533 53.8979 113.231C55.4613 109.929 59.669 107.701 62.9152 109.369C60.9127 107.032 61.9131 103.166 64.252 101.167C66.5908 99.1678 69.8025 98.5946 72.8612 98.2812C77.3004 97.8265 81.8858 97.7756 86.11 99.2162C90.3342 100.657 94.1723 103.806 95.4943 108.076C96.8445 108.705 98.3652 108.869 99.818 108.54C101.271 108.212 102.574 107.41 103.523 106.26C103.768 107.58 103.571 108.945 102.964 110.142C102.356 111.34 101.372 112.303 100.163 112.884L106.635 110.782C107.748 113.142 105.798 116.063 103.304 116.818C100.81 117.574 98.1172 116.748 95.7504 115.656C93.3836 114.564 91.0899 113.184 88.519 112.758C85.9482 112.332 82.9283 113.16 81.7392 115.482C81.1163 116.699 81.0838 118.123 80.7222 119.442C80.3606 120.76 79.4446 122.127 78.084 122.235C77.2244 122.303 76.3828 121.844 75.5256 121.938C74.9996 122.042 74.5151 122.297 74.1316 122.672C73.7482 123.048 73.4823 123.527 73.3665 124.051C73.1531 125.103 73.1505 126.188 73.3588 127.241L75.0029 139.829L75.113 140.398Z" fill="#2F2E41"/>
</g>
<defs>
<clipPath id="clip0_1_3493">
<rect width="431" height="336" fill="white" transform="translate(-28)"/>
</clipPath>
</defs>
</svg>
