<svg width="417" height="277" viewBox="0 0 417 277" fill="none" xmlns="http://www.w3.org/2000/svg">
<path d="M89.4754 162.009C69.9892 142.793 61.7591 122.747 66.3006 105.563C72.1288 83.51 98.0207 68.2626 137.337 63.7298L137.483 64.9948C98.7133 69.4642 73.2164 84.3694 67.5293 105.888C63.1094 122.612 71.2201 142.221 90.3672 161.102L89.4754 162.009Z" fill="#F0F0F0"/>
<path d="M277.485 230.218C253.165 230.218 226.737 226.598 200.486 219.636C168.024 211.028 138.259 198.034 114.411 182.059L115.117 181.001C138.851 196.899 168.483 209.833 200.811 218.406C230.026 226.153 259.459 229.743 285.919 228.796L285.965 230.068C283.17 230.168 280.344 230.218 277.485 230.218Z" fill="#F0F0F0"/>
<path d="M333.278 222.212L332.871 221.006C354.622 213.64 368.226 201.773 372.213 186.688C377.281 167.511 366.271 145.257 341.21 124.026C316.021 102.687 279.698 84.9814 238.931 74.1707L239.256 72.9399C280.202 83.7981 316.701 101.596 342.03 123.054C367.487 144.62 378.643 167.335 373.442 187.013C369.341 202.531 355.452 214.703 333.278 222.212Z" fill="#F0F0F0"/>
<path d="M133.553 230.75C85.7661 209.52 48.9422 181.976 29.8659 153.192L30.9246 152.488C49.869 181.072 86.4996 208.453 134.069 229.586L133.553 230.75Z" fill="#F0F0F0"/>
<path d="M301.57 267.53C296.641 267.53 291.628 267.42 286.531 267.199L286.585 265.928C324.626 267.577 358.189 263.017 383.654 252.738L384.13 253.919C361.916 262.885 333.602 267.53 301.57 267.53Z" fill="#F0F0F0"/>
<path d="M273.843 64.8714C265.945 62.2954 257.821 59.897 249.696 57.7425C202.944 45.3445 156.987 40.9426 116.79 45.0151L116.662 43.7482C157.009 39.6624 203.124 44.0749 250.022 56.5117C258.169 58.6724 266.316 61.0777 274.237 63.6611L273.843 64.8714Z" fill="#F0F0F0"/>
<path d="M59.6095 163.918C40.1233 144.703 31.8932 124.656 36.4347 107.472C42.2629 85.4196 68.1548 70.1722 107.471 65.6394L107.617 66.9044C68.8473 71.3738 43.3504 86.279 37.6634 107.798C33.2435 124.522 41.3541 144.13 60.5012 163.012L59.6095 163.918Z" fill="#F0F0F0"/>
<path d="M247.619 232.128C223.299 232.128 196.871 228.507 170.62 221.546C138.158 212.937 108.394 199.943 84.5449 183.969L85.251 182.911C108.985 198.808 138.618 211.743 170.945 220.315C200.16 228.063 229.593 231.653 256.053 230.705L256.099 231.977C253.304 232.078 250.478 232.128 247.619 232.128Z" fill="#F0F0F0"/>
<path d="M303.412 224.122L303.005 222.916C324.756 215.549 338.36 203.682 342.347 188.597C347.415 169.42 336.405 147.167 311.344 125.936C286.155 104.597 249.832 86.891 209.065 76.0802L209.39 74.8495C250.336 85.7077 286.835 103.505 312.164 124.964C337.621 146.53 348.777 169.244 343.576 188.923C339.475 204.441 325.586 216.612 303.412 224.122Z" fill="#F0F0F0"/>
<path d="M103.688 232.66C55.9002 211.429 19.0763 183.885 0 155.102L1.05867 154.397C20.0032 182.982 56.6337 210.363 104.203 231.496L103.688 232.66Z" fill="#F0F0F0"/>
<path d="M271.704 269.44C266.775 269.44 261.762 269.329 256.665 269.109L256.719 267.837C294.76 269.487 328.323 264.927 353.788 254.647L354.264 255.828C332.05 264.794 303.737 269.44 271.704 269.44Z" fill="#F0F0F0"/>
<path d="M243.977 66.781C236.079 64.2051 227.955 61.8066 219.831 59.6521C173.079 47.2541 127.121 42.8522 86.924 46.9247L86.7962 45.6578C127.143 41.572 173.258 45.9845 220.156 58.4213C228.303 60.582 236.45 62.9873 244.371 65.5707L243.977 66.781Z" fill="#F0F0F0"/>
<path d="M21.6616 129.821C30.7944 119.563 45.3627 113.312 58.5649 117.054C46.3854 125.688 37.6471 138.359 33.8961 152.825C32.4697 158.41 31.4637 164.77 26.8274 168.184C23.9426 170.308 20.1202 170.816 16.5725 170.332C13.0247 169.848 9.6701 168.466 6.36078 167.097L5.47028 167.174C8.03054 153.671 12.5288 140.078 21.6616 129.821Z" fill="#F2F2F2"/>
<path d="M58.5246 117.34C47.4867 120.017 37.5715 126.11 30.1873 134.753C28.5647 136.585 27.2405 138.663 26.2636 140.908C25.3826 143.126 25.1106 145.54 25.4759 147.899C25.7724 150.106 26.3308 152.328 26.0867 154.569C25.9447 155.714 25.5628 156.815 24.9659 157.802C24.369 158.789 23.5706 159.638 22.6232 160.294C20.3048 161.99 17.5164 162.75 14.7638 163.398C11.7075 164.118 8.52166 164.818 6.03033 166.852C5.72847 167.099 5.36426 166.615 5.66567 166.369C10.0002 162.829 16.0241 163.284 20.8198 160.713C23.0576 159.513 24.948 157.63 25.4076 155.047C25.8095 152.788 25.2357 150.496 24.9162 148.264C24.5261 145.968 24.7033 143.611 25.4321 141.4C26.2918 139.112 27.5338 136.987 29.1051 135.116C32.5755 130.848 36.6942 127.154 41.3104 124.167C46.56 120.73 52.3578 118.217 58.4532 116.738C58.8305 116.647 58.8995 117.249 58.5246 117.34Z" fill="white"/>
<path d="M32.4014 131.83C31.1219 130.392 30.3943 128.545 30.3485 126.62C30.3028 124.694 30.9419 122.815 32.1516 121.318C32.3974 121.015 32.8776 121.384 32.6315 121.686C31.5024 123.079 30.9073 124.829 30.9535 126.622C30.9998 128.415 31.6844 130.133 32.8838 131.464C33.1441 131.754 32.6602 132.118 32.4014 131.83Z" fill="white"/>
<path d="M25.1784 146.801C29.1006 147.061 32.9769 145.832 36.0343 143.357C36.337 143.112 36.7013 143.595 36.3989 143.841C33.2125 146.41 29.1761 147.681 25.0952 147.401C24.7062 147.374 24.7916 146.774 25.1784 146.801Z" fill="white"/>
<path d="M46.6959 121.521C47.0752 122.181 47.6122 122.736 48.2586 123.137C48.9049 123.537 49.6405 123.77 50.3991 123.816C50.7882 123.838 50.7024 124.437 50.3159 124.416C49.4779 124.362 48.6659 124.103 47.9508 123.662C47.2357 123.221 46.6392 122.612 46.2135 121.887C46.1677 121.822 46.1482 121.742 46.1592 121.663C46.1701 121.584 46.2106 121.512 46.2724 121.462C46.3365 121.414 46.4169 121.394 46.4962 121.405C46.5755 121.416 46.6473 121.458 46.6959 121.521Z" fill="white"/>
<path d="M77.3056 159.634C77.0623 159.628 76.8189 159.621 76.5725 159.618C73.3003 159.543 70.0275 159.734 66.7862 160.19C66.5351 160.221 66.281 160.257 66.0313 160.295C58.2341 161.477 50.7236 164.098 43.8817 168.026C41.1606 169.591 38.5623 171.362 36.1093 173.322C32.7219 176.03 29.2641 179.236 25.2983 180.623C24.8861 180.773 24.4652 180.896 24.0378 180.994L5.63347 168.256C5.60615 168.206 5.57573 168.16 5.5482 168.11L4.79016 167.635C4.90962 167.525 5.03588 167.414 5.15533 167.304C5.22437 167.24 5.29752 167.179 5.36652 167.115C5.41384 167.073 5.46139 167.031 5.5017 166.991C5.5174 166.977 5.53331 166.963 5.54612 166.953C5.58644 166.913 5.62817 166.879 5.66558 166.843C6.3696 166.218 7.07924 165.597 7.79449 164.979C7.79739 164.975 7.7974 164.975 7.8044 164.974C13.2662 160.284 19.1669 156.01 25.5276 152.769C25.719 152.672 25.9131 152.57 26.1129 152.478C28.9881 151.033 31.9764 149.826 35.0479 148.869C36.7315 148.35 38.4402 147.917 40.1674 147.571C44.6322 146.687 49.208 146.511 53.7272 147.051C62.7361 148.128 71.3007 152.079 76.8843 159.094C77.027 159.274 77.1658 159.451 77.3056 159.634Z" fill="#F2F2F2"/>
<path d="M77.1029 159.84C66.6807 155.32 55.1018 154.205 44.011 156.653C41.614 157.138 39.3083 157.998 37.1787 159.201C35.142 160.441 33.4739 162.204 32.3476 164.308C31.2582 166.249 30.3681 168.36 28.8267 170.002C28.0253 170.83 27.058 171.48 25.9884 171.908C24.9188 172.335 23.771 172.532 22.6203 172.484C19.75 172.44 17.0667 171.365 14.4791 170.223C11.6061 168.955 8.64196 167.592 5.42991 167.714C5.04072 167.728 5.04059 167.123 5.42919 167.108C11.0176 166.896 15.5542 170.892 20.9287 171.731C23.4365 172.123 26.0774 171.76 27.9969 169.974C29.6755 168.413 30.5952 166.237 31.6813 164.262C32.75 162.194 34.308 160.419 36.2193 159.092C38.2809 157.784 40.5497 156.836 42.9286 156.29C48.2647 154.976 53.774 154.51 59.2547 154.909C65.5122 155.331 71.6517 156.821 77.4075 159.316C77.7637 159.471 77.4567 159.993 77.1029 159.84Z" fill="white"/>
<path d="M47.5359 155.654C47.3785 153.735 47.9075 151.821 49.0284 150.256C50.1492 148.691 51.789 147.576 53.6548 147.11C54.0327 147.017 54.1946 147.601 53.8163 147.694C52.078 148.125 50.5507 149.164 49.5099 150.623C48.4691 152.083 47.9835 153.867 48.1406 155.654C48.1743 156.042 47.5694 156.041 47.5359 155.654Z" fill="white"/>
<path d="M32.7706 163.252C35.7454 165.825 39.5794 167.181 43.508 167.049C43.8972 167.036 43.8975 167.642 43.5087 167.655C39.4203 167.785 35.4333 166.366 32.3436 163.68C32.0492 163.424 32.4779 162.997 32.7706 163.252Z" fill="white"/>
<path d="M65.145 156.045C65.0514 156.8 65.1465 157.567 65.422 158.277C65.6974 158.986 66.1444 159.616 66.7229 160.11C67.0203 160.362 66.5913 160.789 66.2958 160.539C65.6592 159.99 65.1663 159.294 64.8603 158.511C64.5543 157.727 64.4444 156.881 64.5403 156.045C64.5427 155.966 64.5753 155.89 64.6314 155.834C64.6875 155.778 64.7629 155.745 64.8423 155.742C64.9223 155.742 64.999 155.774 65.0557 155.831C65.1124 155.888 65.1445 155.964 65.145 156.045Z" fill="white"/>
<path d="M379.517 213.903C374.357 201.168 362.733 190.376 349.043 189.455C357.618 201.687 361.596 216.563 360.275 231.451C359.745 237.191 358.558 243.519 361.779 248.296C363.783 251.268 367.213 253.033 370.717 253.772C374.221 254.51 377.844 254.338 381.42 254.162L382.233 254.535C384.352 240.956 384.676 226.638 379.517 213.903Z" fill="#F2F2F2"/>
<path d="M348.986 189.738C358.483 195.975 365.777 205.052 369.832 215.679C370.745 217.951 371.295 220.353 371.462 222.796C371.548 225.182 370.994 227.547 369.858 229.646C368.839 231.625 367.567 233.53 367.045 235.722C366.795 236.848 366.785 238.014 367.016 239.145C367.247 240.275 367.714 241.343 368.386 242.28C370.001 244.658 372.372 246.312 374.747 247.85C377.384 249.557 380.149 251.288 381.813 254.043C382.015 254.377 382.52 254.044 382.319 253.711C379.424 248.918 373.598 247.318 369.944 243.282C368.239 241.398 367.09 238.989 367.524 236.401C367.904 234.139 369.213 232.173 370.263 230.178C371.401 228.147 372.025 225.868 372.08 223.539C372.038 221.095 371.581 218.676 370.729 216.385C368.893 211.197 366.253 206.33 362.908 201.964C359.117 196.959 354.499 192.64 349.255 189.195C348.93 188.982 348.663 189.526 348.986 189.738Z" fill="white"/>
<path d="M368.727 212.18C370.415 211.256 371.72 209.762 372.409 207.964C373.098 206.166 373.127 204.181 372.49 202.363C372.36 201.996 371.784 202.181 371.914 202.549C372.51 204.24 372.483 206.089 371.838 207.763C371.193 209.436 369.972 210.823 368.395 211.673C368.053 211.859 368.387 212.364 368.727 212.18Z" fill="white"/>
<path d="M370.507 228.711C366.725 227.637 363.487 225.174 361.438 221.814C361.235 221.481 360.73 221.813 360.932 222.146C363.071 225.639 366.446 228.195 370.384 229.305C370.759 229.41 370.88 228.816 370.507 228.711Z" fill="white"/>
<path d="M358.723 197.659C358.145 198.152 357.453 198.494 356.71 198.654C355.966 198.813 355.195 198.785 354.466 198.573C354.092 198.462 353.971 199.056 354.343 199.166C355.15 199.397 356.002 199.427 356.823 199.252C357.644 199.078 358.411 198.705 359.055 198.165C359.12 198.119 359.165 198.05 359.181 197.973C359.197 197.895 359.183 197.814 359.142 197.746C359.098 197.679 359.029 197.632 358.95 197.616C358.872 197.6 358.79 197.615 358.723 197.659Z" fill="white"/>
<path d="M317.106 223.249C317.338 223.324 317.569 223.4 317.802 223.48C320.909 224.511 323.927 225.793 326.827 227.314C327.053 227.428 327.281 227.547 327.503 227.667C334.45 231.405 340.644 236.402 345.77 242.405C347.808 244.796 349.661 247.338 351.313 250.01C353.595 253.701 355.776 257.884 359.046 260.526C359.384 260.806 359.739 261.064 360.109 261.299L381.716 255.499C381.758 255.461 381.803 255.428 381.845 255.39L382.719 255.198C382.643 255.055 382.561 254.907 382.486 254.763C382.442 254.68 382.394 254.597 382.35 254.514C382.32 254.459 382.289 254.403 382.265 254.352C382.255 254.333 382.244 254.315 382.236 254.301C382.211 254.25 382.183 254.204 382.16 254.157C381.707 253.332 381.247 252.508 380.78 251.686C380.779 251.681 380.779 251.681 380.773 251.677C377.202 245.421 373.079 239.409 368.176 234.215C368.028 234.059 367.879 233.898 367.722 233.744C365.499 231.415 363.089 229.272 360.518 227.337C359.106 226.281 357.642 225.298 356.131 224.391C352.223 222.055 347.973 220.349 343.535 219.336C334.689 217.317 325.297 218.155 317.684 222.882C317.49 223.003 317.299 223.123 317.106 223.249Z" fill="#F2F2F2"/>
<path d="M317.228 223.511C328.561 222.763 339.84 225.611 349.464 231.651C351.559 232.914 353.442 234.5 355.044 236.351C356.546 238.204 357.526 240.426 357.881 242.787C358.255 244.982 358.385 247.27 359.286 249.335C359.763 250.385 360.456 251.322 361.32 252.085C362.184 252.848 363.199 253.42 364.299 253.762C367.017 254.687 369.905 254.578 372.725 254.373C375.857 254.146 379.106 253.86 382.09 255.057C382.451 255.202 382.655 254.631 382.294 254.487C377.102 252.405 371.488 254.641 366.145 253.622C363.651 253.147 361.286 251.916 360.077 249.588C359.02 247.553 358.884 245.193 358.524 242.968C358.211 240.66 357.339 238.464 355.984 236.571C354.482 234.645 352.663 232.988 350.605 231.673C346.021 228.639 340.988 226.345 335.692 224.876C329.657 223.166 323.375 222.503 317.117 222.915C316.73 222.941 316.843 223.536 317.228 223.511Z" fill="white"/>
<path d="M346.479 229.523C347.272 227.768 347.415 225.788 346.885 223.937C346.354 222.085 345.184 220.483 343.583 219.416C343.259 219.201 342.91 219.697 343.235 219.912C344.728 220.902 345.818 222.395 346.308 224.12C346.799 225.845 346.658 227.689 345.91 229.319C345.748 229.673 346.318 229.875 346.479 229.523Z" fill="white"/>
<path d="M357.837 241.649C354.171 243.072 350.105 243.058 346.45 241.611C346.088 241.468 345.884 242.038 346.246 242.182C350.053 243.68 354.284 243.686 358.095 242.197C358.458 242.055 358.198 241.508 357.837 241.649Z" fill="white"/>
<path d="M329.764 223.962C329.598 224.705 329.251 225.396 328.754 225.971C328.257 226.547 327.624 226.989 326.914 227.26C326.549 227.397 326.81 227.944 327.172 227.807C327.956 227.505 328.653 227.015 329.204 226.381C329.755 225.746 330.143 224.986 330.333 224.166C330.357 224.091 330.352 224.009 330.318 223.937C330.284 223.865 330.224 223.808 330.15 223.779C330.075 223.753 329.992 223.757 329.919 223.791C329.847 223.825 329.791 223.887 329.764 223.962Z" fill="white"/>
<path d="M279.41 257.268C282.218 257.268 284.494 254.988 284.494 252.176C284.494 249.364 282.218 247.084 279.41 247.084C276.602 247.084 274.326 249.364 274.326 252.176C274.326 254.988 276.602 257.268 279.41 257.268Z" fill="#FD6584"/>
<path d="M297.417 170.536C300.224 170.536 302.5 168.257 302.5 165.444C302.5 162.632 300.224 160.352 297.417 160.352C294.609 160.352 292.333 162.632 292.333 165.444C292.333 168.257 294.609 170.536 297.417 170.536Z" fill="#E6E6E6"/>
<path d="M202.824 29.2882C205.631 29.2882 207.907 27.0083 207.907 24.196C207.907 21.3836 205.631 19.1038 202.824 19.1038C200.016 19.1038 197.74 21.3836 197.74 24.196C197.74 27.0083 200.016 29.2882 202.824 29.2882Z" fill="#E6E6E6"/>
<path d="M96.2953 219.533C96.2953 220.829 96.3379 222.125 96.4284 223.411C96.5243 224.947 96.6894 226.473 96.913 227.988C97.6647 233.089 99.1013 238.065 101.184 242.78C101.29 243.015 101.397 243.249 101.503 243.484L101.663 243.836C101.716 243.954 101.775 244.071 101.828 244.183C101.903 244.338 101.972 244.487 102.047 244.636C102.137 244.823 102.228 245.01 102.324 245.196C102.334 245.218 102.345 245.244 102.361 245.271C102.441 245.431 102.515 245.586 102.6 245.746C102.616 245.781 102.634 245.815 102.654 245.847C102.744 246.029 102.84 246.215 102.936 246.397C103.042 246.589 103.144 246.786 103.25 246.978C103.506 247.453 103.772 247.922 104.044 248.392C104.123 248.53 104.203 248.669 104.289 248.808C104.363 248.936 104.438 249.064 104.518 249.192C104.571 249.277 104.624 249.368 104.677 249.453C104.763 249.597 104.848 249.736 104.938 249.88C105.135 250.195 105.338 250.509 105.535 250.824H105.54C105.631 250.968 105.726 251.112 105.822 251.251V251.256C106.105 251.683 106.397 252.11 106.69 252.531L106.692 252.532L106.694 252.533L106.695 252.534L106.696 252.537C106.93 252.878 107.175 253.209 107.415 253.539V253.545C107.574 253.753 107.729 253.966 107.888 254.174C108.016 254.345 108.149 254.521 108.283 254.692C108.309 254.729 108.341 254.761 108.368 254.798V254.804C108.405 254.852 108.442 254.894 108.48 254.942C109.044 255.668 109.626 256.377 110.226 257.071L110.322 257.183C110.354 257.22 110.391 257.257 110.423 257.3C110.477 257.359 110.525 257.417 110.578 257.476C110.626 257.535 110.679 257.594 110.732 257.652C113.86 261.181 117.406 264.314 121.292 266.982C121.809 267.339 122.336 267.686 122.863 268.022C122.996 268.108 123.13 268.193 123.263 268.273C123.3 268.3 123.343 268.326 123.38 268.353C123.454 268.396 123.524 268.438 123.598 268.486C123.667 268.529 123.737 268.572 123.811 268.614C124.093 268.79 124.381 268.961 124.669 269.132C124.738 269.174 124.812 269.217 124.887 269.26C124.956 269.297 125.031 269.34 125.105 269.383C125.105 269.388 125.105 269.388 125.111 269.388H125.116V269.393H125.121C125.478 269.601 125.84 269.804 126.208 270.001C126.405 270.108 126.607 270.22 126.809 270.321C127.267 270.572 127.731 270.812 128.194 271.041C128.359 271.122 128.529 271.202 128.694 271.287C128.833 271.351 128.971 271.42 129.11 271.484C129.152 271.506 129.19 271.522 129.227 271.543C129.344 271.596 129.456 271.65 129.573 271.703C129.701 271.762 129.829 271.82 129.951 271.879C130.095 271.943 130.234 272.007 130.377 272.066C130.91 272.306 131.448 272.535 131.986 272.754C133.913 273.545 135.883 274.229 137.886 274.802C137.977 274.829 138.072 274.856 138.168 274.882C139.026 275.122 139.888 275.341 140.756 275.538C142.274 275.89 143.806 276.179 145.352 276.403H145.363C145.549 276.429 145.73 276.456 145.917 276.483C145.933 276.483 145.949 276.488 145.97 276.488C145.97 276.493 145.97 276.493 145.975 276.488C146.178 276.515 146.385 276.541 146.588 276.568C146.601 276.572 146.616 276.574 146.63 276.573C146.822 276.6 147.019 276.621 147.211 276.643C147.418 276.664 147.626 276.685 147.834 276.707C147.993 276.723 148.153 276.739 148.313 276.755C148.327 276.759 148.341 276.761 148.356 276.76C148.499 276.771 148.643 276.787 148.787 276.797H148.808C148.931 276.808 149.059 276.819 149.181 276.829C150.667 276.947 152.158 277 153.67 277C155.305 277 156.929 276.936 158.532 276.797H158.548C158.894 276.765 159.235 276.733 159.576 276.701C159.667 276.691 159.752 276.685 159.842 276.675C159.858 276.675 159.88 276.669 159.896 276.669C159.922 276.664 159.949 276.664 159.981 276.659C159.995 276.659 160.01 276.657 160.023 276.653C160.141 276.643 160.258 276.627 160.38 276.616L160.78 276.568C160.913 276.552 161.046 276.531 161.179 276.515C161.211 276.509 161.238 276.509 161.269 276.504C161.365 276.493 161.461 276.477 161.557 276.461C161.605 276.456 161.653 276.451 161.695 276.445C161.791 276.429 161.882 276.419 161.978 276.403H161.983C164.905 275.981 167.79 275.33 170.61 274.456C170.759 274.408 170.908 274.365 171.057 274.317C171.063 274.317 171.068 274.312 171.073 274.312C171.116 274.296 171.164 274.285 171.206 274.269C171.606 274.141 172 274.007 172.394 273.869C172.937 273.687 173.475 273.49 174.013 273.287C174.157 273.229 174.301 273.175 174.444 273.117C174.737 273.005 175.025 272.887 175.312 272.77C175.802 272.572 176.292 272.364 176.777 272.151C177.229 271.948 177.677 271.746 178.124 271.532C178.135 271.527 178.151 271.527 178.161 271.516C178.263 271.468 178.364 271.42 178.46 271.372H178.465C180.917 270.193 183.282 268.84 185.542 267.323C186.267 266.838 186.98 266.337 187.683 265.819C188.247 265.398 188.801 264.971 189.355 264.534C192.087 262.357 194.617 259.935 196.912 257.3V257.295C197.077 257.113 197.231 256.927 197.391 256.74C197.418 256.713 197.439 256.687 197.46 256.665C197.561 256.543 197.657 256.425 197.759 256.308V256.303C197.892 256.148 198.025 255.988 198.153 255.828C198.185 255.791 198.211 255.759 198.238 255.726V255.721C198.344 255.593 198.445 255.465 198.552 255.332C198.605 255.268 198.653 255.204 198.706 255.14V255.134C199.021 254.74 199.324 254.345 199.628 253.939C199.708 253.833 199.787 253.721 199.873 253.609C200.256 253.091 200.629 252.563 200.991 252.035V252.03C201.129 251.832 201.263 251.63 201.401 251.432C201.534 251.23 201.667 251.027 201.8 250.824C201.934 250.611 202.072 250.403 202.205 250.189L202.221 250.157C202.354 249.955 202.487 249.741 202.615 249.533C202.716 249.363 202.818 249.197 202.919 249.032C202.983 248.92 203.052 248.808 203.116 248.69C203.141 248.654 203.164 248.617 203.185 248.578C203.334 248.317 203.483 248.056 203.632 247.794C203.808 247.49 203.978 247.181 204.149 246.871C204.213 246.743 204.282 246.615 204.351 246.487C204.378 246.445 204.399 246.402 204.42 246.359C204.5 246.21 204.58 246.055 204.655 245.901C204.735 245.751 204.815 245.597 204.894 245.442C204.969 245.293 205.049 245.138 205.123 244.983C205.182 244.866 205.235 244.748 205.294 244.631C205.298 244.621 205.303 244.613 205.31 244.604C205.336 244.546 205.363 244.492 205.384 244.439C205.391 244.431 205.396 244.422 205.4 244.412C205.459 244.295 205.512 244.172 205.571 244.055C205.645 243.9 205.715 243.74 205.789 243.585C205.837 243.479 205.89 243.367 205.938 243.255C206.007 243.1 206.082 242.945 206.146 242.785C206.22 242.625 206.29 242.465 206.359 242.3C206.379 242.26 206.397 242.219 206.412 242.177C206.449 242.103 206.476 242.028 206.508 241.953C206.593 241.756 206.678 241.553 206.758 241.356C206.854 241.132 206.945 240.902 207.03 240.678C207.115 240.47 207.195 240.257 207.275 240.043L207.307 239.969C208.548 236.695 209.489 233.315 210.119 229.871V229.865C210.474 227.899 210.728 225.916 210.88 223.923C210.885 223.811 210.896 223.704 210.901 223.598C210.997 222.248 211.04 220.893 211.04 219.533C211.04 218.93 211.029 218.333 211.013 217.735C210.641 205.24 206.193 193.211 198.35 183.488C198.179 183.275 198.009 183.062 197.833 182.848C197.657 182.635 197.476 182.427 197.301 182.219C191.463 175.371 184.1 169.992 175.807 166.517C167.513 163.042 158.52 161.568 149.554 162.213C140.587 162.858 131.897 165.605 124.184 170.232C116.471 174.858 109.952 181.236 105.151 188.849C104.89 189.265 104.629 189.687 104.379 190.108C104.124 190.535 103.879 190.962 103.634 191.394C98.8092 199.984 96.2815 209.677 96.2953 219.533Z" fill="#F2F2F2"/>
<path d="M151.39 181.943C160.824 184.368 170.492 185.766 180.225 186.112C181.697 186.192 183.173 186.182 184.643 186.082C187.875 185.81 190.644 184.792 193.727 184.236C195.209 183.97 196.86 183.775 198.352 183.487C198.008 183.058 197.657 182.635 197.299 182.217C194.082 182.489 190.814 183.381 187.558 183.795C182.022 184.5 175.82 183.713 171.624 181.773C169.588 180.831 168.029 179.656 166 178.71C165.724 178.568 165.425 178.476 165.117 178.439C164.532 178.422 163.955 178.572 163.452 178.872C160.048 180.593 155.107 181.992 150.52 181.222C150.178 181.49 150.828 181.796 151.39 181.943Z" fill="white"/>
<path d="M131.093 188C131.051 187.993 131.009 187.987 130.967 187.979C131.143 187.87 131.309 187.745 131.462 187.605L131.093 188Z" fill="white"/>
<path d="M103.635 191.396C105.55 191.549 107.476 191.664 109.412 191.739C110.884 191.818 112.359 191.808 113.83 191.709C117.062 191.435 119.83 190.419 122.913 189.863C125.739 189.354 129.173 189.109 130.967 187.98C126.33 187.176 121.526 188.812 116.744 189.421C112.877 189.898 108.956 189.704 105.154 188.848C104.625 189.682 104.118 190.531 103.635 191.396Z" fill="white"/>
<path d="M126.809 270.321C127.267 270.572 127.731 270.812 128.194 271.042C128.359 271.122 128.529 271.202 128.694 271.287C128.833 271.351 128.971 271.42 129.11 271.484C129.152 271.506 129.19 271.522 129.227 271.543C129.344 271.596 129.456 271.65 129.573 271.703C129.701 271.762 129.829 271.82 129.951 271.879C130.095 271.943 130.234 272.007 130.377 272.066C130.91 272.306 131.448 272.535 131.986 272.754C133.913 273.545 135.883 274.229 137.886 274.802C137.977 274.829 138.072 274.856 138.168 274.882C139.026 275.122 139.888 275.341 140.756 275.538C142.274 275.891 143.806 276.179 145.352 276.403H145.363C145.549 276.429 145.73 276.456 145.917 276.483C145.933 276.483 145.949 276.488 145.97 276.488C145.97 276.493 145.97 276.493 145.975 276.488C146.178 276.515 146.385 276.541 146.588 276.568C146.601 276.572 146.616 276.574 146.63 276.573C146.822 276.6 147.019 276.621 147.211 276.643C147.418 276.664 147.626 276.685 147.834 276.707C147.993 276.723 148.153 276.739 148.313 276.755C148.327 276.759 148.341 276.761 148.356 276.76C148.499 276.771 148.643 276.787 148.787 276.797H148.808C148.931 276.808 149.059 276.819 149.181 276.829C150.667 276.947 152.158 277 153.67 277C155.305 277 156.929 276.936 158.532 276.797H158.548C158.894 276.765 159.235 276.733 159.576 276.701C159.667 276.691 159.752 276.685 159.842 276.675C159.858 276.675 159.88 276.669 159.896 276.669C159.922 276.664 159.949 276.664 159.981 276.659C159.995 276.659 160.01 276.657 160.023 276.653C160.14 276.643 160.258 276.627 160.38 276.616L160.78 276.568C160.913 276.552 161.046 276.531 161.179 276.515C161.211 276.509 161.238 276.509 161.269 276.504C161.365 276.493 161.461 276.477 161.557 276.461C161.605 276.456 161.653 276.451 161.695 276.445C161.791 276.429 161.882 276.419 161.978 276.403H161.983C164.905 275.981 167.79 275.33 170.61 274.456C170.759 274.408 170.908 274.365 171.057 274.317C170.37 271.105 168.954 268.094 166.92 265.517C164.886 262.94 162.287 260.866 159.326 259.455C160.058 258.756 160.565 257.853 160.78 256.863C160.918 256.224 160.929 255.565 160.812 254.922C160.695 254.28 160.452 253.666 160.098 253.118C159.407 252.055 158.323 251.311 157.084 251.048L149.192 249.395C147.921 249.147 146.604 249.411 145.527 250.13C144.45 250.849 143.7 251.965 143.44 253.235C143.36 253.625 143.324 254.022 143.334 254.42C135.735 259.487 130.265 264.742 126.809 270.321Z" fill="#EB4628"/>
<path d="M150.112 246.272C159.193 246.272 166.555 238.898 166.555 229.802C166.555 220.706 159.193 213.332 150.112 213.332C141.032 213.332 133.67 220.706 133.67 229.802C133.67 238.898 141.032 246.272 150.112 246.272Z" fill="#FFB8B8"/>
<path d="M139.864 244.002C138.11 242.802 136.32 240.497 135.124 238.769C133.54 236.497 132.451 233.918 131.925 231.198C131.4 228.478 131.451 225.677 132.076 222.978C132.275 221.899 132.764 220.895 133.491 220.074C134.266 219.306 135.53 218.942 136.476 219.485C136.218 218.793 136.104 218.056 136.142 217.318C136.179 216.58 136.368 215.858 136.695 215.196C137.359 213.875 138.322 212.726 139.506 211.842C141.772 210.095 144.467 208.994 147.306 208.658C150.146 208.321 153.023 208.76 155.633 209.93C156.66 210.406 154.973 206.724 156.048 207.079C157.116 207.494 158.303 207.473 159.356 207.021C160.367 206.511 163.719 209.541 163.331 208.475C164.098 208.824 164.765 209.362 165.269 210.039C165.773 210.715 166.097 211.508 166.213 212.345C166.328 213.181 166.231 214.032 165.929 214.821C165.627 215.609 165.131 216.308 164.487 216.852C163.639 217.57 162.579 217.983 161.65 218.592C160.022 219.739 158.87 221.444 158.411 223.384C157.952 225.324 158.218 227.365 159.158 229.122C158.181 228.493 157.108 228.026 155.982 227.74C155.417 227.601 154.827 227.601 154.262 227.737C153.696 227.873 153.172 228.142 152.731 228.523C152.363 228.945 152.085 229.438 151.914 229.971C151.743 230.505 151.683 231.068 151.737 231.625C151.774 232.743 152.039 233.844 152.069 234.962C152.156 238.242 153.91 244.479 151.371 246.222C149.367 247.598 142.258 245.64 139.864 244.002Z" fill="#2F2E41"/>
<path d="M161.418 147.364C161.071 147.363 160.729 147.294 160.409 147.16C159.933 146.968 159.525 146.636 159.239 146.209C158.954 145.781 158.804 145.276 158.81 144.762V142.155C158.809 141.608 158.592 141.084 158.206 140.697C157.82 140.31 157.297 140.093 156.751 140.092C156.064 140.091 155.405 139.818 154.919 139.331C154.433 138.844 154.16 138.184 154.159 137.496V101.78C154.16 101.091 154.433 100.432 154.919 99.945C155.405 99.4583 156.063 99.1845 156.75 99.1837H274.88C275.567 99.1844 276.226 99.4582 276.712 99.9449C277.198 100.432 277.471 101.091 277.472 101.78V137.496C277.471 138.184 277.198 138.844 276.712 139.331C276.226 139.818 275.567 140.091 274.88 140.092H170.581C170.31 140.092 170.042 140.145 169.792 140.248C169.543 140.352 169.316 140.504 169.125 140.696L163.234 146.597C162.997 146.839 162.714 147.031 162.403 147.163C162.091 147.295 161.756 147.363 161.418 147.364Z" fill="white"/>
<path d="M161.418 147.897C161.001 147.897 160.589 147.814 160.205 147.653C159.631 147.421 159.139 147.021 158.795 146.506C158.451 145.99 158.271 145.382 158.277 144.762V142.155C158.277 141.75 158.116 141.361 157.83 141.074C157.543 140.788 157.155 140.626 156.751 140.626C155.922 140.625 155.128 140.295 154.543 139.708C153.957 139.121 153.627 138.326 153.626 137.496V101.78C153.627 100.95 153.957 100.155 154.542 99.5679C155.128 98.9812 155.922 98.6512 156.75 98.6502H274.88C275.708 98.6512 276.502 98.9812 277.088 99.5679C277.674 100.155 278.003 100.95 278.004 101.78V137.496C278.003 138.326 277.674 139.121 277.088 139.708C276.503 140.295 275.708 140.625 274.88 140.626H170.581C170.38 140.625 170.182 140.664 169.996 140.741C169.811 140.818 169.643 140.931 169.501 141.074L163.61 146.974C163.324 147.266 162.983 147.498 162.606 147.656C162.23 147.814 161.826 147.897 161.418 147.897ZM156.75 99.7171C156.205 99.7177 155.681 99.9353 155.295 100.322C154.909 100.709 154.692 101.233 154.692 101.78V137.496C154.692 138.043 154.909 138.567 155.295 138.954C155.681 139.341 156.205 139.558 156.751 139.559C157.438 139.56 158.096 139.834 158.582 140.32C159.068 140.807 159.341 141.467 159.342 142.155V144.762C159.342 145.17 159.463 145.569 159.689 145.908C159.916 146.247 160.237 146.511 160.613 146.667C160.99 146.823 161.404 146.864 161.803 146.784C162.202 146.705 162.569 146.508 162.857 146.22L168.748 140.319C168.988 140.077 169.274 139.886 169.588 139.755C169.903 139.625 170.24 139.558 170.581 139.559H274.88C275.426 139.558 275.95 139.341 276.336 138.954C276.722 138.567 276.939 138.043 276.939 137.496V101.78C276.939 101.233 276.722 100.709 276.335 100.322C275.949 99.9352 275.426 99.7177 274.88 99.7171L156.75 99.7171Z" fill="#3F3D56"/>
<path d="M264.729 115.354H168.938C168.572 115.354 168.221 115.208 167.963 114.949C167.704 114.69 167.558 114.338 167.558 113.971C167.558 113.605 167.704 113.253 167.963 112.994C168.221 112.735 168.572 112.589 168.938 112.589H264.729C265.095 112.589 265.446 112.735 265.705 112.994C265.963 113.253 266.109 113.605 266.109 113.971C266.109 114.338 265.963 114.69 265.705 114.949C265.446 115.208 265.095 115.354 264.729 115.354Z" fill="#EB4628"/>
<path d="M264.553 121.225H168.938C168.572 121.225 168.221 121.079 167.963 120.82C167.704 120.561 167.558 120.209 167.558 119.843C167.558 119.476 167.704 119.125 167.963 118.866C168.221 118.606 168.572 118.461 168.938 118.461H264.553C264.919 118.461 265.27 118.606 265.529 118.866C265.787 119.125 265.933 119.476 265.933 119.843C265.933 120.209 265.787 120.561 265.529 120.82C265.27 121.079 264.919 121.225 264.553 121.225Z" fill="#E6E6E6"/>
<path d="M264.458 127.096H168.938C168.572 127.096 168.221 126.951 167.963 126.691C167.704 126.432 167.558 126.081 167.558 125.714C167.558 125.348 167.704 124.996 167.963 124.737C168.221 124.478 168.572 124.332 168.938 124.332H264.458C264.824 124.332 265.175 124.478 265.433 124.737C265.692 124.996 265.837 125.348 265.837 125.714C265.837 126.081 265.692 126.432 265.433 126.691C265.175 126.951 264.824 127.096 264.458 127.096Z" fill="#E6E6E6"/>
<path d="M415.58 93.6411C415.58 94.9374 415.537 96.2336 415.447 97.5192C415.351 99.0555 415.186 100.581 414.962 102.096C414.21 107.197 412.774 112.173 410.691 116.888C410.585 117.123 410.478 117.358 410.372 117.593L410.212 117.945C410.159 118.062 410.1 118.179 410.047 118.291C409.972 118.446 409.903 118.595 409.828 118.745C409.738 118.931 409.647 119.118 409.552 119.305C409.541 119.326 409.53 119.353 409.514 119.38C409.434 119.54 409.36 119.694 409.275 119.854C409.259 119.889 409.241 119.923 409.221 119.956C409.131 120.137 409.035 120.324 408.939 120.505C408.833 120.697 408.731 120.895 408.625 121.087C408.369 121.561 408.103 122.031 407.831 122.5C407.752 122.639 407.672 122.778 407.587 122.916C407.512 123.044 407.437 123.172 407.358 123.3C407.304 123.386 407.251 123.476 407.198 123.562C407.113 123.706 407.027 123.844 406.937 123.988C406.74 124.303 406.537 124.618 406.34 124.933H406.335C406.245 125.077 406.149 125.221 406.053 125.359V125.365C405.771 125.791 405.478 126.218 405.185 126.64C405.184 126.64 405.183 126.64 405.183 126.64C405.182 126.64 405.181 126.641 405.181 126.641C405.18 126.642 405.18 126.642 405.18 126.643C405.18 126.644 405.179 126.644 405.179 126.645C404.945 126.986 404.7 127.317 404.461 127.648V127.653C404.301 127.861 404.146 128.075 403.987 128.283C403.859 128.453 403.726 128.629 403.593 128.8C403.566 128.837 403.534 128.869 403.507 128.907V128.912C403.47 128.96 403.433 129.003 403.395 129.051C402.831 129.776 402.249 130.486 401.649 131.179L401.553 131.291C401.521 131.329 401.484 131.366 401.452 131.409C401.398 131.467 401.351 131.526 401.297 131.585C401.249 131.643 401.196 131.702 401.143 131.761C398.015 135.29 394.469 138.423 390.583 141.09C390.066 141.448 389.539 141.795 389.012 142.131C388.879 142.216 388.746 142.301 388.612 142.381C388.575 142.408 388.533 142.435 388.495 142.461C388.421 142.504 388.351 142.547 388.277 142.595C388.208 142.637 388.138 142.68 388.064 142.723C387.782 142.899 387.494 143.07 387.207 143.24C387.137 143.283 387.063 143.326 386.988 143.368C386.919 143.406 386.844 143.448 386.77 143.491C386.77 143.496 386.77 143.496 386.765 143.496H386.759V143.502H386.754C386.397 143.71 386.035 143.912 385.667 144.11C385.47 144.216 385.268 144.328 385.066 144.43C384.608 144.681 384.144 144.921 383.681 145.15C383.516 145.23 383.346 145.31 383.181 145.395C383.042 145.459 382.904 145.529 382.765 145.593C382.723 145.614 382.685 145.63 382.648 145.651C382.531 145.705 382.419 145.758 382.302 145.811C382.174 145.87 382.046 145.929 381.924 145.987C381.78 146.051 381.642 146.115 381.498 146.174C380.965 146.414 380.427 146.644 379.89 146.862C377.962 147.654 375.992 148.338 373.989 148.911C373.899 148.937 373.803 148.964 373.707 148.991C372.849 149.231 371.987 149.449 371.119 149.647C369.601 149.999 368.069 150.287 366.523 150.511H366.512C366.326 150.538 366.145 150.564 365.958 150.591C365.942 150.591 365.927 150.596 365.905 150.596C365.905 150.602 365.905 150.602 365.9 150.596C365.698 150.623 365.49 150.65 365.288 150.676C365.274 150.68 365.259 150.682 365.245 150.682C365.053 150.708 364.856 150.73 364.664 150.751C364.457 150.772 364.249 150.794 364.041 150.815C363.882 150.831 363.722 150.847 363.562 150.863C363.548 150.868 363.534 150.87 363.519 150.868C363.376 150.879 363.232 150.895 363.088 150.906H363.067C362.944 150.916 362.817 150.927 362.694 150.938C361.208 151.055 359.717 151.108 358.205 151.108C356.57 151.108 354.946 151.044 353.343 150.906H353.327C352.981 150.874 352.64 150.842 352.299 150.81C352.209 150.799 352.123 150.794 352.033 150.783C352.017 150.783 351.995 150.778 351.98 150.778C351.953 150.772 351.926 150.772 351.894 150.767C351.88 150.768 351.866 150.766 351.852 150.762C351.735 150.751 351.617 150.735 351.495 150.724L351.096 150.676C350.962 150.66 350.829 150.639 350.696 150.623C350.664 150.618 350.638 150.618 350.606 150.612C350.51 150.602 350.414 150.586 350.318 150.57C350.27 150.564 350.222 150.559 350.18 150.554C350.084 150.538 349.993 150.527 349.897 150.511H349.892C346.97 150.09 344.085 149.439 341.265 148.564C341.116 148.516 340.967 148.473 340.818 148.425C340.812 148.425 340.807 148.42 340.802 148.42C340.759 148.404 340.711 148.393 340.669 148.377C340.269 148.249 339.875 148.116 339.481 147.977C338.938 147.796 338.4 147.598 337.862 147.396C337.718 147.337 337.575 147.284 337.431 147.225C337.138 147.113 336.85 146.996 336.563 146.878C336.073 146.681 335.583 146.473 335.098 146.26C334.646 146.057 334.198 145.854 333.751 145.641C333.74 145.635 333.724 145.635 333.714 145.625C333.613 145.577 333.511 145.529 333.415 145.481H333.41C330.958 144.302 328.593 142.949 326.333 141.432C325.609 140.946 324.895 140.445 324.192 139.928C323.628 139.506 323.074 139.079 322.52 138.642C319.788 136.465 317.258 134.044 314.963 131.409V131.403C314.798 131.222 314.644 131.035 314.484 130.848C314.457 130.822 314.436 130.795 314.415 130.774C314.314 130.651 314.218 130.534 314.117 130.416V130.411C313.983 130.256 313.85 130.096 313.722 129.936C313.691 129.899 313.664 129.867 313.637 129.835V129.83C313.531 129.702 313.43 129.574 313.323 129.44C313.27 129.376 313.222 129.312 313.169 129.248V129.243C312.854 128.848 312.551 128.453 312.247 128.048C312.167 127.941 312.088 127.829 312.002 127.717C311.619 127.2 311.246 126.672 310.884 126.144V126.138C310.746 125.941 310.612 125.738 310.474 125.541C310.341 125.338 310.208 125.135 310.075 124.933C309.941 124.719 309.803 124.511 309.67 124.298L309.654 124.266C309.521 124.063 309.388 123.85 309.26 123.642C309.159 123.471 309.057 123.306 308.956 123.14C308.892 123.028 308.823 122.916 308.759 122.799C308.734 122.763 308.711 122.725 308.69 122.687C308.541 122.426 308.392 122.164 308.243 121.903C308.067 121.599 307.897 121.289 307.726 120.98C307.662 120.852 307.593 120.724 307.524 120.596C307.497 120.553 307.476 120.51 307.455 120.468C307.375 120.318 307.295 120.164 307.22 120.009C307.14 119.86 307.06 119.705 306.981 119.55C306.906 119.401 306.826 119.246 306.752 119.092C306.693 118.974 306.64 118.857 306.581 118.739C306.577 118.73 306.572 118.721 306.565 118.713C306.539 118.654 306.512 118.601 306.491 118.547C306.484 118.539 306.479 118.53 306.475 118.521C306.416 118.403 306.363 118.281 306.304 118.163C306.23 118.009 306.161 117.849 306.086 117.694C306.038 117.587 305.985 117.475 305.937 117.363C305.868 117.208 305.793 117.054 305.729 116.894C305.655 116.734 305.585 116.574 305.516 116.408C305.496 116.368 305.478 116.327 305.463 116.286C305.426 116.211 305.399 116.136 305.367 116.062C305.282 115.864 305.197 115.662 305.117 115.464C305.021 115.24 304.93 115.011 304.845 114.787C304.76 114.579 304.68 114.365 304.6 114.152L304.568 114.077C303.327 110.804 302.386 107.424 301.756 103.979V103.974C301.401 102.007 301.147 100.024 300.995 98.0314C300.99 97.9193 300.979 97.8127 300.974 97.706C300.878 96.3564 300.835 95.0014 300.835 93.6412C300.835 93.0384 300.846 92.4409 300.862 91.8435C301.234 79.3484 305.682 67.3194 313.525 57.5967C313.696 57.3833 313.866 57.1699 314.042 56.9566C314.218 56.7432 314.399 56.5352 314.575 56.3271C320.412 49.4789 327.775 44.1005 336.068 40.6256C344.362 37.1506 353.355 35.6763 362.321 36.3216C371.288 36.9668 379.978 39.7134 387.691 44.3401C395.404 48.9668 401.923 55.3441 406.724 62.9578C406.985 63.3738 407.246 63.7953 407.496 64.2167C407.752 64.6435 407.997 65.0702 408.241 65.5023C413.066 74.0924 415.594 83.785 415.58 93.6411Z" fill="#F2F2F2"/>
<path d="M360.485 56.0516C351.051 58.4765 341.383 59.8743 331.65 60.2206C330.178 60.301 328.702 60.2909 327.232 60.1905C324 59.9182 321.231 58.9007 318.148 58.3447C316.666 58.0781 315.015 57.8832 313.523 57.5951C313.868 57.1666 314.218 56.7434 314.576 56.3254C317.793 56.5977 321.061 57.4891 324.317 57.9033C329.853 58.6084 336.055 57.8216 340.251 55.8811C342.287 54.9395 343.846 53.7644 345.875 52.8185C346.151 52.6766 346.45 52.5849 346.758 52.5476C347.343 52.5301 347.92 52.6802 348.423 52.9804C351.827 54.7016 356.768 56.1004 361.355 55.3308C361.697 55.5988 361.047 55.904 360.485 56.0516Z" fill="white"/>
<path d="M380.783 62.1088C380.824 62.1012 380.866 62.0952 380.908 62.0879C380.732 61.9785 380.566 61.8533 380.413 61.7138L380.783 62.1088Z" fill="white"/>
<path d="M408.24 65.5046C406.325 65.6579 404.399 65.7721 402.463 65.8471C400.991 65.9267 399.516 65.9167 398.045 65.817C394.813 65.5433 392.045 64.5272 388.962 63.9711C386.136 63.4624 382.703 63.2173 380.908 62.088C385.545 61.284 390.35 62.9207 395.131 63.5297C398.999 64.0061 402.919 63.8122 406.721 62.9565C407.25 63.7906 407.757 64.6399 408.24 65.5046Z" fill="white"/>
<path d="M351.737 118.788C361.254 118.788 368.969 110.888 368.969 101.142C368.969 91.3966 361.254 83.4962 351.737 83.4962C342.22 83.4962 334.505 91.3966 334.505 101.142C334.505 110.888 342.22 118.788 351.737 118.788Z" fill="#FFB6B6"/>
<path d="M385.066 144.43C384.608 144.681 384.144 144.921 383.681 145.15C383.516 145.23 383.346 145.31 383.181 145.395C383.042 145.459 382.904 145.529 382.765 145.593C382.723 145.614 382.685 145.63 382.648 145.651C382.531 145.705 382.419 145.758 382.302 145.811C382.174 145.87 382.046 145.929 381.924 145.987C381.78 146.051 381.642 146.116 381.498 146.174C380.965 146.414 380.427 146.644 379.89 146.862C377.962 147.654 375.992 148.338 373.989 148.911C373.899 148.937 373.803 148.964 373.707 148.991C372.849 149.231 371.987 149.45 371.119 149.647C369.601 149.999 368.069 150.287 366.523 150.511H366.512C366.326 150.538 366.145 150.564 365.959 150.591C365.943 150.591 365.927 150.596 365.905 150.596C365.905 150.602 365.905 150.602 365.9 150.596C365.698 150.623 365.49 150.65 365.288 150.676C365.274 150.681 365.259 150.682 365.245 150.682C365.053 150.708 364.856 150.73 364.664 150.751C364.457 150.772 364.249 150.794 364.041 150.815C363.882 150.831 363.722 150.847 363.562 150.863C363.548 150.868 363.534 150.87 363.52 150.868C363.376 150.879 363.232 150.895 363.088 150.906H363.067C362.944 150.916 362.817 150.927 362.694 150.938C361.208 151.055 359.717 151.109 358.205 151.109C356.57 151.109 354.946 151.044 353.343 150.906H353.327C352.981 150.874 352.64 150.842 352.299 150.81C352.209 150.799 352.123 150.794 352.033 150.783C352.017 150.783 351.996 150.778 351.98 150.778C351.953 150.772 351.926 150.772 351.894 150.767C351.88 150.768 351.866 150.766 351.852 150.762C351.735 150.751 351.617 150.735 351.495 150.724L351.096 150.676C350.962 150.66 350.829 150.639 350.696 150.623C350.664 150.618 350.638 150.618 350.606 150.612C350.51 150.602 350.414 150.586 350.318 150.57C350.27 150.564 350.222 150.559 350.18 150.554C350.084 150.538 349.993 150.527 349.897 150.511H349.892C346.97 150.09 344.085 149.439 341.265 148.564C341.116 148.516 340.967 148.473 340.818 148.425C341.505 145.213 342.921 142.202 344.955 139.625C346.989 137.049 349.588 134.975 352.549 133.564C351.817 132.865 351.31 131.962 351.096 130.971C350.957 130.333 350.946 129.673 351.063 129.031C351.18 128.388 351.423 127.775 351.777 127.226C352.468 126.164 353.552 125.419 354.791 125.157L362.683 123.503C363.954 123.255 365.271 123.519 366.348 124.238C367.425 124.958 368.175 126.074 368.435 127.344C368.515 127.733 368.551 128.131 368.541 128.528C376.141 133.596 381.61 138.85 385.066 144.43Z" fill="#EB4628"/>
<path d="M397.848 93.4892C394.919 90.0677 393.526 85.5281 391.185 81.6427C388.843 77.7573 384.768 74.2799 380.464 75.1841C377.496 75.8074 375.203 78.4304 374.042 81.3547C372.881 84.2791 372.663 87.504 372.46 90.6633C372.532 84.1707 368.262 77.8766 362.379 75.8049C356.497 73.7332 349.458 76.0441 345.762 81.2601C344.149 79.7626 342.043 78.9099 339.844 78.8636C337.646 78.8174 335.506 79.5808 333.832 81.0093C330.526 83.9692 329.794 89.6029 332.226 93.3783C334.657 97.1538 339.923 98.5602 343.787 96.4663L345.153 97.7251C344.384 100.419 345.875 103.601 348.382 104.615C350.414 105.438 353.284 105.301 354.044 107.437C354.576 108.93 353.582 110.524 352.526 111.671C351.469 112.819 350.214 114.003 350.087 115.591C349.896 117.986 352.367 119.664 354.613 120.17C360.03 121.388 366.04 118.876 369.162 114.087C369.222 113.995 369.287 113.902 369.358 113.81C371.11 111.566 372.386 108.988 373.11 106.234C373.833 103.479 373.988 100.605 373.565 97.7888C373.39 96.6821 373.567 95.8589 374.328 95.5968C377.621 94.464 386.845 96.8416 389.637 98.9905C392.429 101.139 394.664 103.983 397.353 106.271C400.042 108.558 403.469 110.323 406.884 109.7C409.618 109.201 411.944 107.212 413.509 104.814C415.074 102.415 415.974 99.6189 416.781 96.8402C410.734 100.339 402.458 98.8746 397.848 93.4892Z" fill="#2F2E41"/>
<path d="M44.1072 57.9007C44.1072 59.197 44.1498 60.4932 44.2403 61.7788C44.3362 63.3151 44.5012 64.8408 44.7249 66.3557C45.4766 71.4568 46.9132 76.4326 48.9958 81.148C49.1023 81.3827 49.2088 81.6174 49.3153 81.8521L49.4751 82.2042C49.5283 82.3216 49.5869 82.4389 49.6402 82.5509C49.7147 82.7056 49.784 82.855 49.8585 83.0044C49.949 83.1911 50.0396 83.3778 50.1354 83.5645C50.1461 83.5858 50.1567 83.6125 50.1727 83.6392C50.2526 83.7992 50.3271 83.9539 50.4123 84.1139C50.428 84.1488 50.4458 84.1826 50.4656 84.2153C50.5561 84.3966 50.652 84.5833 50.7478 84.7647C50.8543 84.9568 50.9555 85.1541 51.062 85.3461C51.3176 85.8209 51.5839 86.2903 51.8555 86.7598C51.9354 86.8985 52.0153 87.0372 52.1005 87.1759C52.175 87.3039 52.2496 87.4319 52.3295 87.5599C52.3827 87.6453 52.436 87.736 52.4892 87.8213C52.5744 87.9653 52.6596 88.104 52.7501 88.2481C52.9472 88.5628 53.1495 88.8775 53.3466 89.1923H53.3519C53.4424 89.3363 53.5383 89.4803 53.6342 89.619V89.6243C53.9164 90.0511 54.2093 90.4778 54.5022 90.8992C54.5029 90.8992 54.5036 90.8993 54.5042 90.8996C54.5049 90.8999 54.5055 90.9003 54.506 90.9008C54.5065 90.9013 54.5069 90.9019 54.5071 90.9025C54.5074 90.9032 54.5075 90.9039 54.5075 90.9046C54.7418 91.246 54.9868 91.5767 55.2264 91.9074V91.9128C55.3862 92.1208 55.5406 92.3342 55.7004 92.5422C55.8282 92.7129 55.9613 92.889 56.0944 93.0597C56.1211 93.097 56.153 93.129 56.1797 93.1663V93.1717C56.2169 93.2197 56.2542 93.2624 56.2915 93.3104C56.856 94.0358 57.4382 94.7453 58.0382 95.4388L58.134 95.5508C58.166 95.5882 58.2033 95.6255 58.2352 95.6682C58.2885 95.7269 58.3364 95.7855 58.3897 95.8442C58.4376 95.9029 58.4908 95.9616 58.5441 96.0202C61.6717 99.5494 65.218 102.683 69.1042 105.35C69.6208 105.707 70.148 106.054 70.6752 106.39C70.8083 106.476 70.9414 106.561 71.0746 106.641C71.1118 106.668 71.1544 106.694 71.1917 106.721C71.2663 106.764 71.3355 106.806 71.4101 106.854C71.4793 106.897 71.5485 106.94 71.6231 106.982C71.9053 107.158 72.1929 107.329 72.4804 107.5C72.5497 107.543 72.6242 107.585 72.6988 107.628C72.768 107.665 72.8426 107.708 72.9171 107.751C72.9171 107.756 72.9171 107.756 72.9224 107.756H72.9278V107.761H72.9331C73.2899 107.969 73.652 108.172 74.0195 108.369C74.2165 108.476 74.4189 108.588 74.6212 108.689C75.0792 108.94 75.5425 109.18 76.0058 109.41C76.1709 109.49 76.3413 109.57 76.5064 109.655C76.6448 109.719 76.7833 109.788 76.9218 109.852C76.9644 109.874 77.0016 109.89 77.0389 109.911C77.1561 109.964 77.2679 110.018 77.3851 110.071C77.5129 110.13 77.6407 110.188 77.7632 110.247C77.9069 110.311 78.0454 110.375 78.1892 110.434C78.7217 110.674 79.2596 110.903 79.7974 111.122C81.725 111.913 83.6948 112.597 85.6979 113.17C85.7884 113.197 85.8843 113.224 85.9801 113.25C86.8375 113.49 87.7002 113.709 88.5683 113.906C90.086 114.259 91.6179 114.547 93.164 114.771H93.1746C93.361 114.797 93.5421 114.824 93.7285 114.851C93.7445 114.851 93.7604 114.856 93.7817 114.856C93.7817 114.861 93.7817 114.861 93.7871 114.856C93.9894 114.883 94.1971 114.909 94.3995 114.936C94.4133 114.94 94.4277 114.942 94.4421 114.941C94.6338 114.968 94.8308 114.989 95.0225 115.011C95.2302 115.032 95.4379 115.053 95.6456 115.075C95.8053 115.091 95.9651 115.107 96.1249 115.123C96.1385 115.127 96.1531 115.129 96.1675 115.128C96.3113 115.139 96.455 115.155 96.5988 115.165H96.6201C96.7426 115.176 96.8704 115.187 96.9929 115.197C98.4786 115.315 99.9697 115.368 101.482 115.368C103.117 115.368 104.741 115.304 106.344 115.165H106.36C106.706 115.133 107.047 115.101 107.388 115.069C107.478 115.059 107.564 115.053 107.654 115.043C107.67 115.043 107.691 115.037 107.707 115.037C107.734 115.032 107.761 115.032 107.793 115.027C107.807 115.027 107.821 115.025 107.835 115.021C107.952 115.011 108.07 114.995 108.192 114.984L108.591 114.936C108.725 114.92 108.858 114.899 108.991 114.883C109.023 114.877 109.049 114.877 109.081 114.872C109.177 114.861 109.273 114.845 109.369 114.829C109.417 114.824 109.465 114.819 109.507 114.813C109.603 114.797 109.694 114.787 109.79 114.771H109.795C112.717 114.349 115.602 113.698 118.422 112.824C118.571 112.776 118.72 112.733 118.869 112.685C118.875 112.685 118.88 112.68 118.885 112.68C118.928 112.664 118.976 112.653 119.018 112.637C119.418 112.509 119.812 112.376 120.206 112.237C120.749 112.055 121.287 111.858 121.825 111.655C121.969 111.597 122.112 111.543 122.256 111.485C122.549 111.373 122.837 111.255 123.124 111.138C123.614 110.941 124.104 110.733 124.589 110.519C125.041 110.316 125.489 110.114 125.936 109.9C125.947 109.895 125.963 109.895 125.973 109.884C126.074 109.836 126.176 109.788 126.271 109.74H126.277C128.729 108.561 131.094 107.208 133.354 105.692C134.078 105.206 134.792 104.705 135.495 104.187C136.059 103.766 136.613 103.339 137.167 102.902C139.899 100.725 142.429 98.3035 144.724 95.6682V95.6629C144.889 95.4815 145.043 95.2948 145.203 95.1081C145.23 95.0814 145.251 95.0548 145.272 95.0334C145.373 94.9107 145.469 94.7934 145.57 94.676V94.6707C145.704 94.516 145.837 94.3559 145.964 94.1959C145.996 94.1586 146.023 94.1266 146.05 94.0946V94.0892C146.156 93.9612 146.257 93.8332 146.364 93.6998C146.417 93.6358 146.465 93.5718 146.518 93.5078V93.5024C146.833 93.1077 147.136 92.7129 147.44 92.3075C147.519 92.2008 147.599 92.0888 147.685 91.9768C148.068 91.4594 148.441 90.9313 148.803 90.4032V90.3978C148.941 90.2005 149.074 89.9978 149.213 89.8004C149.346 89.5977 149.479 89.395 149.612 89.1923C149.745 88.9789 149.884 88.7709 150.017 88.5575L150.033 88.5255C150.166 88.3228 150.299 88.1094 150.427 87.9013C150.528 87.7306 150.629 87.5653 150.731 87.3999C150.795 87.2879 150.864 87.1759 150.928 87.0585C150.953 87.0224 150.976 86.985 150.997 86.9465C151.146 86.6851 151.295 86.4237 151.444 86.1623C151.62 85.8583 151.79 85.5489 151.961 85.2395C152.025 85.1115 152.094 84.9835 152.163 84.8554C152.19 84.8128 152.211 84.7701 152.232 84.7274C152.312 84.578 152.392 84.4234 152.467 84.2686C152.547 84.1193 152.626 83.9646 152.706 83.8099C152.781 83.6605 152.861 83.5058 152.935 83.3511C152.994 83.2338 153.047 83.1164 153.106 82.9991C153.11 82.9895 153.115 82.9805 153.122 82.9724C153.148 82.9137 153.175 82.8604 153.196 82.807C153.203 82.7989 153.208 82.7899 153.212 82.7803C153.271 82.663 153.324 82.5403 153.383 82.4229C153.457 82.2683 153.526 82.1082 153.601 81.9535C153.649 81.8468 153.702 81.7348 153.75 81.6228C153.819 81.4681 153.894 81.3134 153.958 81.1534C154.032 80.9933 154.102 80.8333 154.171 80.6679C154.191 80.628 154.209 80.5871 154.224 80.5452C154.261 80.4706 154.288 80.3959 154.32 80.3212C154.405 80.1238 154.49 79.9211 154.57 79.7238C154.666 79.4997 154.757 79.2703 154.842 79.0463C154.927 78.8382 155.007 78.6249 155.087 78.4115L155.119 78.3368C156.359 75.0631 157.301 71.6832 157.93 68.2388V68.2335C158.286 66.267 158.54 64.2835 158.692 62.291C158.697 62.1789 158.708 62.0723 158.713 61.9656C158.809 60.616 158.852 59.261 158.852 57.9008C158.852 57.298 158.841 56.7005 158.825 56.1031C158.453 43.608 154.005 31.579 146.162 21.8563C145.991 21.6429 145.821 21.4296 145.645 21.2162C145.469 21.0028 145.288 20.7948 145.112 20.5867C139.275 13.7385 131.912 8.36015 123.619 4.8852C115.325 1.41025 106.332 -0.0640379 97.3655 0.581172C88.3987 1.22638 79.7087 3.97303 71.996 8.59972C64.2834 13.2264 57.7639 19.6037 52.9632 27.2174C52.7022 27.6334 52.4413 28.0549 52.191 28.4763C51.9354 28.9031 51.6904 29.3298 51.4455 29.7619C46.6211 38.352 44.0933 48.0446 44.1072 57.9007Z" fill="#F2F2F2"/>
<path d="M99.2017 20.3113C108.636 22.7361 118.304 24.1339 128.037 24.4802C129.509 24.5606 130.985 24.5505 132.455 24.4501C135.687 24.1779 138.456 23.1603 141.539 22.6043C143.021 22.3377 144.672 22.1428 146.164 21.8547C145.819 21.4262 145.468 21.003 145.111 20.585C141.894 20.8573 138.626 21.7487 135.37 22.1629C129.834 22.868 123.632 22.0812 119.436 20.1407C117.4 19.1991 115.841 18.024 113.812 17.0781C113.536 16.9362 113.237 16.8445 112.929 16.8073C112.344 16.7897 111.767 16.9398 111.264 17.2401C107.86 18.9612 102.919 20.36 98.3319 19.5904C97.9899 19.8584 98.6395 20.1636 99.2017 20.3113Z" fill="white"/>
<path d="M78.9045 26.3684C78.8626 26.3607 78.8206 26.3548 78.7787 26.3475C78.9549 26.2381 79.1208 26.1129 79.2744 25.9734L78.9045 26.3684Z" fill="white"/>
<path d="M51.4466 29.7642C53.3623 29.9175 55.288 30.0317 57.2237 30.1067C58.6956 30.1863 60.171 30.1763 61.6417 30.0766C64.8737 29.8029 67.6421 28.7868 70.7252 28.2307C73.5508 27.722 76.9845 27.4769 78.7786 26.3476C74.1417 25.5436 69.3374 27.1803 64.556 27.7893C60.6885 28.2657 56.7679 28.0718 52.966 27.2161C52.4366 28.0502 51.9302 28.8996 51.4466 29.7642Z" fill="white"/>
<path d="M74.6212 108.689C75.0792 108.94 75.5425 109.18 76.0058 109.41C76.1709 109.49 76.3413 109.57 76.5064 109.655C76.6448 109.719 76.7833 109.788 76.9218 109.852C76.9644 109.874 77.0016 109.89 77.0389 109.911C77.1561 109.964 77.2679 110.018 77.3851 110.071C77.5129 110.13 77.6407 110.188 77.7632 110.247C77.9069 110.311 78.0454 110.375 78.1892 110.434C78.7217 110.674 79.2596 110.903 79.7974 111.122C81.7249 111.913 83.6948 112.597 85.6979 113.17C85.7884 113.197 85.8843 113.224 85.9801 113.25C86.8375 113.49 87.7002 113.709 88.5682 113.906C90.086 114.259 91.6179 114.547 93.164 114.771H93.1746C93.361 114.797 93.5421 114.824 93.7285 114.851C93.7445 114.851 93.7604 114.856 93.7817 114.856C93.7817 114.861 93.7817 114.861 93.787 114.856C93.9894 114.883 94.1971 114.909 94.3995 114.936C94.4133 114.94 94.4277 114.942 94.4421 114.941C94.6338 114.968 94.8308 114.989 95.0225 115.011C95.2302 115.032 95.4379 115.053 95.6456 115.075C95.8054 115.091 95.9651 115.107 96.1249 115.123C96.1385 115.127 96.153 115.129 96.1675 115.128C96.3112 115.139 96.455 115.155 96.5988 115.165H96.6201C96.7426 115.176 96.8704 115.187 96.9929 115.197C98.4787 115.315 99.9697 115.368 101.482 115.368C103.117 115.368 104.741 115.304 106.344 115.165H106.36C106.706 115.133 107.047 115.101 107.388 115.069C107.478 115.059 107.564 115.053 107.654 115.043C107.67 115.043 107.691 115.037 107.707 115.037C107.734 115.032 107.761 115.032 107.793 115.027C107.807 115.027 107.821 115.025 107.835 115.021C107.952 115.011 108.07 114.995 108.192 114.984L108.591 114.936C108.725 114.92 108.858 114.899 108.991 114.883C109.023 114.877 109.049 114.877 109.081 114.872C109.177 114.861 109.273 114.845 109.369 114.829C109.417 114.824 109.465 114.819 109.507 114.813C109.603 114.797 109.694 114.787 109.79 114.771H109.795C112.717 114.349 115.602 113.698 118.422 112.824C118.571 112.776 118.72 112.733 118.869 112.685C118.182 109.473 116.766 106.462 114.732 103.885C112.698 101.308 110.099 99.2342 107.138 97.8234C107.87 97.1243 108.377 96.2212 108.591 95.2308C108.73 94.5924 108.741 93.933 108.624 93.2903C108.507 92.6477 108.264 92.0345 107.91 91.4861C107.219 90.4232 106.135 89.6787 104.896 89.4164L97.0035 87.7627C95.7331 87.5146 94.4162 87.7789 93.3392 88.4981C92.2622 89.2173 91.5122 90.3333 91.2522 91.6035C91.1717 91.9928 91.136 92.3902 91.1457 92.7877C83.5465 97.8553 78.0773 103.11 74.6212 108.689Z" fill="#EB4628"/>
<path d="M105.843 82.4263C116.452 82.4263 125.053 73.811 125.053 63.1835C125.053 52.5559 116.452 43.9406 105.843 43.9406C95.2333 43.9406 86.6327 52.5559 86.6327 63.1835C86.6327 73.811 95.2333 82.4263 105.843 82.4263Z" fill="#9E616A"/>
<path d="M103.113 81.3978C98.3037 82.6988 93.0017 80.969 89.2486 77.6878C85.4954 74.4066 83.1477 69.7572 81.7949 64.9546C80.8042 61.4374 80.3345 57.5331 81.8979 54.231C83.4613 50.929 87.669 48.7012 90.9152 50.3692C88.9127 48.032 89.9131 44.1665 92.252 42.1671C94.5908 40.1678 97.8025 39.5946 100.861 39.2812C105.3 38.8265 109.886 38.7756 114.11 40.2162C118.334 41.6568 122.172 44.8064 123.494 49.0756C124.845 49.7053 126.365 49.8687 127.818 49.5401C129.271 49.2115 130.574 48.4096 131.523 47.2598C131.768 48.5803 131.571 49.9448 130.964 51.1422C130.356 52.3396 129.372 53.303 128.163 53.8836L134.635 51.7816C135.748 54.1417 133.798 57.0627 131.304 57.8185C128.81 58.5742 126.117 57.7481 123.75 56.6562C121.384 55.5644 119.09 54.1839 116.519 53.7581C113.948 53.3322 110.928 54.1597 109.739 56.4823C109.116 57.6987 109.084 59.1234 108.722 60.4417C108.361 61.76 107.445 63.1267 106.084 63.2346C105.224 63.3028 104.383 62.8442 103.526 62.9379C103 63.0417 102.515 63.2969 102.132 63.6722C101.748 64.0475 101.482 64.5267 101.367 65.0511C101.153 66.1034 101.15 67.1877 101.359 68.2411L103.003 80.8291L103.113 81.3978Z" fill="#2F2E41"/>
</svg>
