<svg width="375" height="249" viewBox="0 0 375 249" fill="none" xmlns="http://www.w3.org/2000/svg">
<g clip-path="url(#clip0_1_4299)">
<path d="M134.513 143.302C147.364 120.714 171.878 103.371 197.828 105.041C178.687 125.839 167.525 152.732 166.317 180.961C165.891 191.849 166.552 204.004 159.316 212.157C154.814 217.23 147.933 219.687 141.166 220.203C134.4 220.718 127.635 219.496 120.959 218.28L119.339 218.777C118.723 192.802 121.661 165.889 134.513 143.302Z" fill="#F0F0F0"/>
<path d="M197.867 105.585C178.677 114.815 162.314 130.231 152.269 149.031C150.098 153.095 148.249 157.407 147.442 161.967C146.636 166.528 147.199 170.87 148.758 175.202C150.184 179.162 152.101 183.048 152.538 187.286C152.999 191.753 151.354 195.929 148.393 199.244C144.77 203.3 139.905 205.813 135.062 208.105C129.684 210.651 124.058 213.209 120.249 217.96C119.788 218.535 118.921 217.786 119.382 217.212C126.008 208.947 137.352 207.393 145.218 200.735C148.888 197.628 151.644 193.398 151.47 188.44C151.318 184.105 149.344 180.096 147.866 176.099C146.314 171.901 145.54 167.681 146.097 163.205C146.666 158.628 148.35 154.234 150.408 150.132C155.05 140.881 161.402 132.387 168.679 125.045C177.042 116.605 186.788 109.657 197.496 104.502C198.159 104.183 198.525 105.269 197.867 105.585Z" fill="white"/>
<path d="M155.212 142.748C152.27 140.599 150.188 137.474 149.339 133.933C148.49 130.392 148.928 126.665 150.575 123.417C150.911 122.761 151.947 123.251 151.611 123.908C150.071 126.93 149.664 130.402 150.461 133.698C151.259 136.993 153.209 139.896 155.961 141.881C156.558 142.313 155.806 143.177 155.212 142.748Z" fill="white"/>
<path d="M147.771 173.289C155.143 172.213 161.837 168.4 166.52 162.611C166.984 162.037 167.851 162.786 167.388 163.359C162.503 169.374 155.528 173.328 147.855 174.431C147.123 174.535 147.043 173.393 147.771 173.289Z" fill="white"/>
<path d="M177.608 118.015C178.573 119.083 179.788 119.896 181.145 120.379C182.501 120.862 183.957 121.001 185.381 120.783C186.111 120.67 186.19 121.812 185.465 121.925C183.891 122.159 182.283 122.003 180.783 121.473C179.283 120.942 177.936 120.052 176.859 118.881C176.748 118.78 176.68 118.639 176.669 118.489C176.658 118.339 176.705 118.191 176.799 118.074C176.899 117.96 177.04 117.889 177.191 117.878C177.343 117.867 177.492 117.916 177.608 118.015Z" fill="white"/>
<path d="M249.461 176.297C249.008 176.381 248.554 176.465 248.096 176.558C242.003 177.719 236.014 179.373 230.189 181.503C229.736 181.661 229.279 181.828 228.832 181.998C214.852 187.28 201.975 195.109 190.856 205.088C186.435 209.063 182.324 213.368 178.556 217.966C173.354 224.317 168.219 231.616 161.421 235.757C160.717 236.196 159.986 236.592 159.233 236.942L120.071 220.712C120.001 220.631 119.926 220.558 119.855 220.476L118.262 219.9C118.44 219.649 118.63 219.393 118.807 219.142C118.91 218.996 119.021 218.854 119.123 218.708C119.194 218.612 119.266 218.516 119.325 218.425C119.348 218.393 119.372 218.361 119.392 218.338C119.451 218.247 119.515 218.169 119.57 218.088C120.626 216.653 121.695 215.222 122.775 213.797C122.779 213.788 122.779 213.788 122.791 213.783C131.05 202.945 140.288 192.7 150.788 184.182C151.104 183.926 151.423 183.661 151.757 183.412C156.511 179.599 161.569 176.18 166.881 173.19C169.795 171.562 172.789 170.083 175.853 168.757C183.775 165.348 192.184 163.205 200.773 162.407C217.895 160.819 235.334 164.719 248.466 175.466C248.802 175.741 249.129 176.013 249.461 176.297Z" fill="#F0F0F0"/>
<path d="M249.167 176.757C228.283 172.583 205.929 175.048 186.581 184.016C182.397 185.955 178.323 188.286 174.932 191.441C171.539 194.598 169.372 198.403 168.007 202.8C166.759 206.82 165.948 211.076 163.743 214.723C161.419 218.566 157.589 220.912 153.228 221.777C147.891 222.836 142.492 221.916 137.244 220.833C131.416 219.63 125.382 218.289 119.479 219.791C118.763 219.972 118.523 218.853 119.237 218.671C129.508 216.058 139.501 221.641 149.794 221.057C154.597 220.785 159.346 219.064 162.194 215.002C164.685 211.449 165.525 207.061 166.754 202.98C168.044 198.695 169.97 194.859 173.111 191.621C176.324 188.308 180.316 185.813 184.431 183.776C193.712 179.182 203.902 176.221 214.136 174.736C225.899 173.028 237.867 173.344 249.524 175.669C250.245 175.813 249.884 176.9 249.167 176.757Z" fill="white"/>
<path d="M192.716 180.77C191.662 177.284 191.883 173.538 193.338 170.199C194.794 166.861 197.39 164.149 200.663 162.546C201.326 162.224 201.858 163.239 201.194 163.561C198.143 165.048 195.726 167.575 194.376 170.686C193.027 173.797 192.836 177.288 193.836 180.528C194.053 181.233 192.931 181.47 192.716 180.77Z" fill="white"/>
<path d="M168.371 200.679C174.906 204.254 182.549 205.237 189.776 203.432C190.492 203.252 190.733 204.372 190.018 204.551C182.493 206.416 174.542 205.377 167.75 201.641C167.103 201.285 167.728 200.324 168.371 200.679Z" fill="white"/>
<path d="M225.502 174.494C225.628 175.928 226.109 177.307 226.901 178.509C227.693 179.711 228.772 180.698 230.04 181.381C230.691 181.729 230.066 182.689 229.419 182.343C228.021 181.582 226.831 180.491 225.953 179.165C225.075 177.839 224.536 176.318 224.381 174.736C224.354 174.588 224.385 174.435 224.466 174.309C224.548 174.182 224.675 174.092 224.821 174.055C224.969 174.024 225.124 174.052 225.252 174.135C225.379 174.217 225.469 174.346 225.502 174.494Z" fill="white"/>
<path d="M174.862 203.073C169.377 176.577 162.522 167.743 162.522 167.743L159.903 165.714L156.753 163.27L156.768 162.955L156.021 162.702L155.846 162.566L155.558 162.345L155.512 162.395L155.414 162.496L141.162 157.655L123.081 151.519L114.708 140.645C113.345 138.874 111.589 137.443 109.579 136.463C107.569 135.484 105.36 134.983 103.123 134.999L76.3834 135.197C72.7679 135.224 69.2931 136.601 66.6423 139.058L49.0665 155.346L21.6802 168.415L21.634 168.369L21.3464 168.574L17.1149 170.595L17.2896 171.503L14.6706 173.392C14.6706 173.392 7.815 181.611 2.33053 206.265C0.935343 212.538 0.248581 225.995 0.000696607 242.577C-0.0117546 243.416 0.142821 244.248 0.455433 245.027C0.768044 245.806 1.23246 246.514 1.82166 247.112C2.41087 247.71 3.11312 248.184 3.88758 248.509C4.66204 248.833 5.49326 249 6.3329 249H152.609L170.866 249C171.705 249 172.536 248.833 173.31 248.509C174.084 248.185 174.785 247.711 175.375 247.114C175.964 246.517 176.428 245.809 176.741 245.031C177.054 244.254 177.21 243.421 177.198 242.583C176.956 224.539 176.27 209.875 174.862 203.073Z" fill="#3F3D56"/>
<path d="M193.63 23.1062C187.939 23.1062 182.481 25.365 178.457 29.3857C174.432 33.4064 172.172 38.8596 172.172 44.5457C172.172 50.2318 174.432 55.6851 178.457 59.7057C182.481 63.7264 187.939 65.9852 193.63 65.9852H353.542C359.233 65.9852 364.691 63.7264 368.715 59.7057C372.739 55.6851 375 50.2318 375 44.5457C375 38.8596 372.739 33.4064 368.715 29.3857C364.691 25.365 359.233 23.1062 353.542 23.1062H193.63Z" fill="#E5E5E5"/>
<path d="M193.63 27.4452C189.09 27.4452 184.737 29.2469 181.527 32.4538C178.318 35.6608 176.514 40.0104 176.514 44.5458C176.514 49.0811 178.318 53.4307 181.527 56.6377C184.737 59.8447 189.09 61.6463 193.63 61.6463H353.542C358.081 61.6463 362.435 59.8447 365.644 56.6377C368.854 53.4307 370.657 49.0811 370.657 44.5458C370.657 40.0104 368.854 35.6608 365.644 32.4538C362.435 29.2469 358.081 27.4452 353.542 27.4452H193.63Z" fill="white"/>
<path d="M93.9526 124.962C113.3 124.962 128.985 109.291 128.985 89.9605C128.985 70.6295 113.3 54.9586 93.9526 54.9586C74.6051 54.9586 58.9208 70.6295 58.9208 89.9605C58.9208 109.291 74.6051 124.962 93.9526 124.962Z" fill="#9E616A"/>
<path d="M84.9908 123.248C84.8412 122.919 84.6919 122.589 84.5431 122.257C84.6005 122.259 84.6572 122.267 84.7146 122.269L84.9908 123.248Z" fill="#2F2E41"/>
<path d="M57.9466 56.5504C59.7184 55.1382 61.7892 53.8388 64.0546 53.9118C66.3198 53.9848 68.617 56.029 68.1477 58.2445C72.3086 50.8836 78.9316 45.2221 86.854 42.254C94.7764 39.2858 103.492 39.2006 111.471 42.0133C117.101 43.998 122.623 47.9686 123.916 53.7921C124.248 55.2871 124.319 56.9263 125.253 58.1402C126.431 59.6707 128.685 60.017 130.541 59.4785C130.559 59.4732 130.578 59.4677 130.596 59.4622C130.91 59.3552 131.248 59.3447 131.568 59.432C131.887 59.5193 132.173 59.7004 132.389 59.9518C132.604 60.2033 132.739 60.5135 132.776 60.8424C132.813 61.1713 132.75 61.5038 132.596 61.7967L131.003 64.7653C133.011 65.2125 135.098 65.1681 137.085 64.636C137.415 64.5495 137.764 64.5672 138.084 64.6866C138.404 64.806 138.679 65.0213 138.871 65.303C139.063 65.5846 139.164 65.9189 139.158 66.2598C139.153 66.6008 139.042 66.9318 138.841 67.2074C133.589 74.4132 124.813 79.0663 115.857 79.0117C109.492 78.9729 103.061 76.781 96.8665 78.2435C94.47 78.8093 92.2306 79.904 90.3128 81.4472C88.395 82.9905 86.8473 84.9432 85.7833 87.162C84.7193 89.3808 84.1659 91.8095 84.1639 94.2699C84.1618 96.7303 84.7111 99.1599 85.7715 101.38C83.8684 99.3007 80.1896 99.7931 78.243 101.832C76.2964 103.871 75.7924 106.915 75.9886 109.726C76.2885 114.026 77.9745 118.077 79.752 122.02C64.8498 121.551 50.7548 111.107 46.0104 96.9801C41.2461 82.7942 46.2393 65.8817 57.9466 56.5504Z" fill="#2F2E41"/>
<path opacity="0.2" d="M34.4804 195.073L44.3061 248.487L50.2017 249L34.4804 195.073Z" fill="black"/>
<path opacity="0.2" d="M142.712 191.045L132.886 248.448L126.991 249L142.712 191.045Z" fill="black"/>
<path d="M66.327 38.5741C64.4431 39.3601 62.4773 38.4987 61.6529 36.5261C60.8159 34.5232 61.5976 32.4901 63.5118 31.6915C65.4261 30.8929 67.3569 31.7564 68.2074 33.7915C69.0452 35.7961 68.2719 37.7627 66.327 38.5741ZM62.7182 27.7493L61.2203 28.3743C60.8461 28.5286 60.4276 28.5369 60.0475 28.3976C59.6675 28.2583 59.3536 27.9816 59.1679 27.6222L59.0938 27.4774C57.4821 24.5731 57.2975 21.0434 58.5482 16.9917C59.7069 13.3572 60.1881 10.8011 59.2203 8.48538C58.1014 5.80797 55.712 4.96927 52.665 6.18423C51.4832 6.67727 51.1072 6.66941 50.1772 7.59119C49.9749 7.79413 49.7338 7.9543 49.4682 8.06213C49.2026 8.16996 48.918 8.22325 48.6313 8.21882C48.3542 8.21556 48.0806 8.15658 47.8269 8.0454C47.5731 7.93421 47.3443 7.7731 47.1541 7.57166C46.7878 7.18348 46.5826 6.67087 46.5799 6.13737C46.5772 5.60386 46.7773 5.08921 47.1396 4.69734C48.7028 3.06242 50.5882 1.76898 52.6768 0.898659C59.2235 -1.83266 62.5191 2.19974 64.0272 5.80837C65.5023 9.33801 64.6726 12.6129 63.3393 16.8543C62.222 20.3786 62.2871 22.99 63.5563 25.5866C63.6479 25.7829 63.6989 25.9957 63.7061 26.2122C63.7134 26.4287 63.6768 26.6444 63.5985 26.8464C63.5203 27.0484 63.4019 27.2325 63.2507 27.3877C63.0994 27.5428 62.9183 27.6659 62.7182 27.7493Z" fill="#EB4628"/>
<path d="M228.952 54.7709H197.136C197.035 54.7716 196.934 54.7523 196.841 54.7141C196.747 54.676 196.662 54.6197 196.59 54.5485C196.519 54.4773 196.462 54.3927 196.423 54.2994C196.384 54.2062 196.364 54.1062 196.364 54.0052C196.364 53.9042 196.384 53.8042 196.423 53.711C196.462 53.6177 196.519 53.5331 196.59 53.4619C196.662 53.3908 196.747 53.3345 196.841 53.2963C196.934 53.2581 197.035 53.2388 197.136 53.2395H228.952C229.155 53.2409 229.348 53.3222 229.491 53.4656C229.633 53.6091 229.713 53.803 229.713 54.0052C229.713 54.2074 229.633 54.4014 229.491 54.5448C229.348 54.6883 229.155 54.7695 228.952 54.7709Z" fill="#EB4628"/>
<path d="M269.314 55.0262H237.497C237.396 55.0268 237.296 55.0076 237.202 54.9694C237.108 54.9312 237.023 54.8749 236.952 54.8037C236.88 54.7326 236.823 54.6479 236.784 54.5547C236.745 54.4615 236.725 54.3615 236.725 54.2605C236.725 54.1595 236.745 54.0595 236.784 53.9662C236.823 53.873 236.88 53.7884 236.952 53.7172C237.023 53.646 237.108 53.5897 237.202 53.5516C237.296 53.5134 237.396 53.4941 237.497 53.4948H269.314C269.415 53.4941 269.515 53.5134 269.608 53.5516C269.702 53.5897 269.787 53.646 269.859 53.7172C269.931 53.7884 269.987 53.873 270.026 53.9662C270.065 54.0595 270.085 54.1595 270.085 54.2605C270.085 54.3615 270.065 54.4615 270.026 54.5547C269.987 54.6479 269.931 54.7326 269.859 54.8037C269.787 54.8749 269.702 54.9312 269.608 54.9694C269.515 55.0076 269.415 55.0268 269.314 55.0262Z" fill="#EB4628"/>
<path d="M309.675 55.2814H277.858C277.656 55.28 277.462 55.1988 277.32 55.0553C277.177 54.9119 277.097 54.7179 277.097 54.5157C277.097 54.3135 277.177 54.1196 277.32 53.9761C277.462 53.8327 277.656 53.7514 277.858 53.75H309.675C309.776 53.7493 309.876 53.7686 309.97 53.8068C310.063 53.845 310.148 53.9013 310.22 53.9724C310.292 54.0436 310.349 54.1282 310.388 54.2215C310.426 54.3147 310.446 54.4147 310.446 54.5157C310.446 54.6167 310.426 54.7167 310.388 54.8099C310.349 54.9032 310.292 54.9878 310.22 55.059C310.148 55.1302 310.063 55.1865 309.97 55.2246C309.876 55.2628 309.776 55.2821 309.675 55.2814Z" fill="#EB4628"/>
<path d="M350.036 55.5366H318.219C318.017 55.5353 317.824 55.454 317.681 55.3105C317.538 55.1671 317.458 54.9731 317.458 54.7709C317.458 54.5688 317.538 54.3748 317.681 54.2313C317.824 54.0879 318.017 54.0066 318.219 54.0052H350.036C350.238 54.0066 350.432 54.0879 350.575 54.2313C350.717 54.3748 350.797 54.5688 350.797 54.7709C350.797 54.9731 350.717 55.1671 350.575 55.3105C350.432 55.454 350.238 55.5353 350.036 55.5366Z" fill="#EB4628"/>
<path d="M212.974 47.7242C216.24 47.7242 218.887 45.0789 218.887 41.8159C218.887 38.5528 216.24 35.9076 212.974 35.9076C209.708 35.9076 207.061 38.5528 207.061 41.8159C207.061 45.0789 209.708 47.7242 212.974 47.7242Z" fill="#EB4628"/>
<path d="M253.579 47.7242C256.845 47.7242 259.492 45.0789 259.492 41.8159C259.492 38.5528 256.845 35.9076 253.579 35.9076C250.313 35.9076 247.666 38.5528 247.666 41.8159C247.666 45.0789 250.313 47.7242 253.579 47.7242Z" fill="#EB4628"/>
<path d="M294.184 47.7242C297.45 47.7242 300.097 45.0789 300.097 41.8159C300.097 38.5528 297.45 35.9076 294.184 35.9076C290.918 35.9076 288.271 38.5528 288.271 41.8159C288.271 45.0789 290.918 47.7242 294.184 47.7242Z" fill="#EB4628"/>
<path d="M334.789 47.7242C338.055 47.7242 340.702 45.0789 340.702 41.8159C340.702 38.5528 338.055 35.9076 334.789 35.9076C331.523 35.9076 328.876 38.5528 328.876 41.8159C328.876 45.0789 331.523 47.7242 334.789 47.7242Z" fill="#EB4628"/>
</g>
<defs>
<clipPath id="clip0_1_4299">
<rect width="375" height="249" fill="white"/>
</clipPath>
</defs>
</svg>
