<svg width="190" height="36" viewBox="0 0 190 36" fill="none" xmlns="http://www.w3.org/2000/svg">
<path d="M36 17.7395C36 27.5368 27.9411 35.479 18 35.479C8.05888 35.479 0 27.5368 0 17.7395C0 7.94225 8.05888 0 18 0C27.9411 0 36 7.94225 36 17.7395Z" fill="url(#paint0_linear_1_3143)"/>
<path d="M9.3 33.2731C6.42932 31.7081 4.03848 29.3927 2.4 26.5955L0.776097 35.3052C0.695893 35.7535 1.13817 36.1192 1.57219 35.9635L9.3 33.2731Z" fill="url(#paint1_linear_1_3143)"/>
<g filter="url(#filter0_d_1_3143)">
<path d="M20.4 16.2H24H27.6V19.8H24H20.4V16.2Z" fill="white"/>
<path fill-rule="evenodd" clip-rule="evenodd" d="M14.4 8.40002C11.0863 8.40002 8.40002 11.0863 8.40002 14.4V21.6C8.40002 24.9137 11.0863 27.6 14.4 27.6H21.6C24.9137 27.6 27.6 24.9137 27.6 21.6V16.2H24H20.4V19.8H24V21C24 22.6569 22.6569 24 21 24H15C13.3432 24 12 22.6569 12 21V15C12 13.3432 13.3432 12 15 12H27.1008C26.1749 9.88094 24.0604 8.40002 21.6 8.40002H14.4Z" fill="white"/>
</g>
<path d="M58.104 27.288C56.776 27.288 55.552 27.08 54.432 26.664C53.328 26.232 52.36 25.624 51.528 24.84C50.712 24.056 50.072 23.136 49.608 22.08C49.16 21.024 48.936 19.864 48.936 18.6C48.936 17.336 49.16 16.176 49.608 15.12C50.072 14.064 50.72 13.144 51.552 12.36C52.384 11.576 53.36 10.976 54.48 10.56C55.6 10.128 56.832 9.912 58.176 9.912C59.664 9.912 61 10.16 62.184 10.656C63.384 11.152 64.392 11.872 65.208 12.816L62.712 15.12C62.104 14.48 61.44 14.008 60.72 13.704C60 13.384 59.216 13.224 58.368 13.224C57.552 13.224 56.808 13.352 56.136 13.608C55.464 13.864 54.88 14.232 54.384 14.712C53.904 15.192 53.528 15.76 53.256 16.416C53 17.072 52.872 17.8 52.872 18.6C52.872 19.384 53 20.104 53.256 20.76C53.528 21.416 53.904 21.992 54.384 22.488C54.88 22.968 55.456 23.336 56.112 23.592C56.784 23.848 57.52 23.976 58.32 23.976C59.088 23.976 59.832 23.856 60.552 23.616C61.288 23.36 62 22.936 62.688 22.344L64.896 25.152C63.984 25.84 62.92 26.368 61.704 26.736C60.504 27.104 59.304 27.288 58.104 27.288ZM61.344 24.648V18.336H64.896V25.152L61.344 24.648ZM68.4436 27V14.088H72.0196V17.736L71.5156 16.68C71.8996 15.768 72.5156 15.08 73.3636 14.616C74.2116 14.136 75.2436 13.896 76.4596 13.896V17.352C76.2996 17.336 76.1556 17.328 76.0276 17.328C75.8996 17.312 75.7636 17.304 75.6196 17.304C74.5956 17.304 73.7636 17.6 73.1236 18.192C72.4996 18.768 72.1876 19.672 72.1876 20.904V27H68.4436ZM84.9361 27.192C83.5601 27.192 82.3361 26.904 81.2641 26.328C80.2081 25.752 79.3681 24.968 78.7441 23.976C78.1361 22.968 77.8321 21.824 77.8321 20.544C77.8321 19.248 78.1361 18.104 78.7441 17.112C79.3681 16.104 80.2081 15.32 81.2641 14.76C82.3361 14.184 83.5601 13.896 84.9361 13.896C86.2961 13.896 87.5121 14.184 88.5841 14.76C89.6561 15.32 90.4961 16.096 91.1041 17.088C91.7121 18.08 92.0161 19.232 92.0161 20.544C92.0161 21.824 91.7121 22.968 91.1041 23.976C90.4961 24.968 89.6561 25.752 88.5841 26.328C87.5121 26.904 86.2961 27.192 84.9361 27.192ZM84.9361 24.12C85.5601 24.12 86.1201 23.976 86.6161 23.688C87.1121 23.4 87.5041 22.992 87.7921 22.464C88.0801 21.92 88.2241 21.28 88.2241 20.544C88.2241 19.792 88.0801 19.152 87.7921 18.624C87.5041 18.096 87.1121 17.688 86.6161 17.4C86.1201 17.112 85.5601 16.968 84.9361 16.968C84.3121 16.968 83.7521 17.112 83.2561 17.4C82.7601 17.688 82.3601 18.096 82.0561 18.624C81.7681 19.152 81.6241 19.792 81.6241 20.544C81.6241 21.28 81.7681 21.92 82.0561 22.464C82.3601 22.992 82.7601 23.4 83.2561 23.688C83.7521 23.976 84.3121 24.12 84.9361 24.12ZM100.167 27.192C99.0946 27.192 98.1346 26.984 97.2866 26.568C96.4546 26.152 95.8066 25.52 95.3426 24.672C94.8786 23.808 94.6466 22.712 94.6466 21.384V14.088H98.3906V20.832C98.3906 21.904 98.6146 22.696 99.0626 23.208C99.5266 23.704 100.175 23.952 101.007 23.952C101.583 23.952 102.095 23.832 102.543 23.592C102.991 23.336 103.343 22.952 103.599 22.44C103.855 21.912 103.983 21.256 103.983 20.472V14.088H107.727V27H104.175V23.448L104.823 24.48C104.391 25.376 103.751 26.056 102.903 26.52C102.071 26.968 101.159 27.192 100.167 27.192ZM119.027 27.192C117.939 27.192 116.987 26.952 116.171 26.472C115.355 25.992 114.715 25.264 114.251 24.288C113.803 23.296 113.579 22.048 113.579 20.544C113.579 19.024 113.795 17.776 114.227 16.8C114.659 15.824 115.283 15.096 116.099 14.616C116.915 14.136 117.891 13.896 119.027 13.896C120.243 13.896 121.331 14.176 122.291 14.736C123.267 15.28 124.035 16.048 124.595 17.04C125.171 18.032 125.459 19.2 125.459 20.544C125.459 21.904 125.171 23.08 124.595 24.072C124.035 25.064 123.267 25.832 122.291 26.376C121.331 26.92 120.243 27.192 119.027 27.192ZM111.395 31.656V14.088H114.971V16.728L114.899 20.568L115.139 24.384V31.656H111.395ZM118.379 24.12C119.003 24.12 119.555 23.976 120.035 23.688C120.531 23.4 120.923 22.992 121.211 22.464C121.515 21.92 121.667 21.28 121.667 20.544C121.667 19.792 121.515 19.152 121.211 18.624C120.923 18.096 120.531 17.688 120.035 17.4C119.555 17.112 119.003 16.968 118.379 16.968C117.755 16.968 117.195 17.112 116.699 17.4C116.203 17.688 115.811 18.096 115.523 18.624C115.235 19.152 115.091 19.792 115.091 20.544C115.091 21.28 115.235 21.92 115.523 22.464C115.811 22.992 116.203 23.4 116.699 23.688C117.195 23.976 117.755 24.12 118.379 24.12ZM134.406 27.192C133.014 27.192 131.774 26.912 130.686 26.352C129.598 25.776 128.742 24.984 128.118 23.976C127.51 22.968 127.206 21.824 127.206 20.544C127.206 19.248 127.51 18.104 128.118 17.112C128.742 16.104 129.598 15.32 130.686 14.76C131.774 14.184 133.014 13.896 134.406 13.896C135.766 13.896 136.95 14.184 137.958 14.76C138.966 15.32 139.71 16.128 140.19 17.184L137.286 18.744C136.95 18.136 136.526 17.688 136.014 17.4C135.518 17.112 134.974 16.968 134.382 16.968C133.742 16.968 133.166 17.112 132.654 17.4C132.142 17.688 131.734 18.096 131.43 18.624C131.142 19.152 130.998 19.792 130.998 20.544C130.998 21.296 131.142 21.936 131.43 22.464C131.734 22.992 132.142 23.4 132.654 23.688C133.166 23.976 133.742 24.12 134.382 24.12C134.974 24.12 135.518 23.984 136.014 23.712C136.526 23.424 136.95 22.968 137.286 22.344L140.19 23.928C139.71 24.968 138.966 25.776 137.958 26.352C136.95 26.912 135.766 27.192 134.406 27.192ZM150.323 13.896C151.347 13.896 152.259 14.104 153.059 14.52C153.875 14.92 154.515 15.544 154.979 16.392C155.443 17.224 155.675 18.296 155.675 19.608V27H151.931V20.184C151.931 19.144 151.699 18.376 151.235 17.88C150.787 17.384 150.147 17.136 149.315 17.136C148.723 17.136 148.187 17.264 147.707 17.52C147.243 17.76 146.875 18.136 146.603 18.648C146.347 19.16 146.219 19.816 146.219 20.616V27H142.475V9.192H146.219V17.664L145.379 16.584C145.843 15.72 146.507 15.056 147.371 14.592C148.235 14.128 149.219 13.896 150.323 13.896ZM167.189 27V24.48L166.949 23.928V19.416C166.949 18.616 166.701 17.992 166.205 17.544C165.725 17.096 164.981 16.872 163.973 16.872C163.285 16.872 162.605 16.984 161.933 17.208C161.277 17.416 160.717 17.704 160.253 18.072L158.909 15.456C159.613 14.96 160.461 14.576 161.453 14.304C162.445 14.032 163.453 13.896 164.477 13.896C166.445 13.896 167.973 14.36 169.061 15.288C170.149 16.216 170.693 17.664 170.693 19.632V27H167.189ZM163.253 27.192C162.245 27.192 161.381 27.024 160.661 26.688C159.941 26.336 159.389 25.864 159.005 25.272C158.621 24.68 158.429 24.016 158.429 23.28C158.429 22.512 158.613 21.84 158.981 21.264C159.365 20.688 159.965 20.24 160.781 19.92C161.597 19.584 162.661 19.416 163.973 19.416H167.405V21.6H164.381C163.501 21.6 162.893 21.744 162.557 22.032C162.237 22.32 162.077 22.68 162.077 23.112C162.077 23.592 162.261 23.976 162.629 24.264C163.013 24.536 163.533 24.672 164.189 24.672C164.813 24.672 165.373 24.528 165.869 24.24C166.365 23.936 166.725 23.496 166.949 22.92L167.525 24.648C167.253 25.48 166.757 26.112 166.037 26.544C165.317 26.976 164.389 27.192 163.253 27.192ZM182.129 13.896C183.153 13.896 184.065 14.104 184.865 14.52C185.681 14.92 186.321 15.544 186.785 16.392C187.249 17.224 187.481 18.296 187.481 19.608V27H183.737V20.184C183.737 19.144 183.505 18.376 183.041 17.88C182.593 17.384 181.953 17.136 181.121 17.136C180.529 17.136 179.993 17.264 179.513 17.52C179.049 17.76 178.681 18.136 178.409 18.648C178.153 19.16 178.025 19.816 178.025 20.616V27H174.281V14.088H177.857V17.664L177.185 16.584C177.649 15.72 178.313 15.056 179.177 14.592C180.041 14.128 181.025 13.896 182.129 13.896Z" fill="black"/>
<defs>
<filter id="filter0_d_1_3143" x="4.40002" y="4.40002" width="27.2" height="27.2" filterUnits="userSpaceOnUse" color-interpolation-filters="sRGB">
<feFlood flood-opacity="0" result="BackgroundImageFix"/>
<feColorMatrix in="SourceAlpha" type="matrix" values="0 0 0 0 0 0 0 0 0 0 0 0 0 0 0 0 0 0 127 0" result="hardAlpha"/>
<feOffset/>
<feGaussianBlur stdDeviation="2"/>
<feComposite in2="hardAlpha" operator="out"/>
<feColorMatrix type="matrix" values="0 0 0 0 0 0 0 0 0 0 0 0 0 0 0 0 0 0 0.25 0"/>
<feBlend mode="normal" in2="BackgroundImageFix" result="effect1_dropShadow_1_3143"/>
<feBlend mode="normal" in="SourceGraphic" in2="effect1_dropShadow_1_3143" result="shape"/>
</filter>
<linearGradient id="paint0_linear_1_3143" x1="36.6" y1="-0.886976" x2="-0.644741" y2="37.2046" gradientUnits="userSpaceOnUse">
<stop offset="0.317708" stop-color="#E76227"/>
<stop offset="1" stop-color="#ED3824"/>
</linearGradient>
<linearGradient id="paint1_linear_1_3143" x1="36.6" y1="-0.886976" x2="-0.644741" y2="37.2046" gradientUnits="userSpaceOnUse">
<stop offset="0.317708" stop-color="#E76227"/>
<stop offset="1" stop-color="#ED3824"/>
</linearGradient>
</defs>
</svg>
