<svg width="32" height="32" viewBox="0 0 32 32" fill="none" xmlns="http://www.w3.org/2000/svg">
<path d="M32 15.7685C32 24.4771 24.8366 31.5369 16 31.5369C7.16344 31.5369 0 24.4771 0 15.7685C0 7.05978 7.16344 0 16 0C24.8366 0 32 7.05978 32 15.7685Z" fill="url(#paint0_linear_14_364)"/>
<path d="M8.26667 29.5761C5.71495 28.185 3.58976 26.1269 2.13333 23.6404L0.689864 31.3824C0.618571 31.7809 1.0117 32.106 1.3975 31.9676L8.26667 29.5761Z" fill="url(#paint1_linear_14_364)"/>
<g filter="url(#filter0_d_14_364)">
<path d="M18.1332 14.4H21.3332H24.5332V17.6H21.3332H18.1332V14.4Z" fill="white"/>
<path fill-rule="evenodd" clip-rule="evenodd" d="M12.7999 7.46667C9.85437 7.46667 7.46655 9.85449 7.46655 12.8V19.2C7.46655 22.1455 9.85437 24.5333 12.7999 24.5333H19.1999C22.1454 24.5333 24.5332 22.1455 24.5332 19.2V14.4H21.3332H18.1332V17.6H21.3332V18.6667C21.3332 20.1394 20.1393 21.3333 18.6666 21.3333H13.3332C11.8605 21.3333 10.6666 20.1394 10.6666 18.6667V13.3333C10.6666 11.8606 11.8605 10.6667 13.3332 10.6667H24.0894C23.2664 8.78304 21.3869 7.46667 19.1999 7.46667H12.7999Z" fill="white"/>
</g>
<defs>
<filter id="filter0_d_14_364" x="3.46655" y="3.46667" width="25.0667" height="25.0667" filterUnits="userSpaceOnUse" color-interpolation-filters="sRGB">
<feFlood flood-opacity="0" result="BackgroundImageFix"/>
<feColorMatrix in="SourceAlpha" type="matrix" values="0 0 0 0 0 0 0 0 0 0 0 0 0 0 0 0 0 0 127 0" result="hardAlpha"/>
<feOffset/>
<feGaussianBlur stdDeviation="2"/>
<feComposite in2="hardAlpha" operator="out"/>
<feColorMatrix type="matrix" values="0 0 0 0 0 0 0 0 0 0 0 0 0 0 0 0 0 0 0.25 0"/>
<feBlend mode="normal" in2="BackgroundImageFix" result="effect1_dropShadow_14_364"/>
<feBlend mode="normal" in="SourceGraphic" in2="effect1_dropShadow_14_364" result="shape"/>
</filter>
<linearGradient id="paint0_linear_14_364" x1="32.5333" y1="-0.788423" x2="-0.573103" y2="33.0707" gradientUnits="userSpaceOnUse">
<stop offset="0.317708" stop-color="#E76227"/>
<stop offset="1" stop-color="#ED3824"/>
</linearGradient>
<linearGradient id="paint1_linear_14_364" x1="32.5333" y1="-0.788423" x2="-0.573103" y2="33.0707" gradientUnits="userSpaceOnUse">
<stop offset="0.317708" stop-color="#E76227"/>
<stop offset="1" stop-color="#ED3824"/>
</linearGradient>
</defs>
</svg>
