<svg width="513" height="433" viewBox="0 0 513 433" fill="none" xmlns="http://www.w3.org/2000/svg">
<g clip-path="url(#clip0_1_4038)">
<path d="M417.798 208.982C417.798 215.066 417.542 221.089 417.031 227.05C416.628 231.703 416.079 236.314 415.383 240.884C414.643 245.722 413.736 250.502 412.663 255.224V255.23C411.961 258.337 411.19 261.419 410.351 264.476C407.914 273.362 404.885 282.075 401.282 290.555C400.499 292.4 399.69 294.232 398.856 296.052C395.699 302.943 392.165 309.654 388.269 316.155C377.344 334.412 363.705 350.9 347.822 365.054C346.103 366.583 344.361 368.087 342.594 369.565C305.094 400.905 257.763 418.038 208.899 417.963C93.5258 417.963 0 324.4 0 208.982C0 93.5627 93.5258 -0.000168407 208.899 -0.000168407C256.08 -0.0745916 301.885 15.902 338.792 45.3064C340.522 46.6778 342.23 48.0801 343.916 49.5133C352.146 56.4955 359.826 64.1008 366.89 72.2618H366.895C399.794 110.2 417.872 158.757 417.798 208.982Z" fill="#F2F2F2"/>
<path d="M61.6667 245.081C41.7666 233.232 26.7468 211.088 28.6968 188.004C46.8903 205.423 70.6567 215.844 95.7909 217.421C105.486 217.995 116.33 217.622 123.467 224.212C127.907 228.313 129.975 234.486 130.314 240.522C130.653 246.558 129.444 252.562 128.241 258.487L128.655 259.939C105.497 260.026 81.5668 256.929 61.6667 245.081Z" fill="#E6E6E6"/>
<path d="M29.182 187.979C37.1555 205.417 50.4186 219.898 67.0876 229.366C70.671 231.373 74.4807 233.096 78.5292 233.896C82.4813 234.645 86.5619 234.321 90.3469 232.959C93.9015 231.76 97.3987 230.121 101.183 229.808C105.171 229.477 108.864 231.016 111.765 233.712C115.315 237.011 117.468 241.39 119.425 245.744C121.598 250.58 123.778 255.636 127.943 259.113C128.448 259.535 127.765 260.294 127.261 259.873C120.014 253.823 118.831 243.692 113.037 236.567C110.334 233.243 106.613 230.713 102.192 230.78C98.3268 230.838 94.719 232.525 91.1304 233.77C87.3623 235.078 83.5875 235.692 79.6093 235.117C75.5399 234.528 71.6549 232.95 68.0359 231.044C59.8615 226.66 52.427 221.018 46.0046 214.324C38.6325 206.724 32.6141 197.92 28.2098 188.29C27.9375 187.694 28.9115 187.387 29.182 187.979Z" fill="white"/>
<path d="M61.5409 226.634C59.5733 229.216 56.7524 231.014 53.5818 231.708C50.4112 232.401 47.0974 231.945 44.2322 230.419C43.6535 230.109 44.1087 229.195 44.6882 229.506C47.3536 230.931 50.4405 231.356 53.3916 230.704C56.3428 230.052 58.9638 228.366 60.7817 225.951C61.1774 225.427 61.9343 226.112 61.5409 226.634Z" fill="white"/>
<path d="M88.6246 233.805C87.7966 227.219 84.5179 221.188 79.4423 216.914C78.9391 216.491 79.6219 215.732 80.1245 216.155C85.398 220.612 88.7972 226.896 89.6438 233.75C89.7241 234.404 88.7044 234.455 88.6246 233.805Z" fill="white"/>
<path d="M39.8982 206.245C40.8676 205.405 41.6131 204.337 42.0679 203.137C42.5227 201.937 42.6724 200.643 42.5037 199.371C42.4152 198.719 43.435 198.668 43.5229 199.316C43.7028 200.723 43.5357 202.152 43.0361 203.478C42.5366 204.805 41.7199 205.989 40.6574 206.928C40.5646 207.025 40.4385 207.082 40.3046 207.09C40.1708 207.097 40.0392 207.053 39.9367 206.966C39.8366 206.875 39.7764 206.749 39.7692 206.614C39.762 206.479 39.8084 206.346 39.8982 206.245Z" fill="white"/>
<path d="M93.1119 143.28C93.1787 143.686 93.2455 144.092 93.3201 144.501C94.2467 149.949 95.6143 155.313 97.4093 160.54C97.5417 160.946 97.6819 161.356 97.8257 161.757C102.284 174.303 109.033 185.912 117.727 195.993C121.191 200.002 124.954 203.741 128.985 207.178C134.552 211.925 140.965 216.628 144.534 222.757C144.914 223.392 145.253 224.051 145.552 224.728L130.393 259.321C130.319 259.382 130.253 259.447 130.179 259.509L129.637 260.918C129.417 260.755 129.192 260.582 128.971 260.419C128.843 260.325 128.718 260.223 128.59 260.13C128.506 260.065 128.422 259.999 128.342 259.945C128.314 259.924 128.286 259.902 128.265 259.884C128.186 259.83 128.117 259.771 128.045 259.721C126.785 258.754 125.53 257.777 124.279 256.79C124.271 256.786 124.271 256.786 124.266 256.775C114.755 249.226 105.79 240.816 98.3856 231.311C98.1629 231.025 97.9322 230.736 97.7164 230.434C94.4028 226.132 91.4461 221.566 88.8761 216.781C87.4773 214.157 86.2121 211.464 85.0855 208.711C82.1882 201.594 80.428 194.065 79.8693 186.401C78.7579 171.122 82.5434 155.658 92.3537 144.152C92.6049 143.858 92.8528 143.571 93.1119 143.28Z" fill="#E6E6E6"/>
<path d="M93.5167 143.551C89.3882 162.277 91.2627 181.828 98.8739 199.427C100.527 203.187 102.532 206.858 105.283 209.935C107.988 212.913 111.441 215.113 115.283 216.305C118.843 217.488 122.621 218.287 125.831 220.315C129.215 222.453 131.237 225.907 131.931 229.807C132.78 234.579 131.864 239.372 130.805 244.027C129.63 249.197 128.328 254.547 129.561 259.832C129.71 260.473 128.708 260.667 128.559 260.028C126.413 250.832 131.566 242.031 131.228 232.853C131.071 228.57 129.622 224.309 126.052 221.699C122.931 219.418 119.035 218.591 115.42 217.424C111.625 216.199 108.241 214.416 105.411 211.56C102.516 208.639 100.364 205.039 98.6215 201.337C94.733 192.914 92.1926 183.931 91.0934 174.718C89.7806 164.21 90.2743 153.555 92.553 143.214C92.6943 142.574 93.657 142.915 93.5167 143.551Z" fill="white"/>
<path d="M96.0897 193.904C92.9647 194.781 89.63 194.518 86.6811 193.162C83.7322 191.806 81.3611 189.445 79.9912 186.502C79.7161 185.905 80.6298 185.45 80.9053 186.047C82.1758 188.79 84.3847 190.989 87.1333 192.246C89.8819 193.503 92.9892 193.736 95.8943 192.902C96.5258 192.722 96.7176 193.725 96.0897 193.904Z" fill="white"/>
<path d="M113.399 215.943C116.701 210.186 117.713 203.396 116.232 196.926C116.085 196.285 117.087 196.09 117.234 196.731C118.762 203.466 117.695 210.53 114.245 216.513C113.916 217.083 113.071 216.51 113.399 215.943Z" fill="white"/>
<path d="M91.0797 164.59C92.3594 164.503 93.5975 164.099 94.6828 163.415C95.768 162.731 96.6664 161.788 97.2973 160.67C97.6191 160.096 98.4635 160.67 98.1438 161.241C97.4411 162.472 96.4476 163.512 95.2503 164.271C94.0529 165.029 92.6881 165.483 91.2751 165.592C91.1428 165.613 91.0072 165.584 90.896 165.509C90.7849 165.434 90.7063 165.319 90.6765 165.189C90.6513 165.056 90.6795 164.918 90.755 164.806C90.8305 164.694 90.9472 164.616 91.0797 164.59Z" fill="white"/>
<path d="M144.706 48.4358L170.274 347.863L119.138 351.71V52.2454C125.231 48.2118 133.978 47.5807 144.706 48.4358Z" fill="#CCCCCC"/>
<path d="M270.916 48.4358L245.348 347.863L296.484 351.71V52.2454C290.391 48.2118 281.644 47.5807 270.916 48.4358Z" fill="#CCCCCC"/>
<path d="M288.827 364.085H126.25C123.644 364.082 121.144 363.045 119.301 361.201C117.457 359.357 116.421 356.856 116.418 354.248V56.6399C116.421 54.032 117.458 51.5317 119.301 49.6876C121.144 47.8435 123.644 46.8062 126.25 46.8032H288.827C291.434 46.8062 293.934 47.8435 295.777 49.6876C297.62 51.5317 298.657 54.032 298.66 56.6399V354.248C298.657 356.856 297.62 359.357 295.777 361.201C293.934 363.045 291.434 364.082 288.827 364.085ZM126.25 50.0685C124.509 50.0705 122.839 50.7634 121.608 51.9954C120.376 53.2273 119.684 54.8977 119.682 56.6399V354.248C119.684 355.991 120.376 357.661 121.608 358.893C122.839 360.125 124.509 360.818 126.25 360.82H288.827C290.569 360.818 292.239 360.125 293.47 358.893C294.702 357.661 295.394 355.991 295.396 354.248V56.6399C295.394 54.8977 294.702 53.2273 293.47 51.9954C292.239 50.7635 290.569 50.0705 288.827 50.0686L126.25 50.0685Z" fill="#CCCCCC"/>
<path d="M297.028 96.3275H118.05V99.5929H297.028V96.3275Z" fill="#CCCCCC"/>
<path d="M297.028 150.75H118.05V154.015H297.028V150.75Z" fill="#CCCCCC"/>
<path d="M176.13 48.4359H172.866V197.009H176.13V48.4359Z" fill="#CCCCCC"/>
<path d="M242.212 48.4359H238.948V197.009H242.212V48.4359Z" fill="#CCCCCC"/>
<path d="M317.429 373.065H103.089C99.1939 373.065 95.4579 371.517 92.7033 368.761C89.9487 366.006 88.4012 362.268 88.4012 358.371C88.4012 354.474 89.9487 350.736 92.7033 347.981C95.4579 345.225 99.1939 343.677 103.089 343.677H317.429C321.324 343.677 325.06 345.225 327.815 347.981C330.569 350.736 332.117 354.474 332.117 358.371C332.117 362.268 330.569 366.006 327.815 368.761C325.06 371.517 321.324 373.065 317.429 373.065Z" fill="#CCCCCC"/>
<path d="M297.028 189.39H119.138V200.274H297.028V189.39Z" fill="#CCCCCC"/>
<path d="M176.637 224.03L176.411 223.921C164.284 218.06 148.404 218.066 124.919 223.94L124.668 224.003L124.593 223.755C122.108 215.606 119.294 206.376 124.581 201.835C124.655 188.509 136.339 177.689 150.691 177.689C165.04 177.689 176.722 188.504 176.801 201.826C184.666 207.841 180.917 216.731 176.764 223.813L176.637 224.03Z" fill="#2F2E41"/>
<path d="M251.172 195.496C250.954 196.576 250.503 197.595 249.849 198.481C249.196 199.367 248.356 200.1 247.389 200.626C246.421 201.153 245.351 201.461 244.252 201.528C243.153 201.596 242.052 201.422 241.028 201.018L198.172 244.101L194.349 230.724L236.912 190.715C237.704 189.039 239.084 187.711 240.789 186.984C242.494 186.256 244.407 186.18 246.165 186.77C247.922 187.359 249.403 188.573 250.326 190.181C251.249 191.789 251.55 193.68 251.172 195.496Z" fill="#FFB6B6"/>
<path d="M145.254 236.972C145.254 236.972 141.366 245.787 150.96 251.223C160.554 256.659 194.085 249.149 199.526 248.1C204.967 247.051 225.287 216.629 225.287 216.629L222.414 201.709L195.464 225.113L145.254 236.972Z" fill="#EB4628"/>
<path d="M138.178 285.717L138.722 296.057C138.722 296.057 137.116 305.217 138.437 307.194C139.748 309.16 175.511 309.409 175.511 309.409C175.511 309.409 177.874 296.665 179.91 285.51L138.178 285.717Z" fill="#FFB6B6"/>
<path d="M241.003 422.437L248.48 420.927L246.34 390.715L235.305 392.944L241.003 422.437Z" fill="#FFB6B6"/>
<path d="M251.713 383.121L258.664 379.995L249.647 351.088L239.388 355.703L251.713 383.121Z" fill="#FFB6B6"/>
<path d="M257.768 366.833L244.68 374.247L212.403 322.36C189.744 337.631 167.587 344.944 145.25 348.847C137.698 350.192 129.999 349.511 128.549 341.821C128.481 341.462 128.427 341.1 128.387 340.737C127.495 332.338 137.938 321.572 139.266 311.296L167.848 309.579L171.373 314.1L204.428 293.77C211.075 289.681 219.818 291.893 223.956 298.709C224.174 299.069 224.377 299.438 224.564 299.816L257.768 366.833Z" fill="#2F2E41"/>
<path d="M249.757 401.739L234.782 403.131L207.628 347.576C180.702 352.209 155.3 353.693 133.329 348.089C125.889 346.217 121.342 338.533 123.172 330.925C123.257 330.569 123.356 330.218 123.469 329.869C126.098 321.843 132.981 316.164 138.405 307.337L178.018 307.939L173.593 323.211L212.074 318.229C219.813 317.227 226.881 322.831 227.86 330.745C227.912 331.163 227.946 331.583 227.962 332.004L249.757 401.739Z" fill="#2F2E41"/>
<path d="M153.645 216.131C162.529 216.131 169.731 208.927 169.731 200.04C169.731 191.153 162.529 183.948 153.645 183.948C144.762 183.948 137.56 191.153 137.56 200.04C137.56 208.927 144.762 216.131 153.645 216.131Z" fill="#FFB6B6"/>
<path d="M144.215 221.94L158.964 223.676C159.586 223.749 160.17 224.015 160.634 224.436C161.098 224.856 161.419 225.412 161.553 226.024L163.898 236.761L178.519 253.986C178.519 253.986 183.769 263.834 181.801 274.995C179.832 286.156 178.966 294.45 178.966 294.45C178.966 294.45 139.746 309.161 138.433 307.192C137.121 305.222 136.695 296.275 136.695 296.275L131.444 237.843C131.444 237.843 137.351 227.994 140.632 227.994C142.75 227.923 142.478 223.155 144.215 221.94Z" fill="#EB4628"/>
<path d="M179.365 298.042C181.433 298.042 183.11 296.03 183.11 293.547C183.11 291.064 181.433 289.051 179.365 289.051C177.297 289.051 175.62 291.064 175.62 293.547C175.62 296.03 177.297 298.042 179.365 298.042Z" fill="#EB4628"/>
<path d="M237.293 414.659L248.692 408.944L250.84 413.958L265.254 416.873C265.966 417.017 266.614 417.384 267.102 417.922C267.59 418.46 267.894 419.14 267.968 419.863C268.043 420.586 267.884 421.314 267.516 421.94C267.148 422.566 266.589 423.058 265.922 423.345L251.995 429.317L247.469 425.387L248.657 430.748L243.406 433L237.293 414.659Z" fill="#2F2E41"/>
<path d="M248.451 380.716L259.747 374.801L261.984 379.777L276.447 382.438C277.161 382.569 277.815 382.925 278.313 383.455C278.81 383.984 279.126 384.659 279.213 385.38C279.3 386.101 279.154 386.832 278.797 387.464C278.44 388.097 277.89 388.599 277.228 388.897L263.408 395.113L258.814 391.263L260.096 396.603L254.885 398.947L248.451 380.716Z" fill="#2F2E41"/>
<path d="M144.455 194.993C140.206 194.999 136.058 193.69 132.582 191.245L132.466 191.164V191.022C132.471 186.91 134.106 182.968 137.012 180.06C139.919 177.152 143.86 175.517 147.97 175.512H154.498C158.609 175.517 162.55 177.152 165.456 180.06C168.363 182.968 169.998 186.91 170.002 191.022C169.998 191.963 169.627 192.866 168.967 193.537C168.308 194.208 167.412 194.595 166.472 194.616L144.822 194.989C144.7 194.991 144.577 194.993 144.455 194.993Z" fill="#2F2E41"/>
<path d="M171.09 188.043C173.172 186.841 173.52 183.545 171.867 180.682C170.215 177.819 167.188 176.472 165.106 177.675C163.025 178.877 162.677 182.173 164.329 185.036C165.982 187.899 169.009 189.246 171.09 188.043Z" fill="#2F2E41"/>
<path d="M138.535 184.849C140.872 182.511 141.389 179.238 139.689 177.538C137.99 175.837 134.718 176.354 132.381 178.692C130.044 181.03 129.527 184.303 131.227 186.004C132.926 187.704 136.198 187.187 138.535 184.849Z" fill="#2F2E41"/>
<path d="M280.892 331.976H264.837C264.475 331.975 264.117 332.054 263.788 332.206C263.459 332.358 263.168 332.58 262.934 332.856C262.342 332.747 261.732 332.781 261.155 332.953C260.578 333.126 260.05 333.433 259.615 333.849C259.18 334.265 258.849 334.778 258.651 335.347C258.452 335.916 258.391 336.523 258.473 337.12C258.555 337.717 258.777 338.286 259.121 338.78C259.465 339.274 259.922 339.68 260.453 339.963C260.984 340.247 261.575 340.4 262.177 340.411C262.779 340.422 263.375 340.29 263.916 340.025L265.248 344.354C265.405 344.867 265.723 345.316 266.155 345.635C266.587 345.954 267.109 346.126 267.645 346.126H278.084C278.62 346.126 279.143 345.954 279.574 345.635C280.006 345.316 280.324 344.867 280.481 344.354L283.29 335.224C283.405 334.849 283.431 334.451 283.365 334.064C283.299 333.677 283.143 333.311 282.91 332.995C282.677 332.679 282.373 332.422 282.022 332.245C281.672 332.068 281.285 331.976 280.892 331.976ZM262.256 339.323C261.535 339.323 260.843 339.036 260.333 338.526C259.823 338.016 259.536 337.324 259.536 336.602C259.536 335.88 259.823 335.188 260.333 334.678C260.843 334.168 261.535 333.881 262.256 333.881C262.306 333.881 262.352 333.893 262.401 333.896C262.293 334.334 262.306 334.793 262.439 335.224L263.588 338.96C263.183 339.195 262.724 339.32 262.256 339.323Z" fill="#3F3D56"/>
<path d="M209.2 320.162C208.103 320.264 206.998 320.124 205.962 319.751C204.925 319.379 203.983 318.784 203.201 318.009C202.42 317.233 201.818 316.295 201.438 315.261C201.057 314.228 200.908 313.123 201.001 312.026L147.45 283.317L159.163 275.814L209.686 305.125C211.519 305.403 213.186 306.344 214.372 307.77C215.557 309.195 216.179 311.007 216.119 312.86C216.059 314.714 215.322 316.481 214.046 317.827C212.771 319.172 211.046 320.004 209.2 320.162Z" fill="#FFB6B6"/>
<path d="M139.093 230.558C139.093 230.558 129.537 229.361 127.084 240.115C124.632 250.869 141.444 280.848 144.009 285.761C146.574 290.674 181.536 301.42 181.536 301.42L194.999 294.386L164.855 275.273L139.093 230.558Z" fill="#EB4628"/>
<path d="M206.451 186.124H209.715C211.302 186.124 212.824 186.755 213.946 187.878C215.069 189 215.699 190.523 215.699 192.111H200.467C200.467 190.523 201.097 189 202.22 187.878C203.342 186.755 204.864 186.124 206.451 186.124Z" fill="#CCCCCC"/>
<path d="M102.949 74.431C120.808 74.431 135.286 59.9475 135.286 42.0813C135.286 24.2151 120.808 9.73169 102.949 9.73169C85.0898 9.73169 70.6121 24.2151 70.6121 42.0813C70.6121 59.9475 85.0898 74.431 102.949 74.431Z" fill="#FF6584"/>
<path d="M201.957 40.3955C193.399 31.4144 183.46 23.2214 171.694 18.8919C168.416 17.6807 165.018 16.8264 161.557 16.3436C161.529 16.3398 161.503 16.3455 161.475 16.3432C161.419 16.3287 161.362 16.3175 161.305 16.3097C156.465 15.6928 151.552 15.9895 146.822 17.1843C144.509 17.7651 142.252 18.5516 140.079 19.5344C137.898 20.5988 135.784 21.7969 133.751 23.1218C129.447 25.6991 124.708 27.4676 119.769 28.3401C117.289 28.7867 114.778 29.0332 112.259 29.0774C110.073 29.1213 108.012 29.1973 105.941 29.9872C103.729 30.8194 101.742 32.1572 100.139 33.8941C98.5352 35.6309 97.3598 37.7186 96.7061 39.9906C96.6557 40.1929 96.6709 40.406 96.7495 40.5991C96.828 40.7923 96.9659 40.9554 97.1432 41.0651C97.7033 41.4664 98.2494 41.9218 98.838 42.2794C99.3615 42.5191 99.9207 42.6717 100.493 42.7311C101.429 42.9286 102.366 43.1203 103.304 43.3063C106.76 43.9913 110.23 44.5977 113.715 45.1255C120.766 46.1933 127.855 46.9455 134.983 47.382C149.261 48.2472 163.588 47.8165 177.788 46.095C185.769 45.128 193.695 43.7565 201.537 41.9857C201.696 41.9393 201.84 41.8526 201.955 41.7341C202.071 41.6156 202.153 41.4692 202.196 41.3092C202.238 41.1492 202.238 40.981 202.196 40.8209C202.154 40.6608 202.072 40.5143 201.957 40.3955Z" fill="#E6E6E6"/>
<path d="M104.484 62.0247C101.206 60.8136 97.8078 59.9593 94.3474 59.4765C94.3196 59.4727 94.2932 59.4783 94.2656 59.4761C94.2093 59.4616 94.1522 59.4504 94.0946 59.4425C89.2548 58.8257 84.3424 59.1224 79.6119 60.3172C77.2986 60.898 75.0419 61.6844 72.8686 62.6673C70.6877 63.7317 68.5745 64.9297 66.5411 66.2546C62.2371 68.832 57.4984 70.6005 52.5587 71.473C50.0792 71.9195 47.5679 72.1661 45.0489 72.2103C42.8632 72.2542 40.802 72.3301 38.7312 73.1201C36.5191 73.9522 34.5321 75.2901 32.9287 77.0269C31.3253 78.7637 30.1499 80.8514 29.4962 83.1234C29.4458 83.3257 29.461 83.5388 29.5396 83.732C29.6181 83.9251 29.756 84.0883 29.9333 84.1979C30.4935 84.5993 31.0395 85.0546 31.6281 85.4122C32.1517 85.6519 32.7108 85.8045 33.2836 85.8639C34.2193 86.0614 35.1562 86.2532 36.0943 86.4391C39.5503 87.1242 43.0206 87.7305 46.5053 88.2583C53.5564 89.3261 60.6456 90.0783 67.7729 90.5149C82.0509 91.3801 96.3779 90.9493 110.578 89.2279C118.559 88.2609 126.485 86.8893 134.327 85.1186C134.486 85.0721 134.63 84.9854 134.745 84.8669C134.861 84.7484 134.944 84.602 134.986 84.442C135.028 84.282 135.028 84.1138 134.986 83.9537C134.944 83.7936 134.862 83.6471 134.747 83.5283C126.189 74.5473 116.25 66.3543 104.484 62.0247Z" fill="#E6E6E6"/>
<path d="M337.678 303.186L312.81 270.505L293.189 281.604L334.768 330.999L337.678 303.186Z" fill="#3F3D56"/>
<path d="M394.961 250.06C395.513 263.756 397.634 277.343 401.282 290.555C400.499 292.4 399.69 294.232 398.856 296.052C395.699 302.943 392.165 309.654 388.269 316.156C377.343 334.413 363.705 350.901 347.822 365.054C346.103 366.583 344.361 368.087 342.594 369.566C332.525 355.677 327.09 340.352 324.941 324.58C324.669 322.577 324.446 320.553 324.278 318.539V318.528C323.865 313.635 323.732 308.721 323.88 303.813C323.886 303.421 323.897 303.023 323.913 302.626C324.104 297.38 324.577 292.123 325.289 286.914V286.909C325.371 286.31 325.453 285.712 325.545 285.113C325.806 283.317 326.1 281.521 326.421 279.736C328.289 269.441 330.896 259.294 334.222 249.374V249.369C334.315 249.08 334.407 248.797 334.51 248.514C334.869 247.437 335.234 246.37 335.609 245.303C335.633 245.22 335.662 245.138 335.696 245.058C336.181 243.665 336.676 242.283 337.181 240.911C337.318 240.53 337.459 240.149 337.606 239.768C338.177 238.239 338.759 236.721 339.352 235.224C339.537 234.745 339.727 234.266 339.918 233.793C340.065 233.428 340.206 233.064 340.359 232.704V232.699C341.223 230.56 342.099 228.463 342.986 226.408C345.472 220.628 348.029 215.191 350.521 210.179L350.526 210.174C360.868 189.422 370.268 175.947 370.268 175.947L405.569 187.376C401.358 194.848 398.099 205.869 396.315 218.87C394.94 229.204 394.487 239.64 394.961 250.054L394.961 250.06Z" fill="#3F3D56"/>
<path d="M336.289 246.734C336.083 246.25 335.849 245.777 335.609 245.303C334.368 242.9 332.771 240.698 330.871 238.772C330.588 238.484 330.294 238.196 329.99 237.923C326.713 234.904 322.728 232.76 318.404 231.689C314.079 230.618 309.555 230.654 305.248 231.796L305.226 231.806L305.063 231.85L305.101 232.035C305.265 232.897 305.501 233.744 305.809 234.566C305.89 234.789 305.983 235.001 306.075 235.213C306.113 235.311 306.162 235.398 306.206 235.496C306.206 235.496 306.2 235.502 306.211 235.502C306.211 235.507 306.217 235.513 306.217 235.518C306.32 235.719 306.418 235.926 306.527 236.122C306.304 235.91 306.091 235.692 305.885 235.469C305.683 235.262 305.498 235.045 305.313 234.827C304.679 234.087 304.106 233.297 303.6 232.465L303.513 232.318L303.361 232.378C301.308 233.09 299.349 234.049 297.529 235.235L297.333 235.366C295.943 236.279 294.377 236.889 292.736 237.157C291.094 237.425 289.415 237.345 287.807 236.922C285.272 236.268 282.629 236.149 280.045 236.571C277.461 236.994 274.993 237.949 272.798 239.377C271.344 240.325 270.029 241.472 268.892 242.783C268.794 242.898 268.696 243.017 268.598 243.132C268.392 243.382 268.196 243.638 268.005 243.899C265.96 246.633 264.705 249.877 264.377 253.276L264.366 253.401L264.469 253.472C266.31 254.734 268.392 255.601 270.584 256.019C269.207 256.211 267.813 256.246 266.428 256.122H266.422C265.794 256.07 265.169 255.983 264.551 255.861L264.437 255.839H264.431L264.29 255.812L264.312 256.073C264.474 259.399 265.52 262.621 267.342 265.407L267.396 265.483C267.416 265.511 267.434 265.54 267.451 265.57C268.222 266.751 268.864 268.012 269.365 269.331C270.637 272.608 270.917 276.187 270.171 279.622C269.326 283.296 269.606 287.14 270.977 290.652C272.347 294.164 274.743 297.182 277.852 299.312C280.583 301.192 283.766 302.309 287.073 302.55C287.524 302.588 287.981 302.61 288.438 302.61C291.054 302.618 293.643 302.078 296.038 301.026L296.125 300.994L296.147 300.896C296.607 299.408 297.254 297.986 298.073 296.662C297.805 297.705 297.67 298.779 297.67 299.856V300.215L297.98 300.036C298.247 299.878 298.519 299.709 298.764 299.551C300.233 298.591 301.564 297.434 302.719 296.112C303.17 295.589 303.627 295.083 304.106 294.577L304.111 294.572C305.041 293.581 306.026 292.612 307.049 291.687C309.225 289.732 311.553 287.954 314.012 286.37C316.469 284.792 319.038 283.395 321.699 282.191H321.704C322.004 282.049 322.308 281.913 322.608 281.782C323.932 281.205 325.208 280.521 326.421 279.736C326.464 279.709 326.503 279.687 326.541 279.66C331.8 276.215 335.666 271.015 337.451 264.986C339.236 258.956 338.825 252.489 336.289 246.734Z" fill="#EB4628"/>
<path opacity="0.15" d="M271.067 287.349C270.918 288.011 270.806 288.68 270.73 289.354C269.717 286.152 269.57 282.739 270.305 279.462C270.418 278.96 270.503 278.453 270.569 277.943C271.574 280.977 271.746 284.226 271.067 287.349Z" fill="black"/>
<path opacity="0.15" d="M271.478 263.742C269.867 263.966 268.233 263.973 266.619 263.765C266.197 262.968 265.832 262.141 265.528 261.292C267.324 262.504 269.349 263.338 271.478 263.742Z" fill="black"/>
<path opacity="0.15" d="M266.49 255.947C265.895 257.469 265.5 259.062 265.314 260.685C264.818 259.139 264.525 257.535 264.443 255.913L264.429 255.652L264.686 255.701C265.283 255.814 265.885 255.896 266.49 255.947Z" fill="black"/>
<path opacity="0.15" d="M272.938 239.215C275.131 237.785 277.597 236.829 280.18 236.406C282.763 235.982 285.405 236.102 287.939 236.757C289.548 237.183 291.228 237.264 292.87 236.996C294.512 236.729 296.08 236.118 297.47 235.203L297.666 235.074C299.485 233.885 301.443 232.923 303.495 232.21L303.652 232.156L303.737 232.297C304.549 233.64 305.532 234.87 306.662 235.957C305.976 234.678 305.495 233.299 305.238 231.87L305.201 231.682L305.386 231.633C309.425 230.563 313.66 230.464 317.745 231.344C321.829 232.223 325.648 234.056 328.89 236.693C332.131 239.331 334.704 242.697 336.397 246.518C338.091 250.339 338.857 254.507 338.634 258.681C337.777 255.278 336.254 252.079 334.153 249.269C332.051 246.46 329.413 244.095 326.391 242.313C323.37 240.531 320.025 239.366 316.55 238.887C313.075 238.407 309.54 238.622 306.149 239.52L305.963 239.569L306 239.757C306.257 241.186 306.738 242.566 307.424 243.845C306.294 242.757 305.311 241.527 304.5 240.185L304.414 240.043L304.257 240.097C302.205 240.81 300.248 241.772 298.429 242.961L298.232 243.091C296.842 244.005 295.275 244.616 293.632 244.884C291.99 245.152 290.31 245.07 288.701 244.645C284.49 243.551 280.03 243.953 276.082 245.782C272.134 247.611 268.942 250.753 267.05 254.673C266.208 254.268 265.392 253.812 264.606 253.307L264.499 253.239L264.512 253.114C264.782 250.312 265.681 247.608 267.139 245.202C268.598 242.796 270.58 240.749 272.938 239.215Z" fill="black"/>
<path d="M475.18 100.159L474.663 99.8159L474.288 100.306C471.383 103.965 469.071 108.058 467.439 112.436C467.664 107.393 468.546 102.4 470.061 97.5846L470.224 97.0785L469.756 96.8118C463.669 93.3638 457.184 90.6735 450.444 88.8009L449.71 88.6049C444.544 87.187 439.735 84.6958 435.597 81.2937C431.458 77.8917 428.083 73.6552 425.692 68.8605C420.134 57.8566 411.353 48.8101 400.522 42.9282C389.691 37.0462 377.325 34.6085 365.073 35.9405H365.067C364.937 35.9514 364.801 35.9677 364.67 35.984C364.447 36.0058 364.23 36.033 364.012 36.0602C363.566 36.1201 363.131 36.1799 362.695 36.2452C362.326 36.2997 361.95 36.3595 361.58 36.4248C361.384 36.452 361.194 36.4847 361.004 36.5228C360.813 36.5554 360.617 36.5881 360.427 36.6262H360.422C356.769 37.3174 353.188 38.3467 349.726 39.701H349.721V39.7065L348.845 40.0493C347.942 40.4194 347.046 40.8112 346.158 41.2248C345.956 41.3174 345.761 41.4153 345.559 41.5078C345.505 41.535 345.445 41.5623 345.391 41.5949C344.819 41.867 344.254 42.15 343.693 42.4494C343.612 42.4874 343.53 42.531 343.448 42.5745L342.926 42.8521C341.778 43.4725 340.65 44.131 339.543 44.8276C339.45 44.882 339.363 44.9364 339.271 44.9963C339.173 45.0616 339.069 45.1269 338.971 45.1922C338.911 45.2249 338.852 45.2684 338.792 45.3065C338.623 45.4099 338.46 45.5188 338.297 45.6331C337.97 45.8453 337.644 46.063 337.323 46.2861C336.991 46.5092 336.665 46.7433 336.338 46.9773L336.012 47.2113L336.072 47.614C336.126 47.946 336.175 48.278 336.235 48.6045C336.289 48.931 336.344 49.2521 336.404 49.5732C336.496 50.112 336.599 50.6453 336.703 51.1624C336.774 51.5052 336.839 51.8426 336.915 52.1746C336.986 52.5175 337.062 52.8603 337.143 53.2032C337.301 53.9107 337.47 54.5964 337.649 55.2712C337.736 55.6087 337.829 55.9461 337.927 56.2781C337.981 56.4794 338.036 56.6808 338.095 56.8767C338.139 57.0128 338.183 57.1488 338.226 57.2849C338.237 57.3284 338.248 57.3774 338.264 57.4264C338.276 57.4725 338.291 57.5179 338.308 57.5624C338.367 57.7638 338.427 57.9597 338.487 58.1502C338.52 58.2536 338.552 58.357 338.59 58.4549C338.667 58.689 338.748 58.9284 338.83 59.157C338.917 59.4182 339.009 59.6795 339.102 59.9352C339.124 60.0005 339.145 60.0604 339.167 60.1257C339.183 60.1747 339.2 60.2237 339.222 60.2727C339.243 60.3271 339.265 60.3869 339.287 60.4414C339.379 60.6863 339.472 60.9366 339.57 61.1815C339.602 61.2686 339.635 61.3611 339.673 61.4482C340.555 63.6653 341.638 65.7967 342.91 67.8156C341.501 66.6074 340.145 65.3267 338.841 63.9734C336.828 61.8809 334.973 59.6416 333.292 57.274C333.156 57.0889 333.02 56.8985 332.895 56.708C332.639 56.3434 332.389 55.9787 332.144 55.6087C331.883 55.2277 331.633 54.8304 331.388 54.4386C331.225 54.1774 331.061 53.9107 330.904 53.6495C330.746 53.3991 330.599 53.1542 330.458 52.9039L330.033 52.1746H330.028V52.1801L329.429 52.7678C329.19 53.0018 328.951 53.2358 328.717 53.4698C321.405 60.8295 316.109 69.9472 313.338 79.9463L313.256 80.2456L313.174 80.5558C313.017 81.1109 312.859 81.6497 312.69 82.1994V82.2048C312.527 82.749 312.353 83.2933 312.168 83.8266C311.999 84.3327 311.825 84.8334 311.64 85.3341C311.581 85.5028 311.515 85.6715 311.445 85.8402C311.33 86.1668 311.205 86.4879 311.08 86.8144C311.02 86.9613 310.96 87.1137 310.901 87.2607C310.754 87.6198 310.607 87.979 310.46 88.3328C310.438 88.3872 310.411 88.4471 310.384 88.5015C310.34 88.6103 310.291 88.7192 310.248 88.8226C310.133 89.0838 310.014 89.3505 309.9 89.6117C309.818 89.7804 309.742 89.9546 309.666 90.1233C309.633 90.1995 309.595 90.2757 309.562 90.3518C309.361 90.7872 309.154 91.2172 308.937 91.6417C308.692 92.1424 308.442 92.6431 308.175 93.1329C307.941 93.59 307.696 94.0363 307.441 94.4825C307 95.2717 306.538 96.0553 306.059 96.8172C305.874 97.1111 305.689 97.405 305.499 97.6989C305.455 97.7696 305.411 97.8404 305.368 97.9057C305.21 98.1615 305.047 98.4064 304.878 98.6567C304.764 98.8254 304.65 98.9941 304.536 99.1574C304.345 99.4513 304.144 99.7343 303.937 100.012C303.883 100.099 303.823 100.181 303.763 100.262C303.459 100.687 303.154 101.1 302.844 101.514C302.833 101.519 302.833 101.525 302.827 101.53C302.817 101.53 302.817 101.536 302.811 101.541C302.675 101.721 302.539 101.9 302.398 102.074C302.213 102.33 302.011 102.581 301.81 102.825C301.484 103.239 301.141 103.658 300.793 104.066C300.782 104.077 300.777 104.088 300.766 104.094C298.963 106.212 297.011 108.198 294.923 110.036C294.885 110.069 294.858 110.102 294.82 110.129C294.526 110.385 294.232 110.641 293.927 110.891C293.802 110.994 293.677 111.098 293.552 111.201C293.345 111.375 293.133 111.549 292.927 111.707C292.902 111.732 292.875 111.754 292.845 111.772C292.66 111.925 292.48 112.066 292.295 112.208C292.072 112.387 291.849 112.556 291.621 112.725C290.544 113.541 289.438 114.312 288.302 115.038C288.134 115.152 287.954 115.266 287.78 115.375C287.677 115.441 287.573 115.506 287.476 115.56C287.062 115.816 286.649 116.066 286.235 116.306C285.822 116.551 285.397 116.785 284.979 117.013C284.081 117.503 283.194 118.015 282.329 118.548C281.894 118.82 281.459 119.092 281.029 119.37C279.321 120.48 277.676 121.668 276.095 122.935C274.514 124.201 272.998 125.547 271.552 126.967C271.373 127.141 271.193 127.321 271.014 127.506C270.655 127.86 270.307 128.219 269.975 128.578C269.442 129.128 268.93 129.694 268.424 130.265C265.757 133.293 263.395 136.578 261.374 140.072C260.359 141.817 259.437 143.613 258.611 145.454C257.985 146.831 257.414 148.241 256.897 149.667C256.554 150.619 256.233 151.581 255.934 152.551C255.787 153.035 255.646 153.525 255.51 154.015C255.047 155.675 254.661 157.351 254.345 159.033C254.09 160.383 253.883 161.734 253.725 163.087C253.644 163.768 253.578 164.448 253.519 165.123C253.378 166.781 253.307 168.442 253.304 170.104C253.294 175.089 253.9 180.057 255.107 184.894C255.374 185.961 255.669 187.022 255.994 188.078C256.157 188.606 256.331 189.128 256.505 189.651C256.946 190.957 257.434 192.25 257.969 193.531C258.29 194.298 258.627 195.06 258.98 195.817C261.228 200.626 264.095 205.12 267.51 209.183C268.071 209.852 268.649 210.511 269.246 211.159C269.251 211.159 269.246 211.164 269.246 211.164C270.726 212.779 272.293 214.313 273.941 215.757H273.946C274.604 216.339 275.273 216.904 275.953 217.45C275.959 217.444 275.959 217.45 275.959 217.45C276.644 218.005 277.335 218.538 278.042 219.055C278.396 219.311 278.755 219.567 279.12 219.823C279.832 220.329 280.559 220.817 281.301 221.287H281.307C282.046 221.765 282.797 222.223 283.559 222.658C285.087 223.534 286.654 224.356 288.264 225.102L288.536 225.227L288.814 225.102C291.396 223.939 294.057 222.963 296.778 222.179C297.376 222.005 297.98 221.847 298.579 221.695C300.091 221.319 301.614 221.004 303.148 220.748C301.654 221.498 300.211 222.347 298.829 223.289C297.757 224.013 296.702 224.802 295.641 225.673C295.287 225.961 294.934 226.261 294.58 226.565L293.699 227.327L294.803 227.692C295.206 227.823 295.608 227.953 296.011 228.073C296.56 228.247 297.104 228.405 297.638 228.552C298.802 228.878 299.973 229.167 301.152 229.417C301.44 229.477 301.723 229.537 302.011 229.597C302.572 229.706 303.138 229.815 303.703 229.912C303.727 229.918 303.75 229.922 303.774 229.923C304.362 230.021 304.955 230.114 305.542 230.195C306.636 230.353 307.729 230.478 308.822 230.571C308.942 230.587 309.062 230.593 309.187 230.598C309.454 230.62 309.715 230.642 309.981 230.658C310.569 230.696 311.162 230.723 311.755 230.745C311.798 230.745 311.836 230.751 311.88 230.751C312.179 230.761 312.478 230.772 312.777 230.778C312.777 230.778 312.777 230.783 312.783 230.778C313.082 230.783 313.381 230.789 313.68 230.789H315.334C315.644 230.789 315.954 230.794 316.27 230.794C316.705 230.794 317.146 230.8 317.581 230.805C317.695 230.805 317.815 230.81 317.935 230.81C318.631 230.821 319.327 230.838 320.024 230.854C320.067 230.854 320.111 230.859 320.154 230.859C320.85 230.881 321.547 230.903 322.243 230.936C322.395 230.941 322.548 230.946 322.706 230.957C323.375 230.985 324.044 231.017 324.713 231.055C324.903 231.066 325.099 231.083 325.295 231.093C325.801 231.121 326.312 231.153 326.818 231.191C327.117 231.208 327.411 231.229 327.71 231.257C328.918 231.349 330.12 231.453 331.328 231.572C331.731 231.605 332.133 231.648 332.536 231.692C333.613 231.806 334.694 231.932 335.778 232.068C336.262 232.122 336.746 232.187 337.231 232.253C337.285 232.258 337.339 232.263 337.394 232.274C337.992 232.356 338.585 232.438 339.184 232.525C339.575 232.579 339.967 232.639 340.359 232.699C340.761 232.759 341.164 232.819 341.566 232.889C341.784 232.922 342.001 232.96 342.225 232.998C342.747 233.08 343.274 233.167 343.802 233.265C343.85 233.269 343.897 233.277 343.944 233.287C345.064 233.483 346.19 233.689 347.311 233.912C347.969 234.038 348.622 234.168 349.275 234.304C349.786 234.408 350.298 234.517 350.809 234.625C350.896 234.642 350.983 234.664 351.07 234.685C351.09 234.691 351.11 234.695 351.13 234.696C351.902 234.865 352.68 235.039 353.453 235.224C356.135 235.844 358.813 236.534 361.488 237.292C362.103 237.461 362.717 237.64 363.332 237.82C363.593 237.896 363.849 237.972 364.105 238.049C364.638 238.206 365.165 238.364 365.698 238.533C366.166 238.674 366.64 238.821 367.107 238.974C367.401 239.066 367.695 239.159 367.989 239.257C368.446 239.398 368.903 239.545 369.354 239.703C369.74 239.823 370.121 239.948 370.502 240.084C371.046 240.264 371.596 240.449 372.14 240.645C372.297 240.699 372.46 240.753 372.618 240.813C373.282 241.042 373.946 241.276 374.609 241.521C375.257 241.755 375.904 241.994 376.546 242.234C376.992 242.402 377.438 242.566 377.879 242.74C378.374 242.93 378.869 243.121 379.359 243.317C380.066 243.594 380.778 243.877 381.486 244.166C382.138 244.427 382.786 244.694 383.439 244.971C383.558 245.02 383.683 245.069 383.803 245.124C384.369 245.358 384.935 245.602 385.495 245.847C385.859 246 386.218 246.158 386.577 246.315C388.144 247.001 389.709 247.71 391.272 248.443H391.278C392.257 248.906 393.252 249.347 394.253 249.766C394.487 249.864 394.721 249.962 394.961 250.054C395.358 250.223 395.76 250.381 396.163 250.544C396.424 250.647 396.685 250.751 396.952 250.849C397.338 251.001 397.73 251.148 398.121 251.29C398.535 251.442 398.943 251.594 399.362 251.736C399.509 251.79 399.655 251.839 399.808 251.894C400.292 252.057 400.776 252.22 401.266 252.378C401.315 252.394 401.364 252.411 401.418 252.427C401.929 252.59 402.441 252.754 402.958 252.906C402.998 252.921 403.04 252.934 403.083 252.944C403.638 253.113 404.203 253.276 404.764 253.434C405.591 253.662 406.423 253.88 407.255 254.081C407.408 254.12 407.56 254.158 407.712 254.19C408.158 254.299 408.599 254.402 409.045 254.5C409.518 254.609 409.997 254.707 410.47 254.805C410.949 254.903 411.428 255.001 411.901 255.088C412.157 255.137 412.412 255.186 412.663 255.23L413.332 255.344C413.794 255.426 414.257 255.496 414.724 255.573C414.737 255.572 414.75 255.574 414.763 255.578C415.29 255.66 415.813 255.736 416.34 255.801C416.846 255.872 417.352 255.932 417.858 255.992C417.961 256.003 418.07 256.013 418.179 256.024C418.598 256.073 419.017 256.122 419.436 256.16C419.555 256.171 419.675 256.182 419.795 256.193C420.208 256.231 420.622 256.269 421.035 256.296C421.118 256.307 421.202 256.313 421.285 256.313C421.655 256.345 422.025 256.373 422.395 256.389C422.656 256.411 422.912 256.422 423.173 256.438C423.309 256.443 423.439 256.449 423.576 256.454C423.935 256.476 424.294 256.487 424.658 256.498C425.099 256.514 425.539 256.525 425.975 256.536C426.502 256.547 427.035 256.552 427.563 256.552H427.574C428.091 256.552 428.613 256.547 429.13 256.536H429.326L429.897 256.52C430.191 256.514 430.484 256.503 430.773 256.492C431.328 256.471 431.877 256.443 432.427 256.411C432.644 256.4 432.867 256.383 433.085 256.373C433.183 256.367 433.286 256.356 433.384 256.351C433.727 256.329 434.064 256.307 434.407 256.28C434.76 256.253 435.119 256.22 435.473 256.182C435.93 256.139 436.387 256.09 436.844 256.041C437.203 256.003 437.562 255.959 437.916 255.915C437.963 255.911 438.01 255.904 438.057 255.894C438.4 255.856 438.743 255.812 439.08 255.763C439.482 255.709 439.879 255.649 440.277 255.589C440.32 255.584 440.358 255.578 440.402 255.573C441.087 255.464 441.778 255.355 442.469 255.23C443.193 255.099 443.916 254.958 444.634 254.811C444.901 254.756 445.162 254.696 445.428 254.642C445.575 254.609 445.728 254.582 445.869 254.549C446.092 254.501 446.31 254.452 446.527 254.397C446.565 254.392 446.609 254.381 446.647 254.375C446.952 254.31 447.251 254.234 447.555 254.158C448.165 254.011 448.763 253.858 449.362 253.695C449.628 253.63 449.895 253.559 450.15 253.488C450.227 253.466 450.303 253.445 450.373 253.423C451.478 253.113 452.573 252.784 453.659 252.438C454.138 252.286 454.611 252.128 455.085 251.959C456.102 251.611 457.11 251.244 458.109 250.86C458.376 250.762 458.642 250.653 458.909 250.549C459.301 250.392 459.692 250.234 460.079 250.076C460.427 249.929 460.775 249.782 461.128 249.63C461.303 249.559 461.477 249.483 461.651 249.407C462.173 249.178 462.695 248.944 463.212 248.71C463.56 248.547 463.903 248.389 464.246 248.226C464.79 247.964 465.328 247.698 465.867 247.431C466.003 247.36 466.133 247.29 466.264 247.224C466.607 247.05 466.949 246.871 467.298 246.696C467.847 246.402 468.396 246.109 468.94 245.804C469.125 245.706 469.305 245.602 469.49 245.499C470.088 245.162 470.681 244.819 471.269 244.47C472.569 243.692 473.851 242.88 475.115 242.032C475.43 241.826 475.746 241.608 476.056 241.396C476.644 240.993 477.22 240.579 477.797 240.166C477.857 240.122 477.911 240.079 477.971 240.04C478.259 239.828 478.548 239.616 478.836 239.398C479.434 238.947 480.027 238.489 480.62 238.021C480.631 238.016 480.647 238 480.664 237.989C480.93 237.777 481.197 237.564 481.458 237.352C482.269 236.694 483.068 236.024 483.852 235.333C484.238 235.001 484.619 234.658 484.994 234.315C485.277 234.059 485.56 233.804 485.837 233.542C486.398 233.015 486.947 232.492 487.491 231.959C487.763 231.698 488.03 231.425 488.302 231.153C488.568 230.881 488.84 230.609 489.107 230.332C489.199 230.239 489.292 230.141 489.384 230.043C489.656 229.755 489.928 229.461 490.2 229.172C490.434 228.922 490.663 228.661 490.897 228.4C491.288 227.964 491.685 227.529 492.072 227.088C492.092 227.063 492.114 227.04 492.137 227.017C492.159 226.99 492.18 226.968 492.197 226.947H492.191C500.099 217.799 505.974 207.076 509.428 195.486C512.883 183.897 513.837 171.706 512.229 159.72C510.621 147.734 506.487 136.226 500.1 125.958C493.713 115.69 485.219 106.897 475.18 100.159Z" fill="#EB4628"/>
<g opacity="0.15">
<path d="M365.069 35.9362C366.153 39.8331 367.784 43.5563 369.914 46.9948C366.349 43.9306 363.163 40.4501 360.425 36.6277C361.963 36.3367 363.511 36.1062 365.069 35.9362Z" fill="black"/>
<path d="M311.986 96.2019C307.959 98.4002 304.195 101.048 300.764 104.093C306.557 97.2403 310.791 89.2089 313.172 80.5559C313.201 80.452 313.23 80.3473 313.258 80.2432L313.339 79.9487C316.2 69.6213 321.752 60.2395 329.427 52.7628L330.03 52.1747L330.456 52.9015C332.809 56.9036 335.624 60.6148 338.844 63.9583C333.91 77.8871 324.308 89.4797 311.986 96.2019Z" fill="black"/>
<path d="M340.344 59.1321L340.263 59.4266C340.235 59.5307 340.206 59.6354 340.177 59.7393C340.018 60.312 339.849 60.8803 339.675 61.4463C337.954 56.9871 336.746 52.3466 336.073 47.6142L336.009 47.2126L336.339 46.9767C340.479 44.0009 344.975 41.5558 349.723 39.6985C345.46 45.5633 342.284 52.1454 340.344 59.1321Z" fill="black"/>
<path d="M284.98 117.018C288.544 115.067 291.879 112.725 294.924 110.036C288.841 117.121 284.481 125.519 282.185 134.572C279.889 143.624 279.719 153.086 281.69 162.215C283.66 171.345 287.717 179.893 293.543 187.192C299.368 194.49 306.804 200.34 315.267 204.283L315.542 204.41L315.817 204.286C320.388 202.22 325.208 200.756 330.156 199.93C327.067 201.504 324.189 203.459 321.587 205.749L320.707 206.511L321.811 206.875C322.764 207.191 323.717 207.481 324.644 207.738C330.088 209.255 335.717 210.008 341.368 209.977C367.046 209.812 392.924 215.751 418.281 227.628C422.63 229.662 427.14 231.329 431.766 232.614C451.924 238.229 473.444 236.209 492.207 226.941C481.629 239.18 467.797 248.166 452.318 252.854C436.839 257.543 420.349 257.743 404.761 253.43C400.135 252.146 395.625 250.478 391.276 248.445C365.919 236.568 340.041 230.629 314.363 230.793C308.712 230.825 303.083 230.072 297.639 228.555C296.712 228.297 295.759 228.007 294.806 227.692L293.702 227.327L294.582 226.566C297.183 224.275 300.062 222.32 303.15 220.746C298.203 221.572 293.383 223.036 288.811 225.102L288.537 225.226L288.262 225.099C278.099 220.367 269.45 212.902 263.28 203.538C257.111 194.175 253.664 183.28 253.323 172.071C252.983 160.861 255.763 149.777 261.353 140.056C266.943 130.335 275.123 122.359 284.98 117.018Z" fill="black"/>
</g>
</g>
<defs>
<clipPath id="clip0_1_4038">
<rect width="513" height="433" fill="white"/>
</clipPath>
</defs>
</svg>
